<?xml version="1.0" standalone="no"?>
<!DOCTYPE svg PUBLIC "-//W3C//DTD SVG 1.1//EN" "http://www.w3.org/Graphics/SVG/1.1/DTD/svg11.dtd" >
<svg xmlns="http://www.w3.org/2000/svg" xmlns:xlink="http://www.w3.org/1999/xlink" version="1.1">
<metadata>
Created by FontForge 20170731 at Mon Jul 31 22:16:02 2023
 By Aleksey,,,
Copyright (c) 2010 Linotype GmbH, www.linotype.com. All rights reserved. This font software may not be reproduced, modified, disclosed or transferred without the express written approval of Linotype GmbH.
</metadata>
<defs>
<font id="DINNextW1G-Bold" horiz-adv-x="1138" >
  <font-face 
    font-family="DIN Next W1G"
    font-weight="700"
    font-stretch="normal"
    units-per-em="2048"
    panose-1="2 11 8 3 2 2 3 5 2 3"
    ascent="1599"
    descent="-449"
    x-height="991"
    cap-height="1393"
    bbox="-461.893 -487 2204 1894"
    underline-thickness="102"
    underline-position="-307"
    unicode-range="U+000D-FB04"
  />
<missing-glyph horiz-adv-x="1036" 
d="M0 20v1352q0 21 20 21h996q20 0 20 -21v-1352q0 -20 -20 -20h-996q-20 0 -20 20zM141 1247v-1102q0 -12 13 -12h729q12 0 12 12v1102q0 13 -12 13h-729q-13 0 -13 -13zM567 498h-139q-20 0 -20 20v49q0 62 38 111l95 123q47 62 47 106q0 37 -23.5 61.5t-60.5 24.5
q-77 0 -98 -80q-3 -21 -23 -18l-133 20q-20 0 -17 23q19 101 92 158t187 57q115 0 187.5 -68t72.5 -172q0 -94 -65 -168l-93 -122q-26 -36 -26 -78v-27q0 -20 -21 -20zM406 254v137q0 21 20 21h145q21 0 21 -21v-137q0 -21 -21 -21h-145q-20 0 -20 21z" />
    <glyph glyph-name="IJ" unicode="IJ" horiz-adv-x="1634" 
d="M610 156q-10 16 2 28l191 146q15 9 28 -4q70 -82 170 -82q99 0 152 62t53 179v887q0 21 21 21h260q20 0 20 -21v-872q0 -252 -132.5 -387.5t-375.5 -135.5q-123 0 -231 50t-158 129zM133 20v1352q0 21 21 21h260q20 0 20 -21v-1352q0 -20 -20 -20h-260q-21 0 -21 20z" />
    <glyph glyph-name="ij" unicode="ij" horiz-adv-x="1089" 
d="M940 1149h-246q-20 0 -20 20v203q0 21 20 21h246q21 0 21 -21v-203q0 -20 -21 -20zM590 -369h-68q-20 0 -20 21v201q0 20 20 20h41q62 0 86.5 25t24.5 90v983q0 20 20 20h246q21 0 21 -20v-981q0 -359 -371 -359zM395 1149h-245q-21 0 -21 20v203q0 21 21 21h245
q21 0 21 -21v-203q0 -20 -21 -20zM395 0h-245q-21 0 -21 20v951q0 20 21 20h245q21 0 21 -20v-951q0 -20 -21 -20z" />
    <glyph glyph-name="napostrophe" unicode="&#x22;n" horiz-adv-x="1132" 
d="M991 0h-246q-20 0 -20 20v570q0 85 -40 132.5t-114 47.5q-73 0 -114 -48.5t-41 -131.5v-570q0 -20 -21 -20h-245q-21 0 -21 20v951q0 20 21 20h245q21 0 21 -20v-70h2q82 113 256 113q159 0 248.5 -100.5t89.5 -268.5v-625q0 -20 -21 -20zM-39 999q-22 0 -22 23v350
q0 21 20 21h197q20 0 20 -21v-172q0 -25 -16 -41l-168 -145q-15 -15 -31 -15z" />
    <glyph glyph-name="f_f" unicode="ff" horiz-adv-x="1388" 
d="M430 0h-244q-20 0 -20 20v748q0 12 -12 12h-62q-20 0 -20 21v170q0 20 20 20h62q12 0 12 13v47q0 179 84 260.5t264 81.5h113q20 0 20 -21v-192q0 -21 -20 -21h-64q-67 0 -89.5 -21.5t-22.5 -84.5v-49q0 -13 12 -13h162q20 0 20 -20v-170q0 -21 -20 -21h-162
q-12 0 -12 -12v-748q0 -20 -21 -20zM1124 0h-243q-21 0 -21 20v748q0 12 -12 12h-62q-20 0 -20 21v170q0 20 20 20h62q12 0 12 13v47q0 179 84 260.5t264 81.5h113q20 0 20 -21v-192q0 -21 -20 -21h-64q-67 0 -89.5 -21.5t-22.5 -84.5v-49q0 -13 12 -13h162q20 0 20 -20
v-170q0 -21 -20 -21h-162q-12 0 -12 -12v-748q0 -20 -21 -20z" />
    <glyph glyph-name="fi" unicode="fi" horiz-adv-x="1239" 
d="M430 0h-244q-20 0 -20 20v748q0 12 -12 12h-62q-20 0 -20 21v170q0 20 20 20h62q12 0 12 13v47q0 179 84 260.5t264 81.5h113q20 0 20 -21v-192q0 -21 -20 -21h-64q-67 0 -89.5 -21.5t-22.5 -84.5v-49q0 -13 12 -13h162q20 0 20 -20v-170q0 -21 -20 -21h-162
q-12 0 -12 -12v-748q0 -20 -21 -20zM1090 1149h-246q-21 0 -21 20v203q0 21 21 21h246q20 0 20 -21v-203q0 -20 -20 -20zM1090 0h-246q-21 0 -21 20v951q0 20 21 20h246q20 0 20 -20v-951q0 -20 -20 -20z" />
    <glyph glyph-name="fl" unicode="fl" horiz-adv-x="1316" 
d="M430 0h-244q-20 0 -20 20v748q0 12 -12 12h-62q-20 0 -20 21v170q0 20 20 20h62q12 0 12 13v47q0 179 84 260.5t264 81.5h113q20 0 20 -21v-192q0 -21 -20 -21h-64q-67 0 -89.5 -21.5t-22.5 -84.5v-49q0 -13 12 -13h162q20 0 20 -20v-170q0 -21 -20 -21h-162
q-12 0 -12 -12v-748q0 -20 -21 -20zM1235 -12h-109q-164 0 -235.5 74.5t-71.5 240.5v1069q0 21 21 21h245q21 0 21 -21v-1046q0 -95 86 -95h43q20 0 20 -20v-203q0 -20 -20 -20z" />
    <glyph glyph-name="f_f_i" unicode="ffi" horiz-adv-x="1933" 
d="M430 0h-244q-20 0 -20 20v748q0 12 -12 12h-62q-20 0 -20 21v170q0 20 20 20h62q12 0 12 13v47q0 179 84 260.5t264 81.5h113q20 0 20 -21v-192q0 -21 -20 -21h-64q-67 0 -89.5 -21.5t-22.5 -84.5v-49q0 -13 12 -13h162q20 0 20 -20v-170q0 -21 -20 -21h-162
q-12 0 -12 -12v-748q0 -20 -21 -20zM1124 0h-243q-21 0 -21 20v748q0 12 -12 12h-62q-20 0 -20 21v170q0 20 20 20h62q12 0 12 13v47q0 179 84 260.5t264 81.5h113q20 0 20 -21v-192q0 -21 -20 -21h-64q-67 0 -89.5 -21.5t-22.5 -84.5v-49q0 -13 12 -13h162q20 0 20 -20
v-170q0 -21 -20 -21h-162q-12 0 -12 -12v-748q0 -20 -21 -20zM1784 1149h-246q-20 0 -20 20v203q0 21 20 21h246q20 0 20 -21v-203q0 -20 -20 -20zM1784 0h-246q-20 0 -20 20v951q0 20 20 20h246q20 0 20 -20v-951q0 -20 -20 -20z" />
    <glyph glyph-name="f_f_l" unicode="ffl" horiz-adv-x="2011" 
d="M430 0h-244q-20 0 -20 20v748q0 12 -12 12h-62q-20 0 -20 21v170q0 20 20 20h62q12 0 12 13v47q0 179 84 260.5t264 81.5h113q20 0 20 -21v-192q0 -21 -20 -21h-64q-67 0 -89.5 -21.5t-22.5 -84.5v-49q0 -13 12 -13h162q20 0 20 -20v-170q0 -21 -20 -21h-162
q-12 0 -12 -12v-748q0 -20 -21 -20zM1124 0h-243q-21 0 -21 20v748q0 12 -12 12h-62q-20 0 -20 21v170q0 20 20 20h62q12 0 12 13v47q0 179 84 260.5t264 81.5h113q20 0 20 -21v-192q0 -21 -20 -21h-64q-67 0 -89.5 -21.5t-22.5 -84.5v-49q0 -13 12 -13h162q20 0 20 -20
v-170q0 -21 -20 -21h-162q-12 0 -12 -12v-748q0 -20 -21 -20zM1929 -12h-108q-164 0 -236 74.5t-72 240.5v1069q0 21 21 21h246q20 0 20 -21v-1046q0 -95 86 -95h43q21 0 21 -20v-203q0 -20 -21 -20z" />
    <glyph glyph-name=".notdef" horiz-adv-x="1036" 
d="M0 20v1352q0 21 20 21h996q20 0 20 -21v-1352q0 -20 -20 -20h-996q-20 0 -20 20zM141 1247v-1102q0 -12 13 -12h729q12 0 12 12v1102q0 13 -12 13h-729q-13 0 -13 -13zM567 498h-139q-20 0 -20 20v49q0 62 38 111l95 123q47 62 47 106q0 37 -23.5 61.5t-60.5 24.5
q-77 0 -98 -80q-3 -21 -23 -18l-133 20q-20 0 -17 23q19 101 92 158t187 57q115 0 187.5 -68t72.5 -172q0 -94 -65 -168l-93 -122q-26 -36 -26 -78v-27q0 -20 -21 -20zM406 254v137q0 21 20 21h145q21 0 21 -21v-137q0 -21 -21 -21h-145q-20 0 -20 21z" />
    <glyph glyph-name=".null" horiz-adv-x="0" 
 />
    <glyph glyph-name="nonmarkingreturn" horiz-adv-x="682" 
 />
    <glyph glyph-name="NULL" horiz-adv-x="1024" 
 />
    <glyph glyph-name="NULL" horiz-adv-x="1024" 
 />
    <glyph glyph-name="CR" unicode="&#xd;" horiz-adv-x="0" 
 />
    <glyph glyph-name="space" unicode=" " horiz-adv-x="483" 
 />
    <glyph glyph-name="exclam" unicode="!" horiz-adv-x="638" 
d="M403 408h-167q-21 0 -21 20l-49 944q0 21 20 21h267q20 0 20 -21l-49 -944q0 -20 -21 -20zM176 20v234q0 20 21 20h245q21 0 21 -20v-234q0 -20 -21 -20h-245q-21 0 -21 20z" />
    <glyph glyph-name="quotedbl" unicode="&#x22;" horiz-adv-x="765" 
d="M627 967h-162q-21 0 -21 20v385q0 21 21 21h162q20 0 20 -21v-385q0 -20 -20 -20zM301 967h-162q-20 0 -20 20v385q0 21 20 21h162q21 0 21 -21v-385q0 -20 -21 -20z" />
    <glyph glyph-name="numbersign" unicode="#" horiz-adv-x="1122" 
d="M135 20l51 379h-129q-20 0 -20 21v162q0 20 20 20h156l29 209h-131q-21 0 -21 20v162q0 21 21 21h159l49 358q3 21 23 21h182q22 0 19 -21l-49 -358h213l49 358q3 21 22 21h183q21 0 18 -21l-49 -358h135q20 0 20 -21v-162q0 -20 -20 -20h-164l-29 -209h140q20 0 20 -20
v-162q0 -21 -20 -21h-166l-51 -379q-3 -20 -23 -20h-182q-22 0 -19 20l52 379h-213l-52 -379q-3 -20 -22 -20h-182q-22 0 -19 20zM465 811l-29 -209h213l29 209h-213z" />
    <glyph glyph-name="dollar" unicode="$" 
d="M125 129q-19 16 -4 31l139 172q16 16 27 4q113 -94 245 -109v351q-181 29 -283 134.5t-102 268.5q0 173 107 289q108 120 278 141v121q0 20 21 20h94q21 0 21 -20v-121q178 -15 325 -111q16 -13 4 -30l-118 -172q-13 -16 -29 -6q-89 55 -182 71v-329q191 -31 289 -135.5
t98 -272.5q0 -178 -103.5 -296t-283.5 -144v-125q0 -21 -21 -21h-94q-21 0 -21 21v119q-233 12 -407 149zM532 860v293q-102 -41 -102 -149q0 -106 102 -144zM668 549v-307q104 40 104 170q0 97 -104 137z" />
    <glyph glyph-name="percent" unicode="%" horiz-adv-x="1667" 
d="M324 -2l809 1397q11 20 32 20h172q20 0 9 -20l-809 -1397q-12 -21 -33 -21h-170q-22 0 -10 21zM141 844q-18 52 -18 198t18 199q26 78 96.5 123t168.5 45t168 -45t96 -123q18 -53 18 -199t-18 -198q-26 -78 -96 -123t-168 -45t-168.5 45t-96.5 123zM477 885q8 19 8 157
q0 139 -8 158q-15 47 -71 47q-57 0 -72 -47q-8 -19 -8 -158q0 -138 8 -157q15 -47 72 -47q56 0 71 47zM997 152q-18 52 -18 196q0 146 18 199q26 78 96.5 123t168.5 45t168 -45t96 -123q18 -62 18 -199q0 -134 -18 -196q-26 -80 -96 -125t-168 -45t-168.5 45t-96.5 125z
M1190 193q15 -50 72 -50q56 0 71 50q8 16 8 155t-8 158q-15 47 -71 47q-57 0 -72 -47q-8 -19 -8 -158t8 -155z" />
    <glyph glyph-name="ampersand" unicode="&#x26;" horiz-adv-x="1327" 
d="M111 352q0 117 59 215t199 207q-84 110 -117 176t-33 135q0 145 107 236q107 94 262 94q161 0 262 -94q100 -93 100 -231q0 -94 -52 -172.5t-181 -178.5l182 -231l135 156q16 16 29 2l141 -119q15 -12 2 -29l-164 -194l37 -45q34 -43 80 -43h31q20 0 20 -21v-195
q0 -20 -20 -20h-86q-76 0 -122 23.5t-97 89.5l-17 18q-165 -154 -356 -154q-187 0 -294 102.5t-107 272.5zM571 924q73 56 100 92.5t27 75.5q0 47 -30.5 78.5t-77.5 31.5q-49 0 -79 -30t-30 -80q0 -52 90 -168zM373 375q0 -73 42.5 -115.5t116.5 -42.5q94 0 195 98l-213 275
q-141 -114 -141 -215z" />
    <glyph glyph-name="quotesingle" unicode="'" horiz-adv-x="440" 
d="M301 967h-162q-20 0 -20 20v385q0 21 20 21h162q21 0 21 -21v-385q0 -20 -21 -20z" />
    <glyph glyph-name="parenleft" unicode="(" horiz-adv-x="636" 
d="M369 -152q-265 364 -265 824q0 456 265 823q15 21 32 21h148q21 0 12 -21q-184 -380 -184 -823q0 -444 184 -824q9 -20 -12 -20h-148q-18 0 -32 20z" />
    <glyph glyph-name="parenright" unicode=")" horiz-adv-x="636" 
d="M86 -152q184 380 184 824q0 443 -184 823q-9 21 12 21h148q18 0 33 -21q264 -366 264 -823q0 -461 -264 -824q-14 -20 -33 -20h-148q-21 0 -12 20z" />
    <glyph glyph-name="asterisk" unicode="*" horiz-adv-x="751" 
d="M442 766h-112q-21 0 -21 20l2 164l-141 -84q-20 -10 -29 8l-55 99q-10 19 8 28l142 78l-142 80q-18 9 -8 29l55 98q9 16 29 6l141 -84l-2 164q0 21 21 21h112q21 0 21 -21l-4 -164l141 84q20 10 29 -6l55 -98q10 -20 -6 -29l-143 -80l143 -78q18 -9 8 -28l-57 -99
q-9 -18 -29 -8l-141 84l4 -164q0 -20 -21 -20z" />
    <glyph glyph-name="plus" unicode="+" 
d="M444 121v311q0 12 -12 12h-307q-21 0 -21 21v201q0 20 21 20h307q12 0 12 12v312q0 20 21 20h209q20 0 20 -20v-312q0 -12 13 -12h307q20 0 20 -20v-201q0 -21 -20 -21h-307q-13 0 -13 -12v-311q0 -21 -20 -21h-209q-21 0 -21 21z" />
    <glyph glyph-name="comma" unicode="," horiz-adv-x="518" 
d="M123 -199v465q0 21 20 21h232q20 0 20 -21v-248q0 -23 -18 -41l-203 -184q-14 -14 -31 -14q-20 0 -20 22z" />
    <glyph glyph-name="hyphen" unicode="-" horiz-adv-x="802" 
d="M696 418h-590q-20 0 -20 20v209q0 21 20 21h590q21 0 21 -21v-209q0 -20 -21 -20z" />
    <glyph glyph-name="period" unicode="." horiz-adv-x="530" 
d="M123 20v246q0 21 20 21h244q21 0 21 -21v-246q0 -20 -21 -20h-244q-20 0 -20 20z" />
    <glyph glyph-name="slash" unicode="/" horiz-adv-x="892" 
d="M98 -2l445 1397q6 20 26 20h224q20 0 14 -20l-447 -1397q-6 -21 -26 -21h-221q-21 0 -15 21z" />
    <glyph glyph-name="zero" unicode="0" 
d="M150 262q-31 95 -31 434t31 434q43 136 151 210.5t268 74.5t268.5 -74.5t151.5 -210.5q31 -95 31 -434t-31 -434q-43 -136 -151.5 -210.5t-268.5 -74.5t-268 74.5t-151 210.5zM428 313q30 -94 141 -94q112 0 142 94q16 53 16 383t-16 383q-30 95 -142 95q-111 0 -141 -95
q-16 -53 -16 -383t16 -383z" />
    <glyph glyph-name="one" unicode="1" 
d="M496 20v1049h-4l-222 -151q-22 -16 -22 12v254q0 17 14 28l234 168q16 13 36 13h230q20 0 20 -21v-1352q0 -20 -20 -20h-246q-20 0 -20 20z" />
    <glyph glyph-name="two" unicode="2" 
d="M135 20v191q0 16 10 29l490 581q82 94 82 193q0 72 -41.5 116t-110.5 44q-146 0 -164 -164q0 -20 -22 -17l-225 37q-20 3 -17 25q12 151 129 256q116 104 309 104q197 0 312 -112q117 -114 117 -285q0 -173 -142 -338l-366 -432v-4h487q21 0 21 -21v-203q0 -20 -21 -20
h-827q-21 0 -21 20z" />
    <glyph glyph-name="three" unicode="3" 
d="M119 297q-3 22 16 27l225 43q18 3 25 -17q43 -131 182 -131q78 0 125 50t47 130q0 92 -51.5 144.5t-142.5 52.5h-60q-20 0 -20 20v199q0 21 20 21h56q78 0 125 47.5t47 126.5q0 74 -42.5 119t-115.5 45q-123 0 -158 -130q-6 -17 -24 -14l-223 43q-20 3 -17 23
q25 145 141.5 232t294.5 87q199 0 314.5 -105.5t115.5 -279.5q0 -186 -155 -287v-4q78 -38 130 -127t52 -211q0 -187 -129 -307q-126 -117 -326 -117q-180 0 -301.5 85.5t-150.5 234.5z" />
    <glyph glyph-name="four" unicode="4" 
d="M647 203h-543q-20 0 -20 20v209q0 13 4 25l418 919q10 17 29 17h260q20 0 14 -21l-418 -915v-6h256q12 0 12 12v301q0 20 21 20h238q20 0 20 -20v-301q0 -12 12 -12h92q21 0 21 -21v-207q0 -20 -21 -20h-92q-12 0 -12 -13v-170q0 -20 -20 -20h-238q-21 0 -21 20v170
q0 13 -12 13z" />
    <glyph glyph-name="five" unicode="5" 
d="M150 285q-3 19 16 22l221 43q19 3 25 -16q44 -115 161 -115q116 0 146 98q16 46 16 136q0 91 -16 137q-30 96 -146 96q-100 0 -141 -80q-9 -20 -26 -20h-220q-20 0 -20 20v766q0 21 20 21h779q20 0 20 -21v-203q0 -20 -20 -20h-535q-12 0 -12 -12v-275h6q75 66 209 66
q282 0 358 -236q29 -95 29 -237q0 -119 -31 -217q-41 -124 -149.5 -192.5t-261.5 -68.5q-174 0 -293 84q-117 85 -135 224z" />
    <glyph glyph-name="six" unicode="6" 
d="M102 416q0 155 103 344l338 618q6 15 24 15h260q24 0 15 -21l-295 -538l4 -5q29 13 86 13q169 0 283 -117q116 -113 116 -303q0 -205 -133 -326q-131 -119 -334 -119q-205 0 -336 119t-131 320zM434 551q-49 -52 -49 -139q0 -88 49 -140q53 -53 135 -53q83 0 133 53
q52 52 52 140q0 87 -52 139q-49 55 -133 55q-83 0 -135 -55z" />
    <glyph glyph-name="seven" unicode="7" 
d="M272 23l443 1114v6h-293q-12 0 -12 -13v-145q0 -20 -21 -20h-227q-21 0 -21 20v387q0 21 21 21h833q21 0 21 -21v-213q0 -8 -4 -24l-443 -1117q-9 -18 -28 -18h-256q-23 0 -13 23z" />
    <glyph glyph-name="eight" unicode="8" 
d="M98 401q0 212 166 326v4q-58 40 -96.5 115t-38.5 164q0 170 119 286q119 119 321 119q203 0 322 -119q119 -116 119 -286q0 -88 -38.5 -163.5t-97.5 -115.5v-4q166 -114 166 -326q0 -189 -133 -307q-132 -117 -338 -117t-338 117q-133 118 -133 307zM729 1010
q0 70 -44.5 117t-115.5 47t-115 -47t-44 -117q0 -68 45.5 -115t113.5 -47t114 47t46 115zM381 414q0 -87 52 -141t136 -54t136.5 54t52.5 141q0 85 -52.5 138.5t-136.5 53.5t-136 -53.5t-52 -138.5z" />
    <glyph glyph-name="nine" unicode="9" 
d="M297 20l295 539l-4 4q-27 -12 -86 -12q-167 0 -285 115q-115 118 -115 305q0 204 131 323q133 121 336 121q205 0 336 -119t131 -319q0 -157 -102 -344l-338 -619q-6 -14 -25 -14h-260q-23 0 -14 20zM434 840q54 -54 135 -54q82 0 133 54q52 55 52 141q0 87 -52 139
q-51 54 -133 54q-81 0 -135 -54q-49 -52 -49 -139q0 -86 49 -141z" />
    <glyph glyph-name="colon" unicode=":" horiz-adv-x="552" 
d="M399 707h-245q-21 0 -21 20v244q0 20 21 20h245q21 0 21 -20v-244q0 -20 -21 -20zM133 20v246q0 21 21 21h245q21 0 21 -21v-246q0 -20 -21 -20h-245q-21 0 -21 20z" />
    <glyph glyph-name="semicolon" unicode=";" horiz-adv-x="552" 
d="M399 707h-245q-21 0 -21 20v244q0 20 21 20h245q21 0 21 -20v-244q0 -20 -21 -20zM141 -199v465q0 21 21 21h231q21 0 21 -21v-248q0 -24 -17 -41l-204 -184q-14 -14 -31 -14q-21 0 -21 22z" />
    <glyph glyph-name="less" unicode="&#x3c;" 
d="M1014 102l-889 349q-21 6 -21 28v172q0 23 21 29l889 348q20 6 20 -12v-223q0 -18 -20 -27l-543 -199v-4l543 -198q20 -9 20 -27v-223q0 -19 -20 -13z" />
    <glyph glyph-name="equal" unicode="=" 
d="M1014 659h-889q-21 0 -21 21v201q0 20 21 20h889q20 0 20 -20v-201q0 -21 -20 -21zM1014 229h-889q-21 0 -21 21v201q0 20 21 20h889q20 0 20 -20v-201q0 -21 -20 -21z" />
    <glyph glyph-name="greater" unicode="&#x3e;" 
d="M104 115v223q0 18 21 27l543 198v4l-543 199q-21 9 -21 27v223q0 18 21 12l889 -348q20 -6 20 -29v-172q0 -22 -20 -28l-889 -349q-21 -6 -21 13z" />
    <glyph glyph-name="question" unicode="?" horiz-adv-x="968" 
d="M590 408h-238q-20 0 -20 20v86q0 98 59 172l144 186q77 92 77 164q0 60 -37 97.5t-98 37.5q-126 0 -153 -143q-6 -21 -27 -18l-221 32q-20 3 -17 25q23 161 136 254.5t290 93.5q183 0 295 -106q117 -105 117 -262q0 -140 -109 -267l-137 -180q-41 -50 -41 -123v-49
q0 -20 -20 -20zM328 20v234q0 20 20 20h246q20 0 20 -20v-234q0 -20 -20 -20h-246q-20 0 -20 20z" />
    <glyph glyph-name="at" unicode="@" horiz-adv-x="1863" 
d="M88 543q0 367 231 598q232 229 607 229t604 -229q233 -227 233 -592q0 -215 -104 -328q-103 -112 -260 -112q-187 0 -264 133h-2q-70 -131 -275 -131q-231 0 -293 194q-28 86 -28 238q0 153 28 235q62 197 277 197q156 0 221 -105h2v64q0 18 16 18h197q16 0 16 -18v-498
q0 -61 30 -95t79 -34q133 0 133 240q0 283 -166 452q-163 172 -444 172t-447 -172q-164 -170 -164 -456q0 -281 164 -451q167 -170 447 -170q227 0 424 96q20 8 28 -8l74 -133q11 -18 -8 -27q-218 -129 -518 -129q-371 0 -604 230q-234 228 -234 592zM782 406
q35 -95 136 -95q105 0 135 95q12 34 12 137q0 101 -12 135q-30 96 -135 96q-101 0 -136 -96q-12 -40 -12 -135q0 -93 12 -137z" />
    <glyph glyph-name="A" unicode="A" horiz-adv-x="1318" 
d="M35 20l479 1352q6 21 27 21h258q20 0 26 -21l471 -1352q6 -20 -14 -20h-266q-21 0 -27 20l-80 244h-487l-78 -244q-6 -20 -27 -20h-268q-20 0 -14 20zM664 1008l-158 -488h321l-157 488h-6z" />
    <glyph glyph-name="B" unicode="B" horiz-adv-x="1249" 
d="M133 20v1352q0 21 21 21h542q218 0 331.5 -98t113.5 -273q0 -209 -162 -297v-4q79 -31 132.5 -116.5t53.5 -198.5q0 -201 -124.5 -303.5t-358.5 -102.5h-528q-21 0 -21 20zM446 823h213q86 0 134.5 43t48.5 121q0 75 -48.5 118.5t-134.5 43.5h-213q-12 0 -12 -12v-301
q0 -13 12 -13zM434 580v-324q0 -12 12 -12h230q91 0 139.5 45.5t48.5 128.5q0 82 -49 128t-139 46h-230q-12 0 -12 -12z" />
    <glyph glyph-name="C" unicode="C" horiz-adv-x="1177" 
d="M135 319q-39 110 -39 377t39 377q55 167 183 254.5t313 87.5q176 0 300.5 -80t184.5 -229q10 -19 -10 -25l-223 -100q-20 -10 -29 10q-68 158 -221 158q-159 0 -209 -154q-23 -77 -23 -299t23 -299q50 -153 209 -153q153 0 221 157q9 21 29 11l223 -101q19 -5 10 -24
q-61 -149 -185 -229.5t-300 -80.5q-185 0 -313 87.5t-183 254.5z" />
    <glyph glyph-name="D" unicode="D" horiz-adv-x="1290" 
d="M133 20v1352q0 21 21 21h518q379 0 481 -314q37 -115 37 -383t-37 -383q-102 -313 -481 -313h-518q-21 0 -21 20zM434 1112v-831q0 -13 12 -13h158q211 0 258 154q23 71 23 274q0 204 -23 275q-46 153 -258 153h-158q-12 0 -12 -12z" />
    <glyph glyph-name="E" unicode="E" horiz-adv-x="1157" 
d="M133 20v1352q0 21 21 21h893q20 0 20 -21v-219q0 -20 -20 -20h-601q-12 0 -12 -13v-276q0 -13 12 -13h500q21 0 21 -20v-217q0 -21 -21 -21h-500q-12 0 -12 -12v-289q0 -12 12 -12h601q20 0 20 -20v-220q0 -20 -20 -20h-893q-21 0 -21 20z" />
    <glyph glyph-name="F" unicode="F" horiz-adv-x="1140" 
d="M133 20v1352q0 21 21 21h893q20 0 20 -21v-219q0 -20 -20 -20h-601q-12 0 -12 -13v-293q0 -12 12 -12h500q21 0 21 -20v-217q0 -21 -21 -21h-500q-12 0 -12 -12v-525q0 -20 -20 -20h-260q-21 0 -21 20z" />
    <glyph glyph-name="G" unicode="G" horiz-adv-x="1286" 
d="M135 315q-39 118 -39 381t39 381q54 164 187 251t325 87q183 0 313.5 -80.5t182.5 -216.5q10 -22 -8 -31l-220 -92q-21 -6 -28 11q-82 143 -240 143q-173 0 -223 -156q-23 -74 -23 -297q0 -225 23 -299q50 -153 227 -153q81 0 142 38.5t81 104.5q17 63 17 137
q0 13 -12 13h-189q-20 0 -20 20v197q0 20 20 20h479q21 0 21 -20v-115q0 -203 -35 -313q-51 -165 -186 -257t-322 -92q-192 0 -325 87t-187 251z" />
    <glyph glyph-name="H" unicode="H" horiz-adv-x="1347" 
d="M133 20v1352q0 21 21 21h260q20 0 20 -21v-522q0 -12 12 -12h455q12 0 12 12v522q0 21 21 21h260q20 0 20 -21v-1352q0 -20 -20 -20h-260q-21 0 -21 20v537q0 12 -12 12h-455q-12 0 -12 -12v-537q0 -20 -20 -20h-260q-21 0 -21 20z" />
    <glyph glyph-name="I" unicode="I" horiz-adv-x="567" 
d="M133 20v1352q0 21 21 21h260q20 0 20 -21v-1352q0 -20 -20 -20h-260q-21 0 -21 20z" />
    <glyph glyph-name="J" unicode="J" horiz-adv-x="1067" 
d="M53 156q-10 16 2 28l191 146q15 9 28 -4q70 -82 170 -82q99 0 152 62t53 179v887q0 21 21 21h260q20 0 20 -21v-872q0 -252 -132.5 -387.5t-375.5 -135.5q-123 0 -231 50t-158 129z" />
    <glyph glyph-name="K" unicode="K" horiz-adv-x="1320" 
d="M133 20v1352q0 21 21 21h260q20 0 20 -21v-602l463 604q13 19 35 19h297q11 0 13 -8.5t-5 -18.5l-422 -528l461 -813q16 -25 -12 -25h-301q-22 0 -31 18l-316 586l-182 -229v-355q0 -20 -20 -20h-260q-21 0 -21 20z" />
    <glyph glyph-name="L" unicode="L" horiz-adv-x="1126" 
d="M133 20v1352q0 21 21 21h260q20 0 20 -21v-1091q0 -13 12 -13h615q20 0 20 -20v-228q0 -20 -20 -20h-907q-21 0 -21 20z" />
    <glyph glyph-name="M" unicode="M" horiz-adv-x="1562" 
d="M133 20v1352q0 21 21 21h243q24 0 33 -21l352 -794h9l346 794q9 21 32 21h240q21 0 21 -21v-1352q0 -20 -21 -20h-231q-21 0 -21 20v785h-8l-258 -588q-12 -27 -39 -27h-141q-27 0 -39 27l-258 588h-8v-785q0 -20 -21 -20h-231q-21 0 -21 20z" />
    <glyph glyph-name="N" unicode="N" horiz-adv-x="1341" 
d="M133 20v1352q0 21 21 21h245q23 0 35 -21l492 -876h10v876q0 21 20 21h232q20 0 20 -21v-1352q0 -20 -20 -20h-244q-24 0 -35 20l-493 875h-10v-875q0 -20 -21 -20h-231q-21 0 -21 20z" />
    <glyph glyph-name="O" unicode="O" horiz-adv-x="1286" 
d="M135 315q-39 118 -39 381t39 381q53 164 186.5 251t321.5 87t321.5 -87t186.5 -251q39 -118 39 -381t-39 -381q-53 -164 -186.5 -251t-321.5 -87t-321.5 87t-186.5 251zM862 397q23 74 23 299t-23 299q-50 154 -219 154t-219 -154q-23 -74 -23 -299t23 -299
q50 -153 219 -153t219 153z" />
    <glyph glyph-name="P" unicode="P" horiz-adv-x="1239" 
d="M414 0h-260q-21 0 -21 20v1352q0 21 21 21h540q226 0 355 -123q131 -122 131 -326q0 -198 -131 -323q-132 -123 -355 -123h-248q-12 0 -12 -13v-465q0 -20 -20 -20zM446 758h230q94 0 148.5 50t54.5 136t-55 137.5t-148 51.5h-230q-12 0 -12 -13v-350q0 -12 12 -12z" />
    <glyph glyph-name="Q" unicode="Q" horiz-adv-x="1286" 
d="M1262 59l-164 -159q-16 -16 -31 0l-141 141q-125 -64 -283 -64q-188 0 -321.5 87t-186.5 251q-39 118 -39 381t39 381q53 164 186.5 251t321.5 87t321.5 -87t186.5 -251q39 -118 39 -381t-39 -381q-6 -22 -35 -84l146 -143q14 -14 0 -29zM643 242q47 0 74 8l-88 88
q-15 14 0 29l164 155q15 15 30 0l56 -55q8 57 8 229q0 227 -23 301q-50 154 -221 154t-221 -154q-23 -74 -23 -301t23 -301q50 -153 221 -153z" />
    <glyph glyph-name="R" unicode="R" horiz-adv-x="1277" 
d="M1194 0h-291q-22 0 -31 20l-239 510h-187q-12 0 -12 -12v-498q0 -20 -20 -20h-260q-21 0 -21 20v1352q0 21 21 21h555q212 0 342 -121q131 -119 131 -311q0 -133 -65.5 -235t-182.5 -153l274 -548q5 -7 0.5 -16t-14.5 -9zM446 786h246q86 0 137.5 47.5t51.5 127.5
q0 78 -51.5 125t-137.5 47h-246q-12 0 -12 -13v-321q0 -13 12 -13z" />
    <glyph glyph-name="S" unicode="S" horiz-adv-x="1218" 
d="M616 -23q-154 0 -305 54q-151 57 -231 137q-17 17 -2 35l155 178q13 17 31 2q180 -143 365 -143q105 0 166 45t61 121q0 67 -48.5 102.5t-166.5 52.5l-74 10q-440 62 -440 418q0 191 133 309q135 117 361 117q284 0 473 -145q19 -13 4 -31l-125 -186q-13 -16 -29 -6
q-160 106 -323 106q-89 0 -138 -41.5t-49 -110.5q0 -62 51 -99t166 -54l74 -10q438 -58 438 -422q0 -200 -144.5 -319.5t-402.5 -119.5z" />
    <glyph glyph-name="T" unicode="T" horiz-adv-x="1140" 
d="M700 0h-260q-20 0 -20 20v1092q0 12 -12 12h-353q-20 0 -20 21v227q0 21 20 21h1030q21 0 21 -21v-227q0 -21 -21 -21h-352q-12 0 -12 -12v-1092q0 -20 -21 -20z" />
    <glyph glyph-name="U" unicode="U" horiz-adv-x="1320" 
d="M662 -23q-241 0 -390 140q-145 142 -145 395v860q0 21 20 21h261q20 0 20 -21v-868q0 -122 63.5 -191t170.5 -69t169 69t62 191v868q0 21 20 21h261q20 0 20 -21v-860q0 -254 -147 -395q-146 -140 -385 -140z" />
    <glyph glyph-name="V" unicode="V" horiz-adv-x="1218" 
d="M735 0h-237q-21 0 -27 20l-442 1350q-7 23 18 23h266q21 0 27 -21l278 -913h7l270 913q6 21 27 21h264q23 0 16 -23l-442 -1350q-6 -20 -25 -20z" />
    <glyph glyph-name="W" unicode="W" horiz-adv-x="1771" 
d="M1366 0h-205q-20 0 -26 20l-242 867h-4l-244 -867q-6 -20 -27 -20h-204q-19 0 -25 20l-360 1352q-3 21 16 21h264q22 0 25 -21l201 -874h4l237 874q6 21 27 21h178q19 0 25 -21l245 -874h4l193 874q3 21 25 21h262q19 0 16 -21l-358 -1352q-3 -20 -27 -20z" />
    <glyph glyph-name="X" unicode="X" horiz-adv-x="1218" 
d="M1184 0h-285q-24 0 -35 20l-248 424h-6l-250 -424q-11 -20 -34 -20h-283q-10 0 -14 9t2 16l415 694l-387 649q-13 25 13 25h284q21 0 33 -21l221 -377h6l222 377q12 21 32 21h285q25 0 12 -25l-389 -649l418 -694q12 -25 -12 -25z" />
    <glyph glyph-name="Y" unicode="Y" horiz-adv-x="1163" 
d="M719 0h-260q-21 0 -21 20v535l-411 817q-9 21 14 21h266q22 0 31 -21l252 -508h6l252 508q9 21 31 21h258q10 0 14.5 -6.5t-0.5 -14.5l-412 -817v-535q0 -20 -20 -20z" />
    <glyph glyph-name="Z" unicode="Z" horiz-adv-x="1118" 
d="M1016 0h-914q-20 0 -20 20v226q0 11 6 20l600 854v4h-563q-21 0 -21 21v227q0 21 21 21h891q20 0 20 -21v-225q0 -12 -6 -21l-602 -854v-4h588q20 0 20 -20v-228q0 -20 -20 -20z" />
    <glyph glyph-name="bracketleft" unicode="[" horiz-adv-x="618" 
d="M541 -172h-389q-21 0 -21 20v1647q0 21 21 21h389q20 0 20 -21v-172q0 -20 -20 -20h-144q-12 0 -12 -13v-1237q0 -12 12 -12h144q20 0 20 -21v-172q0 -20 -20 -20z" />
    <glyph glyph-name="backslash" unicode="\" horiz-adv-x="892" 
d="M793 -23h-224q-20 0 -26 21l-445 1397q-6 20 15 20h221q20 0 26 -20l447 -1397q6 -21 -14 -21z" />
    <glyph glyph-name="bracketright" unicode="]" horiz-adv-x="618" 
d="M467 -172h-389q-21 0 -21 20v172q0 21 21 21h143q12 0 12 12v1237q0 13 -12 13h-143q-21 0 -21 20v172q0 21 21 21h389q20 0 20 -21v-1647q0 -20 -20 -20z" />
    <glyph glyph-name="asciicircum" unicode="^" 
d="M1028 518h-223q-20 0 -29 21l-198 508h-5l-200 -508q-6 -21 -27 -21h-223q-20 0 -14 21l350 833q9 21 28 21h177q19 0 28 -21l350 -833q6 -21 -14 -21z" />
    <glyph glyph-name="underscore" unicode="_" horiz-adv-x="1064" 
d="M1065 -131v-180h-1065v180h1065z" />
    <glyph glyph-name="grave" unicode="`" horiz-adv-x="929" 
d="M674 1128h-189q-24 0 -39 21l-202 266q-6 7 -3 14t13 7h238q24 0 36 -21l156 -266q9 -21 -10 -21z" />
    <glyph glyph-name="a" unicode="a" horiz-adv-x="1081" 
d="M938 0h-227q-21 0 -21 20v66h-2q-83 -109 -272 -109q-146 0 -238 79.5t-92 224.5q0 157 109 238t303 81h176q12 0 12 12v37q0 73 -44.5 104t-158.5 31q-137 0 -221 -63q-16 -13 -26 4l-93 162q-9 18 7 28q138 99 368 99q237 0 338.5 -84t101.5 -275v-635q0 -20 -20 -20z
M502 193q184 0 184 137v67q0 13 -12 13h-139q-177 0 -177 -113q0 -104 144 -104z" />
    <glyph glyph-name="b" unicode="b" horiz-adv-x="1128" 
d="M678 -23q-183 0 -260 115h-2v-72q0 -20 -21 -20h-245q-21 0 -21 20v1352q0 21 21 21h245q21 0 21 -21v-473h2q77 115 260 115q259 0 336 -238q35 -113 35 -280q0 -168 -35 -281q-77 -238 -336 -238zM586 219q119 0 153 107q19 62 19 170t-19 170q-34 106 -153 106
q-118 0 -152 -106q-18 -58 -18 -170t18 -170q34 -107 152 -107z" />
    <glyph glyph-name="c" unicode="c" horiz-adv-x="985" 
d="M539 -23q-161 0 -273.5 73t-154.5 208q-31 91 -31 238q0 146 31 237q42 135 154.5 208t273.5 73q121 0 219 -50.5t155 -136.5q10 -17 -4 -28l-178 -117q-18 -12 -31 4q-62 86 -157 86q-120 0 -154 -106q-18 -52 -18 -170t18 -170q34 -107 154 -107q95 0 157 86
q13 16 31 4l178 -116q14 -12 4 -29q-57 -86 -155 -136.5t-219 -50.5z" />
    <glyph glyph-name="d" unicode="d" horiz-adv-x="1128" 
d="M979 0h-246q-20 0 -20 20v72h-2q-80 -115 -260 -115q-259 0 -336 238q-35 113 -35 281q0 167 35 280q77 238 336 238q180 0 260 -115h2v473q0 21 20 21h246q20 0 20 -21v-1352q0 -20 -20 -20zM543 219q117 0 151 107q19 62 19 170t-19 170q-34 106 -151 106
q-120 0 -154 -106q-18 -58 -18 -170t18 -170q34 -107 154 -107z" />
    <glyph glyph-name="e" unicode="e" horiz-adv-x="1079" 
d="M553 -23q-167 0 -281 74t-157 209q-35 107 -35 236q0 142 33 237q43 133 155 207t271 74q160 0 272.5 -74t155.5 -205q32 -97 32 -305q0 -20 -22 -20h-600q-12 0 -12 -13q3 -31 12 -55q40 -131 205 -131q133 0 227 88q19 16 29 0l135 -127q15 -16 2 -29
q-156 -166 -422 -166zM377 600h328q12 0 12 12q0 36 -10 74q-38 109 -166 109t-166 -109q-10 -38 -10 -74q0 -12 12 -12z" />
    <glyph glyph-name="f" unicode="f" horiz-adv-x="694" 
d="M430 0h-244q-20 0 -20 20v748q0 12 -12 12h-62q-20 0 -20 21v170q0 20 20 20h62q12 0 12 13v47q0 179 84 260.5t264 81.5h113q20 0 20 -21v-192q0 -21 -20 -21h-64q-67 0 -89.5 -21.5t-22.5 -84.5v-49q0 -13 12 -13h162q20 0 20 -20v-170q0 -21 -20 -21h-162
q-12 0 -12 -12v-748q0 -20 -21 -20z" />
    <glyph glyph-name="g" unicode="g" horiz-adv-x="1112" 
d="M489 -391q-110 0 -217 43q-103 40 -157 106q-13 16 2 31l145 148q16 15 31 0q96 -87 205 -87q198 0 198 220v84h-2q-71 -115 -254 -115q-254 0 -331 240q-33 103 -33 247q0 148 33 248q77 240 331 240q183 0 254 -115h2v72q0 20 21 20h246q20 0 20 -20v-865
q0 -497 -494 -497zM530 281q114 0 148 106q18 56 18 139q0 84 -18 140q-34 106 -148 106q-110 0 -147 -106q-17 -60 -17 -139.5t17 -139.5q37 -106 147 -106z" />
    <glyph glyph-name="h" unicode="h" horiz-adv-x="1132" 
d="M991 0h-246q-20 0 -20 20v570q0 85 -40 132.5t-114 47.5q-73 0 -114 -48.5t-41 -131.5v-570q0 -20 -21 -20h-245q-21 0 -21 20v1352q0 21 21 21h245q21 0 21 -21v-471h2q82 113 256 113q159 0 248.5 -100.5t89.5 -268.5v-625q0 -20 -21 -20z" />
    <glyph glyph-name="i" unicode="i" horiz-adv-x="544" 
d="M395 1149h-245q-21 0 -21 20v203q0 21 21 21h245q21 0 21 -21v-203q0 -20 -21 -20zM395 0h-245q-21 0 -21 20v951q0 20 21 20h245q21 0 21 -20v-951q0 -20 -21 -20z" />
    <glyph glyph-name="j" unicode="j" horiz-adv-x="544" 
d="M395 1149h-245q-21 0 -21 20v203q0 21 21 21h245q21 0 21 -21v-203q0 -20 -21 -20zM45 -369h-68q-20 0 -20 21v201q0 20 20 20h41q62 0 86.5 25t24.5 90v983q0 20 21 20h245q21 0 21 -20v-981q0 -359 -371 -359z" />
    <glyph glyph-name="k" unicode="k" horiz-adv-x="1087" 
d="M1042 0h-272q-20 0 -31 20l-221 400l-102 -127v-273q0 -20 -21 -20h-245q-21 0 -21 20v1352q0 21 21 21h245q21 0 21 -21v-751l284 350q17 20 39 20h262q8 0 11.5 -7t-2.5 -13l-303 -350l346 -601q4 -6 0.5 -13t-11.5 -7z" />
    <glyph glyph-name="l" unicode="l" horiz-adv-x="622" 
d="M541 -12h-109q-164 0 -235.5 74.5t-71.5 240.5v1069q0 21 20 21h246q21 0 21 -21v-1046q0 -95 86 -95h43q20 0 20 -20v-203q0 -20 -20 -20z" />
    <glyph glyph-name="m" unicode="m" horiz-adv-x="1728" 
d="M1587 0h-246q-20 0 -20 20v570q0 85 -40.5 132.5t-115.5 47.5q-71 0 -112 -49t-41 -131v-570q0 -20 -21 -20h-246q-20 0 -20 20v570q0 85 -40 132.5t-114 47.5q-73 0 -114 -48.5t-41 -131.5v-570q0 -20 -21 -20h-245q-21 0 -21 20v951q0 20 21 20h245q21 0 21 -20v-70h2
q82 113 256 113q178 0 266 -125h2q119 125 311 125q169 0 262 -99.5t93 -269.5v-625q0 -20 -21 -20z" />
    <glyph glyph-name="n" unicode="n" horiz-adv-x="1132" 
d="M991 0h-246q-20 0 -20 20v570q0 85 -40 132.5t-114 47.5q-73 0 -114 -48.5t-41 -131.5v-570q0 -20 -21 -20h-245q-21 0 -21 20v951q0 20 21 20h245q21 0 21 -20v-70h2q82 113 256 113q159 0 248.5 -100.5t89.5 -268.5v-625q0 -20 -21 -20z" />
    <glyph glyph-name="o" unicode="o" horiz-adv-x="1085" 
d="M113 256q-33 100 -33 240q0 139 33 239q43 133 156 206t274 73t274 -73t156 -206q33 -100 33 -239q0 -140 -33 -240q-43 -133 -156 -206t-274 -73t-274 73t-156 206zM696 326q19 62 19 170t-19 170q-34 106 -153 106q-120 0 -154 -106q-18 -58 -18 -170t18 -170
q34 -107 154 -107q119 0 153 107z" />
    <glyph glyph-name="p" unicode="p" horiz-adv-x="1128" 
d="M395 -369h-245q-21 0 -21 21v1319q0 20 21 20h245q21 0 21 -20v-72h2q77 115 260 115q259 0 336 -238q35 -113 35 -280q0 -168 -35 -281q-77 -238 -336 -238q-183 0 -260 115h-2v-440q0 -21 -21 -21zM586 219q119 0 153 107q19 62 19 170t-19 170q-34 106 -153 106
q-118 0 -152 -106q-18 -58 -18 -170t18 -170q34 -107 152 -107z" />
    <glyph glyph-name="q" unicode="q" horiz-adv-x="1128" 
d="M979 -369h-246q-20 0 -20 21v440h-2q-80 -115 -260 -115q-259 0 -336 238q-35 113 -35 281q0 167 35 280q77 238 336 238q180 0 260 -115h2v72q0 20 20 20h246q20 0 20 -20v-1319q0 -21 -20 -21zM543 219q117 0 151 107q19 62 19 170t-19 170q-34 106 -151 106
q-120 0 -154 -106q-18 -58 -18 -170t18 -170q34 -107 154 -107z" />
    <glyph glyph-name="r" unicode="r" horiz-adv-x="872" 
d="M395 0h-245q-21 0 -21 20v951q0 20 21 20h245q21 0 21 -20v-84h2q77 127 258 127q102 0 174 -60q15 -12 6 -28l-115 -209q-10 -13 -28 -4q-76 48 -144 45q-153 -6 -153 -215v-523q0 -20 -21 -20z" />
    <glyph glyph-name="s" unicode="s" horiz-adv-x="1034" 
d="M532 -23q-273 0 -450 154q-14 15 0 29l133 149q13 13 29 0q141 -108 303 -108q153 0 153 94q0 39 -30.5 59t-110.5 27l-110 12q-159 17 -241.5 93.5t-82.5 209.5q0 148 108 233t299 85q239 0 402 -123q15 -15 2 -31l-115 -141q-11 -14 -28 -4q-127 80 -269 80
q-125 0 -125 -82q0 -38 30 -56.5t108 -25.5l108 -13q330 -35 330 -301q-2 -157 -119 -248.5t-324 -91.5z" />
    <glyph glyph-name="t" unicode="t" horiz-adv-x="677" 
d="M573 -12h-108q-169 0 -242 78t-73 251v451q0 12 -13 12h-61q-21 0 -21 21v170q0 20 21 20h61q13 0 13 13v266q0 20 20 20h244q20 0 20 -20v-266q0 -13 12 -13h127q21 0 21 -20v-170q0 -21 -21 -21h-127q-12 0 -12 -12v-438q0 -55 20 -77t70 -22h49q21 0 21 -20v-203
q0 -20 -21 -20z" />
    <glyph glyph-name="u" unicode="u" horiz-adv-x="1124" 
d="M975 0h-246q-20 0 -20 20v72h-2q-86 -115 -254 -115q-157 0 -245.5 100.5t-88.5 268.5v625q0 20 20 20h246q21 0 21 -20v-570q0 -83 39.5 -131.5t111.5 -48.5t112 47.5t40 132.5v570q0 20 20 20h246q20 0 20 -20v-951q0 -20 -20 -20z" />
    <glyph glyph-name="v" unicode="v" horiz-adv-x="1040" 
d="M639 0h-225q-19 0 -25 20l-352 951q-6 20 16 20h258q21 0 27 -20l192 -588h5l184 588q6 20 26 20h254q23 0 17 -20l-352 -951q-6 -20 -25 -20z" />
    <glyph glyph-name="w" unicode="w" horiz-adv-x="1562" 
d="M1190 0h-205q-18 0 -24 20l-170 576h-5l-174 -576q-6 -20 -24 -20h-203q-19 0 -25 20l-317 951q-6 20 14 20h252q23 0 29 -20l164 -590h4l170 590q6 20 29 20h172q20 0 26 -20l174 -590h4l156 590q6 20 27 20h252q22 0 16 -20l-318 -951q-6 -20 -24 -20z" />
    <glyph glyph-name="x" unicode="x" horiz-adv-x="1054" 
d="M1014 0h-266q-19 0 -31 18l-178 271h-2l-177 -271q-15 -18 -32 -18h-265q-25 0 -14 20l334 494l-309 457q-11 20 14 20h266q23 0 35 -18l150 -234h2l151 234q15 18 33 18h264q28 0 17 -20l-310 -457l334 -494q11 -20 -16 -20z" />
    <glyph glyph-name="y" unicode="y" horiz-adv-x="1038" 
d="M266 -369h-69q-21 0 -21 21v201q0 20 21 20h43q54 0 85 23.5t50 78.5l26 74l-368 922q-6 20 16 20h262q19 0 25 -20l199 -574h4l184 574q6 20 25 20h253q23 0 17 -20l-402 -1055q-60 -159 -139 -223q-77 -62 -211 -62z" />
    <glyph glyph-name="z" unicode="z" horiz-adv-x="1003" 
d="M889 0h-774q-21 0 -21 20v185q0 11 6 20l471 527v4h-430q-20 0 -20 20v195q0 20 20 20h748q20 0 20 -20v-195q0 -11 -6 -20l-467 -516v-4h453q20 0 20 -21v-195q0 -20 -20 -20z" />
    <glyph glyph-name="braceleft" unicode="{" horiz-adv-x="731" 
d="M653 -172h-137q-125 0 -191.5 64.5t-66.5 187.5v313q0 166 -141 166q-21 0 -21 21v192q0 21 21 21q141 0 141 165v306q0 123 66.5 187.5t191.5 64.5h137q21 0 21 -21v-172q0 -20 -21 -20h-57q-86 0 -86 -89v-280q0 -114 -33.5 -170t-114.5 -86v-4q81 -30 114.5 -87
t33.5 -171v-287q0 -88 86 -88h57q21 0 21 -21v-172q0 -20 -21 -20z" />
    <glyph glyph-name="bar" unicode="|" horiz-adv-x="686" 
d="M444 -172h-202q-21 0 -21 20v1647q0 21 21 21h202q21 0 21 -21v-1647q0 -20 -21 -20z" />
    <glyph glyph-name="braceright" unicode="}" horiz-adv-x="731" 
d="M215 -172h-137q-21 0 -21 20v172q0 21 21 21h57q86 0 86 88v287q0 114 33.5 171t114.5 87v4q-81 30 -114.5 86t-33.5 170v280q0 89 -86 89h-57q-21 0 -21 20v172q0 21 21 21h137q125 0 191.5 -64.5t66.5 -187.5v-306q0 -165 141 -165q21 0 21 -21v-192q0 -21 -21 -21
q-141 0 -141 -166v-313q0 -123 -66.5 -187.5t-191.5 -64.5z" />
    <glyph glyph-name="asciitilde" unicode="~" 
d="M1053 606q-45 -99 -123.5 -157t-171.5 -58q-102 0 -215 72q-77 51 -133 51q-80 0 -134 -100q-9 -19 -30 -4l-137 84q-16 10 -7 28q45 99 123.5 157t171.5 58q103 0 215 -71q79 -52 133 -52q79 0 134 101q9 19 30 4l138 -84q15 -9 6 -29z" />
    <glyph glyph-name="uni00A0" unicode="&#xa0;" horiz-adv-x="483" 
 />
    <glyph glyph-name="exclamdown" unicode="&#xa1;" horiz-adv-x="638" 
d="M236 584h167q21 0 21 -21l49 -944q0 -20 -20 -20h-267q-20 0 -20 20l49 944q0 21 21 21zM463 971v-234q0 -20 -21 -20h-245q-21 0 -21 20v234q0 20 21 20h245q21 0 21 -20z" />
    <glyph glyph-name="cent" unicode="&#xa2;" 
d="M674 1171v-159q214 -24 321 -185q10 -20 -4 -28l-178 -117q-18 -15 -31 4q-47 68 -108 80v-541q62 15 108 82q13 17 31 2l178 -116q19 -9 4 -27q-102 -163 -321 -184v-162q0 -21 -21 -21h-92q-20 0 -20 21v162q-289 27 -365 276q-31 91 -31 238q0 146 31 237
q79 244 365 279v159q0 21 20 21h92q21 0 21 -21zM436 496q0 -116 19 -168q21 -76 86 -97v529q-65 -24 -86 -94q-19 -55 -19 -170z" />
    <glyph glyph-name="sterling" unicode="&#xa3;" 
d="M985 0h-797q-20 0 -20 20v199q0 15 10 25q39 37 54.5 73.5t15.5 102.5v119q0 12 -12 12h-84q-21 0 -21 20v162q0 21 21 21h84q12 0 12 12v250q0 190 102.5 294.5t286.5 104.5q149 0 246.5 -76.5t122.5 -203.5q3 -20 -19 -23l-223 -49q-20 0 -23 18q-18 93 -102 93
q-102 0 -102 -125v-283q0 -12 12 -12h248q20 0 20 -21v-162q0 -20 -20 -20h-248q-12 0 -12 -12v-88q0 -137 -54 -203v-4h502q21 0 21 -21v-203q0 -20 -21 -20z" />
    <glyph glyph-name="currency" unicode="&#xa4;" 
d="M1079 274l-141 -141q-14 -15 -29 0l-123 123q-89 -51 -202 -51q-116 0 -205 51l-121 -121q-14 -15 -29 0l-139 141q-14 14 0 29l121 121q-47 89 -47 199q0 104 49 198l-123 123q-13 13 0 29l139 141q15 14 29 0l121 -123q92 51 205 51t202 -51l123 123q15 14 29 0
l139 -141q15 -15 0 -29l-123 -123q51 -92 51.5 -198.5t-49.5 -198.5l123 -123q15 -15 0 -29zM438 475q59 -59 146 -59q86 0 145 59q57 57 57 150q0 92 -57 149q-60 60 -145 60q-86 0 -146 -60q-55 -58 -55 -149q0 -92 55 -150z" />
    <glyph glyph-name="yen" unicode="&#xa5;" 
d="M700 0h-245q-21 0 -21 20v236q0 12 -12 12h-238q-20 0 -20 21v127q0 20 20 20h238q12 0 12 13v69q0 12 -12 12h-238q-20 0 -20 21v127q0 20 20 20h189v4l-303 670q-9 21 14 21h262q20 0 29 -21l205 -528h6l200 528q6 21 29 21h256q23 0 14 -21l-303 -670v-4h189
q20 0 20 -20v-127q0 -21 -20 -21h-238q-12 0 -12 -12v-69q0 -13 12 -13h238q20 0 20 -20v-127q0 -21 -20 -21h-238q-12 0 -12 -12v-236q0 -20 -21 -20z" />
    <glyph glyph-name="brokenbar" unicode="&#xa6;" horiz-adv-x="686" 
d="M444 795h-202q-21 0 -21 20v680q0 21 21 21h202q21 0 21 -21v-680q0 -20 -21 -20zM444 -172h-202q-21 0 -21 20v689q0 20 21 20h202q21 0 21 -20v-689q0 -20 -21 -20z" />
    <glyph glyph-name="section" unicode="&#xa7;" horiz-adv-x="1142" 
d="M565 -391q-172 0 -272.5 79.5t-112.5 211.5q-3 19 13 22l213 37q17 3 20 -14q15 -119 133 -119q63 0 98 31.5t35 85.5q0 69 -49 109.5t-174 70.5q-319 82 -319 391q0 104 47.5 186.5t132.5 126.5v2q-131 85 -131 256q0 140 104 234q110 96 275 96q168 0 269 -83.5
t109 -211.5q3 -17 -14 -20l-209 -37q-20 -3 -20 16q-18 119 -129 119q-57 0 -91 -30.5t-34 -84.5q0 -66 48 -104.5t167 -69.5q319 -85 319 -391q0 -102 -50 -186.5t-130 -126.5v-2q73 -44 105 -108t32 -163q0 -141 -106 -231q-109 -92 -279 -92zM453 389q45 -45 118 -45
q75 0 117 45q45 45 45 127q0 80 -45 125q-44 47 -117 47q-71 0 -118 -47q-43 -46 -43 -125q0 -81 43 -127z" />
    <glyph glyph-name="dieresis" unicode="&#xa8;" horiz-adv-x="929" 
d="M766 1149h-191q-20 0 -20 20v203q0 21 20 21h191q20 0 20 -21v-203q0 -20 -20 -20zM354 1149h-188q-21 0 -21 20v203q0 21 21 21h188q21 0 21 -21v-203q0 -20 -21 -20z" />
    <glyph glyph-name="copyright" unicode="&#xa9;" horiz-adv-x="1660" 
d="M829 -23q-307 0 -512 205q-206 206 -206 514q0 306 206 512q207 207 512 207q307 0 514 -207t207 -512q0 -307 -207 -514q-205 -205 -514 -205zM829 141q236 0 394 158q155 155 155 397q0 243 -155 398q-157 157 -394 157q-234 0 -391 -157q-155 -155 -155 -398
q0 -242 155 -397q158 -158 391 -158zM850 295q-130 0 -218.5 57.5t-125.5 167.5q-21 65 -21 176q0 110 21 178q37 108 126.5 167t217.5 59q198 0 293 -142q13 -16 -6 -28l-133 -86q-15 -15 -27 4q-53 65 -123 65q-104 0 -131 -92q-12 -35 -12 -125t12 -125q27 -90 131 -90
q71 0 123 64q10 20 27 6l133 -88q20 -10 6 -27q-43 -66 -120 -103.5t-173 -37.5z" />
    <glyph glyph-name="ordfeminine" unicode="&#xaa;" horiz-adv-x="729" 
d="M627 803h-158q-20 0 -20 20v27h-3q-51 -57 -167 -57q-92 0 -150.5 46.5t-58.5 131.5q0 96 68 146t196 50h100q12 0 12 13v12q0 57 -118 57q-78 0 -135 -32q-20 -10 -29 6l-62 104q-10 20 9 29q89 53 241 53q158 0 226.5 -50.5t68.5 -164.5v-371q0 -20 -20 -20zM338 938
q108 0 108 72v16q0 12 -12 12h-86q-82 0 -82 -51q0 -49 72 -49z" />
    <glyph glyph-name="guillemotleft" unicode="&#xab;" horiz-adv-x="1153" 
d="M1022 78l-451 448q-15 14 0 29l451 449q6 6 13 2.5t7 -11.5v-239q0 -21 -20 -41l-168 -166q-8 -9 0 -17l168 -165q20 -20 20 -41v-240q0 -8 -7 -11t-13 3zM522 78l-450 448q-14 14 0 29l450 449q6 6 13.5 2.5t7.5 -11.5v-239q0 -20 -21 -41l-168 -166q-8 -9 0 -17
l168 -165q21 -21 21 -41v-240q0 -8 -7.5 -11t-13.5 3z" />
    <glyph glyph-name="logicalnot" unicode="&#xac;" 
d="M1014 172h-209q-21 0 -21 21v239q0 12 -12 12h-647q-21 0 -21 21v201q0 20 21 20h889q20 0 20 -20v-473q0 -21 -20 -21z" />
    <glyph glyph-name="uni00AD" unicode="&#xad;" horiz-adv-x="802" 
d="M696 418h-590q-20 0 -20 20v209q0 21 20 21h590q21 0 21 -21v-209q0 -20 -21 -20z" />
    <glyph glyph-name="registered" unicode="&#xae;" horiz-adv-x="901" 
d="M57 1010q0 165 113 278t281 113q167 0 280 -113t113 -278q0 -168 -113 -281t-280 -113q-168 0 -281 113t-113 281zM756 1010q0 135 -86 221q-85 88 -219 88q-135 0 -220 -88q-86 -86 -86 -221q0 -137 86 -226q86 -86 220 -86q133 0 219 86q86 89 86 226zM383 795h-86
q-14 0 -14 14v405q0 15 14 15h180q78 0 121 -36.5t43 -102.5q0 -88 -80 -123l82 -158q8 -14 -10 -14h-92q-15 0 -21 14l-69 143h-45q-9 0 -9 -10v-133q0 -14 -14 -14zM406 1044h65q57 0 57 46q0 45 -57 45h-65q-9 0 -9 -9v-73q0 -9 9 -9z" />
    <glyph glyph-name="overscore" unicode="&#xaf;" horiz-adv-x="929" 
d="M754 1178h-580q-20 0 -20 20v154q0 20 20 20h580q20 0 20 -20v-154q0 -20 -20 -20z" />
    <glyph glyph-name="degree" unicode="&#xb0;" horiz-adv-x="897" 
d="M449 793q-136 0 -226 90q-88 88 -88 223q0 133 88 221q90 90 226 90q133 0 223 -90t90 -221q0 -133 -90 -223t-223 -90zM346 997q38 -41 102.5 -41t102.5 41q38 43 38 108.5t-38 106.5t-102.5 41t-102.5 -41t-38 -106.5t38 -108.5z" />
    <glyph glyph-name="plusminus" unicode="&#xb1;" 
d="M674 348h-209q-21 0 -21 21v309q0 12 -12 12h-307q-21 0 -21 21v200q0 21 21 21h307q12 0 12 12v309q0 21 21 21h209q20 0 20 -21v-309q0 -12 13 -12h307q20 0 20 -21v-200q0 -21 -20 -21h-307q-13 0 -13 -12v-309q0 -21 -20 -21zM1014 0h-889q-21 0 -21 20v201
q0 21 21 21h889q20 0 20 -21v-201q0 -20 -20 -20z" />
    <glyph glyph-name="twosuperior" unicode="&#xb2;" horiz-adv-x="733" 
d="M635 881h-535q-20 0 -20 20v135q0 19 16 35l295 301q51 54 51 103q0 75 -75 75q-72 0 -84 -77q-3 -22 -23 -19l-162 27q-19 3 -16 22q6 92 87 159t206 67q123 0 201.5 -70t78.5 -182q0 -118 -100 -211l-197 -201v-2h277q20 0 20 -21v-141q0 -20 -20 -20z" />
    <glyph glyph-name="threesuperior" unicode="&#xb3;" horiz-adv-x="733" 
d="M375 864q-121 0 -202 52t-99 147q-3 21 14 24l158 31q16 3 26 -14q27 -62 95 -62q41 0 65.5 23.5t24.5 62.5q0 89 -103 89h-35q-20 0 -20 20v135q0 21 20 21h29q90 0 90 77q0 80 -80 80q-59 0 -82 -51q-8 -17 -26 -14l-154 28q-17 3 -14 23q19 88 94.5 140.5t190.5 52.5
q132 0 208 -65.5t76 -172.5q0 -103 -86 -168v-2q45 -20 75 -72t30 -121q0 -119 -81 -191.5t-214 -72.5z" />
    <glyph glyph-name="acute" unicode="&#xb4;" horiz-adv-x="929" 
d="M455 1128h-187q-21 0 -12 21l158 266q12 21 37 21h235q10 0 13 -7t-3 -14l-202 -266q-15 -21 -39 -21z" />
    <glyph glyph-name="mu" unicode="&#xb5;" horiz-adv-x="1232" 
d="M780 125h-2q-43 -78 -100.5 -108.5t-151.5 -30.5q-72 0 -110 30h-2v-364q0 -21 -21 -21h-246q-20 0 -20 21v1319q0 20 20 20h246q21 0 21 -20v-568q0 -85 39 -132.5t112 -47.5q78 0 123 53t45 146v549q0 20 21 20h245q21 0 21 -20v-670q0 -39 12.5 -54.5t46.5 -15.5
q21 0 21 -20v-193q0 -30 -23 -30h-35q-131 0 -180 32q-52 34 -82 105z" />
    <glyph glyph-name="paragraph" unicode="&#xb6;" horiz-adv-x="1345" 
d="M1165 -369h-196q-21 0 -21 21v1515q0 13 -12 13h-141q-13 0 -13 -13v-1515q0 -21 -20 -21h-197q-20 0 -20 21v835q-186 12 -303 138t-117 315q0 198 129 324q132 129 352 129h559q21 0 21 -21v-1720q0 -21 -21 -21z" />
    <glyph glyph-name="middot" unicode="&#xb7;" horiz-adv-x="530" 
d="M387 399h-244q-20 0 -20 21v244q0 20 20 20h244q21 0 21 -20v-244q0 -21 -21 -21z" />
    <glyph glyph-name="cedilla" unicode="&#xb8;" horiz-adv-x="929" 
d="M516 -328h-199q-20 0 -14 21l125 307q9 20 29 20h172q20 0 14 -20l-94 -307q-6 -21 -33 -21z" />
    <glyph glyph-name="onesuperior" unicode="&#xb9;" horiz-adv-x="733" 
d="M506 881h-176q-21 0 -21 20v578h-4l-131 -82q-8 -5 -14 -0.5t-6 14.5v172q0 22 18 31l127 84q20 14 35 14h172q20 0 20 -20v-791q0 -20 -20 -20z" />
    <glyph glyph-name="ordmasculine" unicode="&#xba;" horiz-adv-x="761" 
d="M90 967q-19 54 -19 131t19 131q58 180 291 180t291 -180q19 -54 19 -131t-19 -131q-58 -181 -291 -181t-291 181zM467 1016q11 26 11 82t-11 82q-20 57 -86 57t-86 -57q-11 -26 -11 -82t11 -82q21 -58 86 -58t86 58z" />
    <glyph glyph-name="guillemotright" unicode="&#xbb;" horiz-adv-x="1153" 
d="M1096 526l-451 -448q-6 -6 -13 -3t-7 11v240q0 21 20 41l168 165q9 8 0 17l-168 166q-20 20 -20 41v239q0 8 7 11.5t13 -2.5l451 -449q14 -15 0 -29zM598 526l-453 -448q-6 -6 -13 -3t-7 11v240q0 21 20 41l168 165q9 8 0 17l-168 166q-20 20 -20 41v239q0 8 7 11.5
t13 -2.5l453 -449q14 -15 0 -29z" />
    <glyph glyph-name="onequarter" unicode="&#xbc;" horiz-adv-x="1787" 
d="M1526 0h-162q-21 0 -21 20v82q0 13 -12 13h-336q-20 0 -20 20v141q0 12 10 35l236 500q9 20 28 20h187q21 0 12 -20l-240 -514v-2h123q12 0 12 12v142q0 20 21 20h162q20 0 20 -20v-142q0 -12 13 -12h30q21 0 21 -21v-139q0 -20 -21 -20h-30q-13 0 -13 -13v-82
q0 -20 -20 -20zM539 -23h-172q-23 0 -11 21l809 1397q11 20 33 20h172q21 0 10 -20l-809 -1397q-12 -21 -32 -21zM530 561h-176q-20 0 -20 21v577h-4l-131 -82q-8 -5 -14.5 0t-6.5 15v172q0 20 19 30l127 84q21 15 34 15h172q21 0 21 -21v-790q0 -21 -21 -21z" />
    <glyph glyph-name="onehalf" unicode="&#xbd;" horiz-adv-x="1857" 
d="M1657 0h-535q-20 0 -20 20v136q0 18 16 34l295 302q51 54 51 102q0 76 -75 76q-72 0 -84 -78q-3 -22 -23 -19l-162 27q-19 3 -16 23q6 92 87 158.5t206 66.5q123 0 201.5 -70t78.5 -182q0 -118 -100 -211l-197 -201v-2h277q20 0 20 -20v-142q0 -20 -20 -20zM539 -23h-172
q-23 0 -11 21l809 1397q11 20 33 20h172q21 0 10 -20l-809 -1397q-12 -21 -32 -21zM530 561h-176q-20 0 -20 21v577h-4l-131 -82q-8 -5 -14.5 0t-6.5 15v172q0 20 19 30l127 84q21 15 34 15h172q21 0 21 -21v-790q0 -21 -21 -21z" />
    <glyph glyph-name="threequarters" unicode="&#xbe;" horiz-adv-x="1927" 
d="M1667 0h-162q-20 0 -20 20v82q0 13 -12 13h-336q-21 0 -21 20v141q0 12 10 35l236 500q9 20 29 20h186q21 0 12 -20l-239 -514v-2h123q12 0 12 12v142q0 20 20 20h162q21 0 21 -20v-142q0 -12 12 -12h31q20 0 20 -21v-139q0 -20 -20 -20h-31q-12 0 -12 -13v-82
q0 -20 -21 -20zM485 545q-121 0 -202 51.5t-99 146.5q-3 22 15 25l157 31q16 3 27 -15q27 -61 94 -61q41 0 65.5 23.5t24.5 62.5q0 88 -102 88h-35q-20 0 -20 21v135q0 20 20 20h29q90 0 90 78q0 80 -80 80q-59 0 -82 -51q-9 -18 -27 -15l-153 29q-17 3 -14 23q19 88 94 140
t190 52q132 0 208.5 -65.5t76.5 -172.5q0 -102 -86 -167v-3q45 -20 74.5 -71.5t29.5 -120.5q0 -119 -81 -191.5t-214 -72.5zM684 -23h-172q-22 0 -10 21l809 1397q11 20 32 20h173q21 0 10 -20l-809 -1397q-12 -21 -33 -21z" />
    <glyph glyph-name="questiondown" unicode="&#xbf;" horiz-adv-x="968" 
d="M387 584h238q20 0 20 -21v-86q0 -98 -59 -172l-144 -186q-77 -92 -77 -164q0 -60 37 -97.5t98 -37.5q126 0 153 143q6 22 27 19l221 -33q20 -3 17 -25q-23 -161 -136 -254.5t-290 -93.5q-181 0 -297 107q-115 106 -115 262q0 140 108 266l138 180q41 50 41 123v49
q0 21 20 21zM649 971v-234q0 -20 -20 -20h-246q-21 0 -21 20v234q0 20 21 20h246q20 0 20 -20z" />
    <glyph glyph-name="Agrave" unicode="&#xc0;" horiz-adv-x="1318" 
d="M35 20l479 1352q6 21 27 21h258q20 0 26 -21l471 -1352q6 -20 -14 -20h-266q-21 0 -27 20l-80 244h-487l-78 -244q-6 -20 -27 -20h-268q-20 0 -14 20zM664 1008l-158 -488h321l-157 488h-6zM764 1544h-191q-19 0 -38 19l-252 237q-6 8 -3 14.5t13 6.5h246q24 0 39 -21
l194 -235q6 -7 3 -14t-11 -7z" />
    <glyph glyph-name="Aacute" unicode="&#xc1;" horiz-adv-x="1318" 
d="M35 20l479 1352q6 21 27 21h258q20 0 26 -21l471 -1352q6 -20 -14 -20h-266q-21 0 -27 20l-80 244h-487l-78 -244q-6 -20 -27 -20h-268q-20 0 -14 20zM664 1008l-158 -488h321l-157 488h-6zM762 1544h-191q-8 0 -11 7t3 14l195 235q15 21 39 21h245q10 0 13.5 -6.5
t-2.5 -14.5l-252 -237q-19 -19 -39 -19z" />
    <glyph glyph-name="Acircumflex" unicode="&#xc2;" horiz-adv-x="1318" 
d="M35 20l479 1352q6 21 27 21h258q20 0 26 -21l471 -1352q6 -20 -14 -20h-266q-21 0 -27 20l-80 244h-487l-78 -244q-6 -20 -27 -20h-268q-20 0 -14 20zM664 1008l-158 -488h321l-157 488h-6zM983 1530h-164q-25 0 -45 20l-108 111h-4l-107 -111q-20 -20 -45 -20h-164
q-8 0 -11 6t3 14l211 269q14 20 39 20h153q23 0 37 -20l213 -269q6 -8 4 -14t-12 -6z" />
    <glyph glyph-name="Atilde" unicode="&#xc3;" horiz-adv-x="1318" 
d="M35 20l479 1352q6 21 27 21h258q20 0 26 -21l471 -1352q6 -20 -14 -20h-266q-21 0 -27 20l-80 244h-487l-78 -244q-6 -20 -27 -20h-268q-20 0 -14 20zM664 1008l-158 -488h321l-157 488h-6zM795 1532q-69 0 -154 43q-64 37 -119 37q-63 0 -145 -64q-19 -16 -19 4v148
q0 23 17 43q72 72 157 72q69 0 154 -43q67 -37 119 -37q64 0 145 63q8 6 14.5 4t6.5 -8v-147q0 -24 -19 -43q-69 -72 -157 -72z" />
    <glyph glyph-name="Adieresis" unicode="&#xc4;" horiz-adv-x="1318" 
d="M35 20l479 1352q6 21 27 21h258q20 0 26 -21l471 -1352q6 -20 -14 -20h-266q-21 0 -27 20l-80 244h-487l-78 -244q-6 -20 -27 -20h-268q-20 0 -14 20zM664 1008l-158 -488h321l-157 488h-6zM965 1556h-185q-20 0 -20 21v201q0 20 20 20h185q20 0 20 -20v-201
q0 -21 -20 -21zM549 1556h-184q-21 0 -21 21v201q0 20 21 20h184q20 0 20 -20v-201q0 -21 -20 -21z" />
    <glyph glyph-name="Aring" unicode="&#xc5;" horiz-adv-x="1318" 
d="M35 20l479 1352q6 21 27 21h258q20 0 26 -21l471 -1352q6 -20 -14 -20h-266q-21 0 -27 20l-80 244h-487l-78 -244q-6 -20 -27 -20h-268q-20 0 -14 20zM664 1008l-158 -488h321l-157 488h-6zM821 1520q-62 -62 -155 -62t-158 62q-62 65 -62 157q0 94 62 156q64 61 158 61
t155 -61q64 -61 64 -156q0 -93 -64 -157zM760 1677q0 41 -28 70t-66 29q-41 0 -69 -29t-28 -70q0 -43 27.5 -70.5t69.5 -27.5q41 0 67.5 27.5t26.5 70.5z" />
    <glyph glyph-name="AE" unicode="&#xc6;" horiz-adv-x="1902" 
d="M1802 0h-893q-20 0 -20 20v232q0 12 -12 12h-394l-112 -244q-9 -20 -29 -20h-289q-21 0 -12 20l649 1352q9 21 29 21h1083q21 0 21 -21v-219q0 -20 -21 -20h-600q-12 0 -12 -13v-276q0 -13 12 -13h500q20 0 20 -20v-217q0 -21 -20 -21h-500q-12 0 -12 -12v-289
q0 -12 12 -12h600q21 0 21 -20v-220q0 -20 -21 -20zM889 1133h-6l-283 -613h277q12 0 12 12v601z" />
    <glyph glyph-name="Ccedilla" unicode="&#xc7;" horiz-adv-x="1177" 
d="M610 -328h-198q-21 0 -15 21l119 295q-290 53 -381 331q-39 110 -39 377t39 377q55 167 183 254.5t313 87.5q176 0 300.5 -80t184.5 -229q10 -19 -10 -25l-223 -100q-20 -10 -29 10q-68 158 -221 158q-159 0 -209 -154q-23 -77 -23 -299t23 -299q50 -153 209 -153
q153 0 221 157q9 21 29 11l223 -101q19 -5 10 -24q-102 -254 -383 -301l-90 -293q-6 -21 -33 -21z" />
    <glyph glyph-name="Egrave" unicode="&#xc8;" horiz-adv-x="1157" 
d="M737 1544h-190q-20 0 -39 19l-252 237q-6 8 -3 14.5t13 6.5h246q24 0 39 -21l194 -235q6 -7 3 -14t-11 -7zM133 20v1352q0 21 21 21h893q20 0 20 -21v-219q0 -20 -20 -20h-601q-12 0 -12 -13v-276q0 -13 12 -13h500q21 0 21 -20v-217q0 -21 -21 -21h-500q-12 0 -12 -12
v-289q0 -12 12 -12h601q20 0 20 -20v-220q0 -20 -20 -20h-893q-21 0 -21 20z" />
    <glyph glyph-name="Eacute" unicode="&#xc9;" horiz-adv-x="1157" 
d="M629 1544h-191q-8 0 -11 7t3 14l195 235q15 21 39 21h245q10 0 13.5 -6.5t-2.5 -14.5l-252 -237q-19 -19 -39 -19zM133 20v1352q0 21 21 21h893q20 0 20 -21v-219q0 -20 -20 -20h-601q-12 0 -12 -13v-276q0 -13 12 -13h500q21 0 21 -20v-217q0 -21 -21 -21h-500
q-12 0 -12 -12v-289q0 -12 12 -12h601q20 0 20 -20v-220q0 -20 -20 -20h-893q-21 0 -21 20z" />
    <glyph glyph-name="Ecircumflex" unicode="&#xca;" horiz-adv-x="1157" 
d="M133 20v1352q0 21 21 21h893q20 0 20 -21v-219q0 -20 -20 -20h-601q-12 0 -12 -13v-276q0 -13 12 -13h500q21 0 21 -20v-217q0 -21 -21 -21h-500q-12 0 -12 -12v-289q0 -12 12 -12h601q20 0 20 -20v-220q0 -20 -20 -20h-893q-21 0 -21 20zM920 1530h-164q-25 0 -45 20
l-109 111h-4l-106 -111q-20 -20 -46 -20h-163q-8 0 -11.5 6t2.5 14l211 269q14 20 39 20h154q23 0 37 -20l213 -269q6 -8 4 -14t-12 -6z" />
    <glyph glyph-name="Edieresis" unicode="&#xcb;" horiz-adv-x="1157" 
d="M133 20v1352q0 21 21 21h893q20 0 20 -21v-219q0 -20 -20 -20h-601q-12 0 -12 -13v-276q0 -13 12 -13h500q21 0 21 -20v-217q0 -21 -21 -21h-500q-12 0 -12 -12v-289q0 -12 12 -12h601q20 0 20 -20v-220q0 -20 -20 -20h-893q-21 0 -21 20zM899 1556h-184q-21 0 -21 21
v201q0 20 21 20h184q21 0 21 -20v-201q0 -21 -21 -21zM483 1556h-184q-20 0 -20 21v201q0 20 20 20h184q21 0 21 -20v-201q0 -21 -21 -21z" />
    <glyph glyph-name="Igrave" unicode="&#xcc;" horiz-adv-x="567" 
d="M395 1544h-190q-20 0 -39 19l-252 237q-7 8 -4 14.5t14 6.5h246q24 0 39 -21l194 -235q6 -7 4 -14t-12 -7zM137 20v1352q0 21 21 21h260q20 0 20 -21v-1352q0 -20 -20 -20h-260q-21 0 -21 20z" />
    <glyph glyph-name="Iacute" unicode="&#xcd;" horiz-adv-x="567" 
d="M133 20v1352q0 21 21 21h260q20 0 20 -21v-1352q0 -20 -20 -20h-260q-21 0 -21 20zM375 1544h-191q-8 0 -11 7t3 14l195 235q15 21 39 21h245q10 0 13.5 -6.5t-2.5 -14.5l-252 -237q-19 -19 -39 -19z" />
    <glyph glyph-name="Icircumflex" unicode="&#xce;" horiz-adv-x="567" 
d="M604 1530h-164q-25 0 -45 20l-108 111h-4l-107 -111q-20 -20 -45 -20h-164q-10 0 -12 6t4 14l211 269q14 20 39 20h153q23 0 37 -20l213 -269q6 -8 3 -14t-11 -6zM135 20v1352q0 21 21 21h260q20 0 20 -21v-1352q0 -20 -20 -20h-260q-21 0 -21 20z" />
    <glyph glyph-name="Idieresis" unicode="&#xcf;" horiz-adv-x="567" 
d="M133 20v1352q0 21 21 21h260q20 0 20 -21v-1352q0 -20 -20 -20h-260q-21 0 -21 20zM584 1556h-185q-20 0 -20 21v201q0 20 20 20h185q20 0 20 -20v-201q0 -21 -20 -21zM168 1556h-184q-21 0 -21 21v201q0 20 21 20h184q20 0 20 -20v-201q0 -21 -20 -21z" />
    <glyph glyph-name="Eth" unicode="&#xd0;" horiz-adv-x="1286" 
d="M672 0h-518q-21 0 -21 20v560q0 12 -12 12h-51q-21 0 -21 20v181q0 20 21 20h51q12 0 12 12v547q0 21 21 21h518q379 0 481 -314q37 -115 37 -383t-37 -383q-102 -313 -481 -313zM446 268h158q211 0 258 154q23 71 23 274q0 204 -23 275q-46 153 -258 153h-158
q-12 0 -12 -12v-287q0 -12 12 -12h170q21 0 21 -20v-181q0 -20 -21 -20h-170q-12 0 -12 -12v-299q0 -13 12 -13z" />
    <glyph glyph-name="Ntilde" unicode="&#xd1;" horiz-adv-x="1341" 
d="M133 20v1352q0 21 21 21h245q23 0 35 -21l492 -876h10v876q0 21 20 21h232q20 0 20 -21v-1352q0 -20 -20 -20h-244q-24 0 -35 20l-493 875h-10v-875q0 -20 -21 -20h-231q-21 0 -21 20zM801 1532q-69 0 -154 43q-64 37 -119 37q-63 0 -145 -64q-18 -15 -18 4v148
q0 24 16 43q72 72 158 72q68 0 153 -43q67 -37 119 -37q64 0 145 63q8 6 14.5 4t6.5 -8v-147q0 -24 -19 -43q-69 -72 -157 -72z" />
    <glyph glyph-name="Ograve" unicode="&#xd2;" horiz-adv-x="1286" 
d="M770 1544h-190q-20 0 -39 19l-252 237q-6 8 -3 14.5t13 6.5h246q24 0 39 -21l194 -235q6 -7 3 -14t-11 -7zM135 315q-39 118 -39 381t39 381q53 164 186.5 251t321.5 87t321.5 -87t186.5 -251q39 -118 39 -381t-39 -381q-53 -164 -186.5 -251t-321.5 -87t-321.5 87
t-186.5 251zM862 397q23 74 23 299t-23 299q-50 154 -219 154t-219 -154q-23 -74 -23 -299t23 -299q50 -153 219 -153t219 153z" />
    <glyph glyph-name="Oacute" unicode="&#xd3;" horiz-adv-x="1286" 
d="M135 315q-39 118 -39 381t39 381q53 164 186.5 251t321.5 87t321.5 -87t186.5 -251q39 -118 39 -381t-39 -381q-53 -164 -186.5 -251t-321.5 -87t-321.5 87t-186.5 251zM862 397q23 74 23 299t-23 299q-50 154 -219 154t-219 -154q-23 -74 -23 -299t23 -299
q50 -153 219 -153t219 153zM705 1544h-191q-10 0 -12 7t4 14l194 235q15 21 39 21h246q11 0 14 -6.5t-4 -14.5l-252 -237q-19 -19 -38 -19z" />
    <glyph glyph-name="Ocircumflex" unicode="&#xd4;" horiz-adv-x="1286" 
d="M135 315q-39 118 -39 381t39 381q53 164 186.5 251t321.5 87t321.5 -87t186.5 -251q39 -118 39 -381t-39 -381q-53 -164 -186.5 -251t-321.5 -87t-321.5 87t-186.5 251zM862 397q23 74 23 299t-23 299q-50 154 -219 154t-219 -154q-23 -74 -23 -299t23 -299
q50 -153 219 -153t219 153zM961 1530h-164q-25 0 -45 20l-109 111h-4l-107 -111q-20 -20 -45 -20h-163q-8 0 -11.5 6t2.5 14l211 269q14 20 39 20h154q23 0 37 -20l213 -269q6 -8 4 -14t-12 -6z" />
    <glyph glyph-name="Otilde" unicode="&#xd5;" horiz-adv-x="1286" 
d="M135 315q-39 118 -39 381t39 381q53 164 186.5 251t321.5 87t321.5 -87t186.5 -251q39 -118 39 -381t-39 -381q-53 -164 -186.5 -251t-321.5 -87t-321.5 87t-186.5 251zM862 397q23 74 23 299t-23 299q-50 154 -219 154t-219 -154q-23 -74 -23 -299t23 -299
q50 -153 219 -153t219 153zM772 1532q-69 0 -154 43q-64 37 -118 37q-64 0 -146 -64q-18 -15 -18 4v148q0 24 16 43q72 72 158 72q69 0 154 -43q67 -37 118 -37q65 0 146 63q8 6 14 4t6 -8v-147q0 -25 -18 -43q-69 -72 -158 -72z" />
    <glyph glyph-name="Odieresis" unicode="&#xd6;" horiz-adv-x="1286" 
d="M135 315q-39 118 -39 381t39 381q53 164 186.5 251t321.5 87t321.5 -87t186.5 -251q39 -118 39 -381t-39 -381q-53 -164 -186.5 -251t-321.5 -87t-321.5 87t-186.5 251zM862 397q23 74 23 299t-23 299q-50 154 -219 154t-219 -154q-23 -74 -23 -299t23 -299
q50 -153 219 -153t219 153zM942 1556h-184q-21 0 -21 21v201q0 20 21 20h184q21 0 21 -20v-201q0 -21 -21 -21zM526 1556h-184q-20 0 -20 21v201q0 20 20 20h184q21 0 21 -20v-201q0 -21 -21 -21z" />
    <glyph glyph-name="multiply" unicode="&#xd7;" 
d="M997 289l-137 -137q-14 -17 -29 0l-239 237q-8 9 -17 0l-241 -237q-14 -17 -29 0l-137 137q-14 14 0 28l240 240q8 8 0 16l-240 240q-14 15 0 29l139 139q15 15 29 0l239 -240q9 -9 19 0l237 240q15 15 29 0l137 -137q13 -16 0 -29l-237 -240q-9 -9 0 -18l237 -240
q14 -14 0 -28z" />
    <glyph glyph-name="Oslash" unicode="&#xd8;" horiz-adv-x="1286" 
d="M258 -61h-143q-22 0 -11 20l125 199q-57 72 -82 157q-38 115 -38 381t38 381q53 164 186.5 251t321.5 87q178 0 306 -78l61 99q9 18 31 18h143q21 0 10 -20l-125 -201q46 -57 82 -156q39 -118 39 -381t-39 -381q-53 -164 -186.5 -251t-321.5 -87q-180 0 -305 76l-61 -96
q-9 -18 -31 -18zM410 696q0 -158 10 -243l387 649q-61 49 -152 49q-171 0 -223 -156q-22 -77 -22 -299zM655 242q172 0 224 155q22 77 22 299q0 155 -10 240l-387 -647q59 -47 151 -47z" />
    <glyph glyph-name="Ugrave" unicode="&#xd9;" horiz-adv-x="1320" 
d="M662 -23q-241 0 -390 140q-145 142 -145 395v860q0 21 20 21h261q20 0 20 -21v-868q0 -122 63.5 -191t170.5 -69t169 69t62 191v868q0 21 20 21h261q20 0 20 -21v-860q0 -254 -147 -395q-146 -140 -385 -140zM784 1544h-190q-20 0 -39 19l-252 237q-7 8 -4 14.5t14 6.5
h246q24 0 39 -21l195 -235q6 -7 3.5 -14t-12.5 -7z" />
    <glyph glyph-name="Uacute" unicode="&#xda;" horiz-adv-x="1320" 
d="M731 1544h-190q-8 0 -11.5 7t2.5 14l195 235q15 21 39 21h246q10 0 13 -6.5t-3 -14.5l-252 -237q-19 -19 -39 -19zM662 -23q-241 0 -390 140q-145 142 -145 395v860q0 21 20 21h261q20 0 20 -21v-868q0 -122 63.5 -191t170.5 -69t169 69t62 191v868q0 21 20 21h261
q20 0 20 -21v-860q0 -254 -147 -395q-146 -140 -385 -140z" />
    <glyph glyph-name="Ucircumflex" unicode="&#xdb;" horiz-adv-x="1320" 
d="M662 -23q-241 0 -390 140q-145 142 -145 395v860q0 21 20 21h261q20 0 20 -21v-868q0 -122 63.5 -191t170.5 -69t169 69t62 191v868q0 21 20 21h261q20 0 20 -21v-860q0 -254 -147 -395q-146 -140 -385 -140zM977 1530h-164q-25 0 -45 20l-109 111h-4l-106 -111
q-20 -20 -45 -20h-164q-8 0 -11 6t3 14l211 269q14 20 39 20h153q23 0 37 -20l213 -269q6 -8 4 -14t-12 -6z" />
    <glyph glyph-name="Udieresis" unicode="&#xdc;" horiz-adv-x="1320" 
d="M662 -23q-241 0 -390 140q-145 142 -145 395v860q0 21 20 21h261q20 0 20 -21v-868q0 -122 63.5 -191t170.5 -69t169 69t62 191v868q0 21 20 21h261q20 0 20 -21v-860q0 -254 -147 -395q-146 -140 -385 -140zM961 1556h-185q-20 0 -20 21v201q0 20 20 20h185q20 0 20 -20
v-201q0 -21 -20 -21zM545 1556h-185q-20 0 -20 21v201q0 20 20 20h185q20 0 20 -20v-201q0 -21 -20 -21z" />
    <glyph glyph-name="Yacute" unicode="&#xdd;" horiz-adv-x="1163" 
d="M719 0h-260q-21 0 -21 20v535l-411 817q-9 21 14 21h266q22 0 31 -21l252 -508h6l252 508q9 21 31 21h258q10 0 14.5 -6.5t-0.5 -14.5l-412 -817v-535q0 -20 -20 -20zM674 1544h-191q-8 0 -11 7t3 14l195 235q15 21 39 21h245q10 0 13.5 -6.5t-2.5 -14.5l-252 -237
q-19 -19 -39 -19z" />
    <glyph glyph-name="Thorn" unicode="&#xde;" horiz-adv-x="1239" 
d="M414 0h-260q-21 0 -21 20v1352q0 21 21 21h260q20 0 20 -21v-188q0 -13 12 -13h248q227 0 355 -122q131 -122 131 -326q0 -202 -131 -324q-132 -123 -355 -123h-248q-12 0 -12 -12v-244q0 -20 -20 -20zM446 537h230q94 0 148.5 50t54.5 136t-54.5 137t-148.5 51h-230
q-12 0 -12 -12v-350q0 -12 12 -12z" />
    <glyph glyph-name="germandbls" unicode="&#xdf;" horiz-adv-x="1150" 
d="M657 -8h-71q-21 0 -21 20v195q0 20 21 20h51q104 0 131 80q8 21 8 156q0 131 -10 164q-27 90 -150 90h-28q-21 0 -21 20v193q0 20 21 20h49q121 0 121 113q0 117 -162 117q-94 0 -137 -43.5t-43 -137.5v-979q0 -20 -21 -20h-245q-21 0 -21 20v973q0 422 463 422
q217 0 333.5 -89t116.5 -253q0 -149 -114 -229v-4q82 -46 110 -138q25 -80 25 -241q0 -187 -27 -266q-35 -105 -127 -154t-252 -49z" />
    <glyph glyph-name="agrave" unicode="&#xe0;" horiz-adv-x="1081" 
d="M938 0h-227q-21 0 -21 20v66h-2q-83 -109 -272 -109q-146 0 -238 79.5t-92 224.5q0 157 109 238t303 81h176q12 0 12 12v37q0 73 -44.5 104t-158.5 31q-137 0 -221 -63q-16 -13 -26 4l-93 162q-9 18 7 28q138 99 368 99q237 0 338.5 -84t101.5 -275v-635q0 -20 -20 -20z
M502 193q184 0 184 137v67q0 13 -12 13h-139q-177 0 -177 -113q0 -104 144 -104zM700 1128h-188q-24 0 -39 21l-203 266q-6 7 -2.5 14t13.5 7h237q25 0 37 -21l156 -266q9 -21 -11 -21z" />
    <glyph glyph-name="aacute" unicode="&#xe1;" horiz-adv-x="1081" 
d="M938 0h-227q-21 0 -21 20v66h-2q-83 -109 -272 -109q-146 0 -238 79.5t-92 224.5q0 157 109 238t303 81h176q12 0 12 12v37q0 73 -44.5 104t-158.5 31q-137 0 -221 -63q-16 -13 -26 4l-93 162q-9 18 7 28q138 99 368 99q237 0 338.5 -84t101.5 -275v-635q0 -20 -20 -20z
M502 193q184 0 184 137v67q0 13 -12 13h-139q-177 0 -177 -113q0 -104 144 -104zM610 1128h-186q-21 0 -12 21l157 266q12 21 37 21h236q10 0 13 -7t-3 -14l-203 -266q-15 -21 -39 -21z" />
    <glyph glyph-name="acircumflex" unicode="&#xe2;" horiz-adv-x="1081" 
d="M938 0h-227q-21 0 -21 20v66h-2q-83 -109 -272 -109q-146 0 -238 79.5t-92 224.5q0 157 109 238t303 81h176q12 0 12 12v37q0 73 -44.5 104t-158.5 31q-137 0 -221 -63q-16 -13 -26 4l-93 162q-9 18 7 28q138 99 368 99q237 0 338.5 -84t101.5 -275v-635q0 -20 -20 -20z
M502 193q184 0 184 137v67q0 13 -12 13h-139q-177 0 -177 -113q0 -104 144 -104zM856 1126h-164q-24 0 -45 21l-106 110h-4l-109 -110q-21 -21 -45 -21h-162q-10 0 -13 7t3 14l213 268q15 21 37 21h153q24 0 39 -21l211 -268q6 -7 3 -14t-11 -7z" />
    <glyph glyph-name="atilde" unicode="&#xe3;" horiz-adv-x="1081" 
d="M938 0h-227q-21 0 -21 20v66h-2q-83 -109 -272 -109q-146 0 -238 79.5t-92 224.5q0 157 109 238t303 81h176q12 0 12 12v37q0 73 -44.5 104t-158.5 31q-137 0 -221 -63q-16 -13 -26 4l-93 162q-9 18 7 28q138 99 368 99q237 0 338.5 -84t101.5 -275v-635q0 -20 -20 -20z
M502 193q184 0 184 137v67q0 13 -12 13h-139q-177 0 -177 -113q0 -104 144 -104zM670 1130q-66 0 -154 46q-68 36 -119 36q-65 0 -145 -65q-19 -16 -19 6v147q0 21 17 41q74 74 158 74q67 0 153 -45q73 -37 119 -37q64 0 145 66q7 6 14 4t7 -10v-148q0 -22 -19 -41
q-71 -74 -157 -74z" />
    <glyph glyph-name="adieresis" unicode="&#xe4;" horiz-adv-x="1081" 
d="M938 0h-227q-21 0 -21 20v66h-2q-83 -109 -272 -109q-146 0 -238 79.5t-92 224.5q0 157 109 238t303 81h176q12 0 12 12v37q0 73 -44.5 104t-158.5 31q-137 0 -221 -63q-16 -13 -26 4l-93 162q-9 18 7 28q138 99 368 99q237 0 338.5 -84t101.5 -275v-635q0 -20 -20 -20z
M502 193q184 0 184 137v67q0 13 -12 13h-139q-177 0 -177 -113q0 -104 144 -104zM840 1149h-191q-20 0 -20 20v203q0 21 20 21h191q20 0 20 -21v-203q0 -20 -20 -20zM428 1149h-188q-21 0 -21 20v203q0 21 21 21h188q21 0 21 -21v-203q0 -20 -21 -20z" />
    <glyph glyph-name="aring" unicode="&#xe5;" horiz-adv-x="1081" 
d="M938 0h-227q-21 0 -21 20v66h-2q-83 -109 -272 -109q-146 0 -238 79.5t-92 224.5q0 157 109 238t303 81h176q12 0 12 12v37q0 73 -44.5 104t-158.5 31q-137 0 -221 -63q-16 -13 -26 4l-93 162q-9 18 7 28q138 99 368 99q237 0 338.5 -84t101.5 -275v-635q0 -20 -20 -20z
M502 193q184 0 184 137v67q0 13 -12 13h-139q-177 0 -177 -113q0 -104 144 -104zM700 1135q-62 -62 -155 -62t-158 62q-61 61 -61 155q0 95 61 156q63 63 158 63t155 -63q64 -61 64 -156q0 -94 -64 -155zM545 1192q39 0 66.5 28.5t27.5 69.5q0 43 -26.5 72t-67.5 29
t-68.5 -29t-27.5 -72q0 -41 27.5 -69.5t68.5 -28.5z" />
    <glyph glyph-name="ae" unicode="&#xe6;" horiz-adv-x="1671" 
d="M1147 -23q-224 0 -340 146h-2q-96 -146 -371 -146q-161 0 -254.5 78.5t-93.5 225.5q0 157 109 238t303 81h176q12 0 12 12v39q0 73 -44.5 103t-158.5 30q-137 0 -221 -63q-16 -13 -26 4l-93 162q-9 18 7 28q138 99 368 99q229 0 332 -92h4q109 92 276 92q160 0 273 -74
t156 -205q32 -88 32 -305q0 -20 -22 -20h-600q-13 0 -13 -13q0 -18 13 -55q43 -131 207 -131q131 0 225 88q16 13 29 0l135 -127q15 -16 2 -29q-156 -166 -420 -166zM969 600h327q13 0 13 12q0 32 -11 74q-38 109 -165 109q-128 0 -166 -109q-11 -37 -11 -74q0 -12 13 -12z
M502 193q184 0 184 137v67q0 13 -12 13h-139q-177 0 -177 -113q0 -104 144 -104z" />
    <glyph glyph-name="ccedilla" unicode="&#xe7;" horiz-adv-x="985" 
d="M508 -328h-199q-20 0 -14 21l119 295q-239 62 -303 270q-31 91 -31 238q0 146 31 237q42 135 154.5 208t273.5 73q121 0 219 -50.5t155 -136.5q10 -17 -4 -28l-178 -117q-18 -12 -31 4q-62 86 -157 86q-120 0 -154 -106q-18 -52 -18 -170t18 -170q34 -107 154 -107
q95 0 157 86q13 16 31 4l178 -116q14 -12 4 -29q-45 -68 -120.5 -116.5t-161.5 -61.5l-90 -293q-6 -21 -33 -21z" />
    <glyph glyph-name="egrave" unicode="&#xe8;" horiz-adv-x="1079" 
d="M553 -23q-167 0 -281 74t-157 209q-35 107 -35 236q0 142 33 237q43 133 155 207t271 74q160 0 272.5 -74t155.5 -205q32 -97 32 -305q0 -20 -22 -20h-600q-12 0 -12 -13q3 -31 12 -55q40 -131 205 -131q133 0 227 88q19 16 29 0l135 -127q15 -16 2 -29
q-156 -166 -422 -166zM377 600h328q12 0 12 12q0 36 -10 74q-38 109 -166 109t-166 -109q-10 -38 -10 -74q0 -12 12 -12zM672 1128h-189q-24 0 -39 21l-202 266q-6 7 -3 14t13 7h237q25 0 37 -21l156 -266q9 -21 -10 -21z" />
    <glyph glyph-name="eacute" unicode="&#xe9;" horiz-adv-x="1079" 
d="M553 -23q-167 0 -281 74t-157 209q-35 107 -35 236q0 142 33 237q43 133 155 207t271 74q160 0 272.5 -74t155.5 -205q32 -97 32 -305q0 -20 -22 -20h-600q-12 0 -12 -13q3 -31 12 -55q40 -131 205 -131q133 0 227 88q19 16 29 0l135 -127q15 -16 2 -29
q-156 -166 -422 -166zM377 600h328q12 0 12 12q0 36 -10 74q-38 109 -166 109t-166 -109q-10 -38 -10 -74q0 -12 12 -12zM604 1128h-186q-21 0 -12 21l157 266q12 21 37 21h236q10 0 13 -7t-3 -14l-203 -266q-15 -21 -39 -21z" />
    <glyph glyph-name="ecircumflex" unicode="&#xea;" horiz-adv-x="1079" 
d="M553 -23q-167 0 -281 74t-157 209q-35 107 -35 236q0 142 33 237q43 133 155 207t271 74q160 0 272.5 -74t155.5 -205q32 -97 32 -305q0 -20 -22 -20h-600q-12 0 -12 -13q3 -31 12 -55q40 -131 205 -131q133 0 227 88q19 16 29 0l135 -127q15 -16 2 -29
q-156 -166 -422 -166zM377 600h328q12 0 12 12q0 36 -10 74q-38 109 -166 109t-166 -109q-10 -38 -10 -74q0 -12 12 -12zM856 1126h-164q-24 0 -45 21l-106 110h-4l-109 -110q-21 -21 -45 -21h-162q-10 0 -13 7t3 14l213 268q15 21 37 21h153q24 0 39 -21l211 -268
q6 -7 3 -14t-11 -7z" />
    <glyph glyph-name="edieresis" unicode="&#xeb;" horiz-adv-x="1079" 
d="M553 -23q-167 0 -281 74t-157 209q-35 107 -35 236q0 142 33 237q43 133 155 207t271 74q160 0 272.5 -74t155.5 -205q32 -97 32 -305q0 -20 -22 -20h-600q-12 0 -12 -13q3 -31 12 -55q40 -131 205 -131q133 0 227 88q19 16 29 0l135 -127q15 -16 2 -29
q-156 -166 -422 -166zM377 600h328q12 0 12 12q0 36 -10 74q-38 109 -166 109t-166 -109q-10 -38 -10 -74q0 -12 12 -12zM838 1149h-191q-20 0 -20 20v203q0 21 20 21h191q20 0 20 -21v-203q0 -20 -20 -20zM426 1149h-188q-21 0 -21 20v203q0 21 21 21h188q20 0 20 -21v-203
q0 -20 -20 -20z" />
    <glyph glyph-name="igrave" unicode="&#xec;" horiz-adv-x="544" 
d="M401 0h-245q-21 0 -21 20v951q0 20 21 20h245q21 0 21 -20v-951q0 -20 -21 -20zM381 1128h-188q-24 0 -39 21l-203 266q-6 7 -3 14t13 7h238q25 0 37 -21l155 -266q9 -21 -10 -21z" />
    <glyph glyph-name="iacute" unicode="&#xed;" horiz-adv-x="544" 
d="M358 1128h-186q-21 0 -12 21l157 266q12 21 37 21h236q10 0 13 -7t-3 -14l-203 -266q-15 -21 -39 -21zM395 0h-245q-21 0 -21 20v951q0 20 21 20h245q21 0 21 -20v-951q0 -20 -21 -20z" />
    <glyph glyph-name="icircumflex" unicode="&#xee;" horiz-adv-x="544" 
d="M594 1126h-164q-24 0 -45 21l-106 110h-5l-108 -110q-21 -21 -45 -21h-162q-10 0 -13 7t3 14l213 268q15 21 37 21h153q24 0 39 -21l211 -268q6 -7 3 -14t-11 -7zM399 0h-245q-21 0 -21 20v951q0 20 21 20h245q21 0 21 -20v-951q0 -20 -21 -20z" />
    <glyph glyph-name="idieresis" unicode="&#xef;" horiz-adv-x="544" 
d="M573 1149h-190q-21 0 -21 20v203q0 21 21 21h190q21 0 21 -21v-203q0 -20 -21 -20zM162 1149h-189q-20 0 -20 20v203q0 21 20 21h189q20 0 20 -21v-203q0 -20 -20 -20zM395 0h-245q-21 0 -21 20v951q0 20 21 20h245q21 0 21 -20v-951q0 -20 -21 -20z" />
    <glyph glyph-name="eth" unicode="&#xf0;" horiz-adv-x="1085" 
d="M848 1167l-121 -37l41 -57q126 -175 182 -309q56 -133 56 -283q0 -127 -29 -219q-44 -135 -158 -210t-274 -75q-163 0 -276 73t-156 204q-31 98 -31 201q0 111 29 209q38 121 130.5 189.5t217.5 68.5q81 0 131 -33h4l-121 166l-192 -58q-19 -3 -25 15l-41 133
q-6 20 14 26l131 39l-116 162q-5 8 -1.5 14.5t13.5 6.5h252q24 0 39 -21l63 -88l185 55q20 6 26 -12l41 -133q6 -21 -14 -27zM545 213q128 0 162 113q20 53 20 137q0 73 -20 137q-35 115 -162 115q-129 0 -164 -115q-21 -68 -21 -137q0 -81 21 -137q34 -113 164 -113z" />
    <glyph glyph-name="ntilde" unicode="&#xf1;" horiz-adv-x="1132" 
d="M991 0h-246q-20 0 -20 20v570q0 85 -40 132.5t-114 47.5q-73 0 -114 -48.5t-41 -131.5v-570q0 -20 -21 -20h-245q-21 0 -21 20v951q0 20 21 20h245q21 0 21 -20v-70h2q82 113 256 113q159 0 248.5 -100.5t89.5 -268.5v-625q0 -20 -21 -20zM694 1130q-65 0 -153 46
q-68 36 -119 36q-66 0 -146 -65q-18 -15 -18 6v147q0 22 16 41q74 74 158 74q68 0 154 -45q73 -37 119 -37q64 0 145 66q8 6 14 4t6 -10v-148q0 -23 -18 -41q-71 -74 -158 -74z" />
    <glyph glyph-name="ograve" unicode="&#xf2;" horiz-adv-x="1085" 
d="M113 256q-33 100 -33 240q0 139 33 239q43 133 156 206t274 73t274 -73t156 -206q33 -100 33 -239q0 -140 -33 -240q-43 -133 -156 -206t-274 -73t-274 73t-156 206zM696 326q19 62 19 170t-19 170q-34 106 -153 106q-120 0 -154 -106q-18 -58 -18 -170t18 -170
q34 -107 154 -107q119 0 153 107zM664 1128h-189q-24 0 -39 21l-203 266q-6 7 -2.5 14t13.5 7h237q25 0 37 -21l156 -266q9 -21 -10 -21z" />
    <glyph glyph-name="oacute" unicode="&#xf3;" horiz-adv-x="1085" 
d="M614 1128h-186q-21 0 -12 21l157 266q12 21 37 21h236q10 0 13 -7t-3 -14l-203 -266q-15 -21 -39 -21zM113 256q-33 100 -33 240q0 139 33 239q43 133 156 206t274 73t274 -73t156 -206q33 -100 33 -239q0 -140 -33 -240q-43 -133 -156 -206t-274 -73t-274 73t-156 206z
M696 326q19 62 19 170t-19 170q-34 106 -153 106q-120 0 -154 -106q-18 -58 -18 -170t18 -170q34 -107 154 -107q119 0 153 107z" />
    <glyph glyph-name="ocircumflex" unicode="&#xf4;" horiz-adv-x="1085" 
d="M113 256q-33 100 -33 240q0 139 33 239q43 133 156 206t274 73t274 -73t156 -206q33 -100 33 -239q0 -140 -33 -240q-43 -133 -156 -206t-274 -73t-274 73t-156 206zM696 326q19 62 19 170t-19 170q-34 106 -153 106q-120 0 -154 -106q-18 -58 -18 -170t18 -170
q34 -107 154 -107q119 0 153 107zM860 1126h-164q-24 0 -45 21l-106 110h-4l-109 -110q-21 -21 -45 -21h-162q-10 0 -13 7t3 14l213 268q15 21 37 21h153q24 0 39 -21l211 -268q6 -7 3 -14t-11 -7z" />
    <glyph glyph-name="otilde" unicode="&#xf5;" horiz-adv-x="1085" 
d="M113 256q-33 100 -33 240q0 139 33 239q43 133 156 206t274 73t274 -73t156 -206q33 -100 33 -239q0 -140 -33 -240q-43 -133 -156 -206t-274 -73t-274 73t-156 206zM696 326q19 62 19 170t-19 170q-34 106 -153 106q-120 0 -154 -106q-18 -58 -18 -170t18 -170
q34 -107 154 -107q119 0 153 107zM672 1130q-66 0 -154 46q-68 36 -119 36q-65 0 -145 -65q-18 -15 -18 6v147q0 22 16 41q74 74 158 74q67 0 153 -45q73 -37 119 -37q64 0 145 66q7 6 14 4t7 -10v-148q0 -22 -19 -41q-71 -74 -157 -74z" />
    <glyph glyph-name="odieresis" unicode="&#xf6;" horiz-adv-x="1085" 
d="M113 256q-33 100 -33 240q0 139 33 239q43 133 156 206t274 73t274 -73t156 -206q33 -100 33 -239q0 -140 -33 -240q-43 -133 -156 -206t-274 -73t-274 73t-156 206zM696 326q19 62 19 170t-19 170q-34 106 -153 106q-120 0 -154 -106q-18 -58 -18 -170t18 -170
q34 -107 154 -107q119 0 153 107zM842 1149h-191q-20 0 -20 20v203q0 21 20 21h191q20 0 20 -21v-203q0 -20 -20 -20zM430 1149h-188q-21 0 -21 20v203q0 21 21 21h188q21 0 21 -21v-203q0 -20 -21 -20z" />
    <glyph glyph-name="divide" unicode="&#xf7;" 
d="M414 948q0 64 45 110t110 46t110.5 -46t45.5 -110q0 -66 -45 -110.5t-111 -44.5t-110.5 44.5t-44.5 110.5zM1014 444h-889q-21 0 -21 21v201q0 20 21 20h889q20 0 20 -20v-201q0 -21 -20 -21zM414 182q0 66 44.5 111t110.5 45t111 -45t45 -111q0 -64 -45.5 -109.5
t-110.5 -45.5t-110 45.5t-45 109.5z" />
    <glyph glyph-name="oslash" unicode="&#xf8;" horiz-adv-x="1085" 
d="M545 -23q-141 0 -252 60l-57 -78q-14 -20 -39 -20h-105q-8 0 -11 6.5t3 13.5l111 154q-57 66 -80 143q-33 100 -33 240q0 139 33 239q43 133 156 206t274 73q146 0 252 -62l59 80q15 21 39 21h102q23 0 11 -21l-115 -155q56 -62 82 -142q33 -100 33 -239q0 -140 -33 -240
q-43 -133 -156 -206t-274 -73zM369 496q0 -97 8 -138l268 387q-50 29 -100 29q-124 0 -158 -106q-18 -58 -18 -172zM545 217q123 0 157 107q19 62 19 172q0 92 -8 133l-267 -385q40 -27 99 -27z" />
    <glyph glyph-name="ugrave" unicode="&#xf9;" horiz-adv-x="1124" 
d="M975 0h-246q-20 0 -20 20v72h-2q-86 -115 -254 -115q-157 0 -245.5 100.5t-88.5 268.5v625q0 20 20 20h246q21 0 21 -20v-570q0 -83 39.5 -131.5t111.5 -48.5t112 47.5t40 132.5v570q0 20 20 20h246q20 0 20 -20v-951q0 -20 -20 -20zM680 1128h-188q-24 0 -39 21
l-203 266q-6 7 -3 14t13 7h238q25 0 37 -21l155 -266q9 -21 -10 -21z" />
    <glyph glyph-name="uacute" unicode="&#xfa;" horiz-adv-x="1124" 
d="M975 0h-246q-20 0 -20 20v72h-2q-86 -115 -254 -115q-157 0 -245.5 100.5t-88.5 268.5v625q0 20 20 20h246q21 0 21 -20v-570q0 -83 39.5 -131.5t111.5 -48.5t112 47.5t40 132.5v570q0 20 20 20h246q20 0 20 -20v-951q0 -20 -20 -20zM633 1128h-187q-21 0 -12 21l158 266
q12 21 37 21h235q10 0 13 -7t-3 -14l-202 -266q-15 -21 -39 -21z" />
    <glyph glyph-name="ucircumflex" unicode="&#xfb;" horiz-adv-x="1124" 
d="M879 1126h-164q-24 0 -45 21l-107 110h-4l-108 -110q-21 -21 -45 -21h-162q-10 0 -13.5 7t2.5 14l213 268q15 21 37 21h154q24 0 39 -21l211 -268q6 -7 4 -14t-12 -7zM975 0h-246q-20 0 -20 20v72h-2q-86 -115 -254 -115q-157 0 -245.5 100.5t-88.5 268.5v625q0 20 20 20
h246q21 0 21 -20v-570q0 -83 39.5 -131.5t111.5 -48.5t112 47.5t40 132.5v570q0 20 20 20h246q20 0 20 -20v-951q0 -20 -20 -20z" />
    <glyph glyph-name="udieresis" unicode="&#xfc;" horiz-adv-x="1124" 
d="M975 0h-246q-20 0 -20 20v72h-2q-86 -115 -254 -115q-157 0 -245.5 100.5t-88.5 268.5v625q0 20 20 20h246q21 0 21 -20v-570q0 -83 39.5 -131.5t111.5 -48.5t112 47.5t40 132.5v570q0 20 20 20h246q20 0 20 -20v-951q0 -20 -20 -20zM862 1149h-190q-21 0 -21 20v203
q0 21 21 21h190q21 0 21 -21v-203q0 -20 -21 -20zM451 1149h-189q-20 0 -20 20v203q0 21 20 21h189q20 0 20 -21v-203q0 -20 -20 -20z" />
    <glyph glyph-name="yacute" unicode="&#xfd;" horiz-adv-x="1038" 
d="M266 -369h-69q-21 0 -21 21v201q0 20 21 20h43q54 0 85 23.5t50 78.5l26 74l-368 922q-6 20 16 20h262q19 0 25 -20l199 -574h4l184 574q6 20 25 20h253q23 0 17 -20l-402 -1055q-60 -159 -139 -223q-77 -62 -211 -62zM608 1128h-186q-21 0 -12 21l157 266q12 21 37 21
h236q10 0 13 -7t-3 -14l-203 -266q-15 -21 -39 -21z" />
    <glyph glyph-name="thorn" unicode="&#xfe;" horiz-adv-x="1128" 
d="M395 -369h-245q-21 0 -21 21v1720q0 21 21 21h245q21 0 21 -21v-473h2q77 115 260 115q259 0 336 -238q35 -113 35 -280q0 -168 -35 -281q-77 -238 -336 -238q-183 0 -260 115h-2v-440q0 -21 -21 -21zM586 219q119 0 153 107q19 62 19 170t-19 170q-34 106 -153 106
q-118 0 -152 -106q-18 -58 -18 -170t18 -170q34 -107 152 -107z" />
    <glyph glyph-name="ydieresis" unicode="&#xff;" horiz-adv-x="1038" 
d="M266 -369h-69q-21 0 -21 21v201q0 20 21 20h43q54 0 85 23.5t50 78.5l26 74l-368 922q-6 20 16 20h262q19 0 25 -20l199 -574h4l184 574q6 20 25 20h253q23 0 17 -20l-402 -1055q-60 -159 -139 -223q-77 -62 -211 -62zM829 1149h-190q-21 0 -21 20v203q0 21 21 21h190
q21 0 21 -21v-203q0 -20 -21 -20zM418 1149h-189q-20 0 -20 20v203q0 21 20 21h189q20 0 20 -21v-203q0 -20 -20 -20z" />
    <glyph glyph-name="Amacron" unicode="&#x100;" horiz-adv-x="1318" 
d="M35 20l479 1352q6 21 27 21h258q20 0 26 -21l471 -1352q6 -20 -14 -20h-266q-21 0 -27 20l-80 244h-487l-78 -244q-6 -20 -27 -20h-268q-20 0 -14 20zM664 1008l-158 -488h321l-157 488h-6zM954 1579h-579q-21 0 -21 20v156q0 21 21 21h579q21 0 21 -21v-156
q0 -20 -21 -20z" />
    <glyph glyph-name="amacron" unicode="&#x101;" horiz-adv-x="1081" 
d="M938 0h-227q-21 0 -21 20v66h-2q-83 -109 -272 -109q-146 0 -238 79.5t-92 224.5q0 157 109 238t303 81h176q12 0 12 12v37q0 73 -44.5 104t-158.5 31q-137 0 -221 -63q-16 -13 -26 4l-93 162q-9 18 7 28q138 99 368 99q237 0 338.5 -84t101.5 -275v-635q0 -20 -20 -20z
M502 193q184 0 184 137v67q0 13 -12 13h-139q-177 0 -177 -113q0 -104 144 -104zM827 1178h-579q-21 0 -21 20v154q0 20 21 20h579q21 0 21 -20v-154q0 -20 -21 -20z" />
    <glyph glyph-name="Abreve" unicode="&#x102;" horiz-adv-x="1318" 
d="M35 20l479 1352q6 21 27 21h258q20 0 26 -21l471 -1352q6 -20 -14 -20h-266q-21 0 -27 20l-80 244h-487l-78 -244q-6 -20 -27 -20h-268q-20 0 -14 20zM664 1008l-158 -488h321l-157 488h-6zM666 1524q-136 0 -222.5 75t-91.5 193q0 23 21 23h119q19 0 26 -23
q35 -86 148 -86q115 0 145 86q10 23 29 23h116q23 0 23 -23q-6 -118 -92.5 -193t-220.5 -75z" />
    <glyph glyph-name="abreve" unicode="&#x103;" horiz-adv-x="1081" 
d="M938 0h-227q-21 0 -21 20v66h-2q-83 -109 -272 -109q-146 0 -238 79.5t-92 224.5q0 157 109 238t303 81h176q12 0 12 12v37q0 73 -44.5 104t-158.5 31q-137 0 -221 -63q-16 -13 -26 4l-93 162q-9 18 7 28q138 99 368 99q237 0 338.5 -84t101.5 -275v-635q0 -20 -20 -20z
M502 193q184 0 184 137v67q0 13 -12 13h-139q-177 0 -177 -113q0 -104 144 -104zM539 1118q-136 0 -222.5 75t-91.5 193q0 21 21 21h119q20 0 26 -21q34 -88 148 -88q115 0 145 88q9 21 29 21h116q23 0 23 -21q-6 -118 -92.5 -193t-220.5 -75z" />
    <glyph glyph-name="Aogonek" unicode="&#x104;" horiz-adv-x="1318" 
d="M1100 -391q-97 0 -154 51t-57 137q0 114 127 203q-21 0 -27 20l-80 244h-485l-80 -244q-6 -20 -25 -20h-268q-22 0 -16 20l479 1352q6 21 27 21h258q20 0 26 -21l471 -1352q5 -13 -12 -22q-178 -88 -178 -152q0 -43 43 -43q12 0 51 17q17 9 27 -8l63 -121q10 -17 -8 -29
q-77 -53 -182 -53zM670 1008h-6l-158 -488h321z" />
    <glyph glyph-name="aogonek" unicode="&#x105;" horiz-adv-x="1081" 
d="M690 20v66h-2q-83 -109 -272 -109q-146 0 -238 79.5t-92 224.5q0 157 109 238t303 81h176q12 0 12 12v37q0 73 -44.5 104t-158.5 31q-137 0 -221 -63q-16 -13 -26 4l-93 162q-9 18 7 28q138 99 368 99q237 0 338.5 -84t101.5 -275v-635q0 -14 -12 -20q-180 -88 -180 -154
q0 -43 43 -43q12 0 51 17q17 9 27 -8l63 -121q8 -13 -8 -29q-80 -53 -182 -53q-97 0 -154 51t-57 137q0 128 145 211q-4 4 -4 12zM502 193q184 0 184 137v67q0 13 -12 13h-139q-177 0 -177 -113q0 -104 144 -104z" />
    <glyph glyph-name="Cacute" unicode="&#x106;" horiz-adv-x="1177" 
d="M135 319q-39 110 -39 377t39 377q55 167 183 254.5t313 87.5q176 0 300.5 -80t184.5 -229q10 -19 -10 -25l-223 -100q-20 -10 -29 10q-68 158 -221 158q-159 0 -209 -154q-23 -77 -23 -299t23 -299q50 -153 209 -153q153 0 221 157q9 21 29 11l223 -101q19 -5 10 -24
q-61 -149 -185 -229.5t-300 -80.5q-185 0 -313 87.5t-183 254.5zM676 1544h-191q-10 0 -12 7t4 14l195 235q15 21 39 21h245q11 0 14.5 -6.5t-3.5 -14.5l-252 -237q-19 -19 -39 -19z" />
    <glyph glyph-name="cacute" unicode="&#x107;" horiz-adv-x="985" 
d="M582 1128h-187q-21 0 -12 21l158 266q12 21 37 21h235q10 0 13 -7t-3 -14l-202 -266q-15 -21 -39 -21zM539 -23q-161 0 -273.5 73t-154.5 208q-31 91 -31 238q0 146 31 237q42 135 154.5 208t273.5 73q121 0 219 -50.5t155 -136.5q10 -17 -4 -28l-178 -117q-18 -12 -31 4
q-62 86 -157 86q-120 0 -154 -106q-18 -52 -18 -170t18 -170q34 -107 154 -107q95 0 157 86q13 16 31 4l178 -116q14 -12 4 -29q-57 -86 -155 -136.5t-219 -50.5z" />
    <glyph glyph-name="Ccircumflex" unicode="&#x108;" horiz-adv-x="1177" 
d="M135 319q-39 110 -39 377t39 377q55 167 183 254.5t313 87.5q176 0 300.5 -80t184.5 -229q10 -19 -10 -25l-223 -100q-20 -10 -29 10q-68 158 -221 158q-159 0 -209 -154q-23 -77 -23 -299t23 -299q50 -153 209 -153q153 0 221 157q9 21 29 11l223 -101q19 -5 10 -24
q-61 -149 -185 -229.5t-300 -80.5q-185 0 -313 87.5t-183 254.5zM946 1530h-164q-25 0 -45 20l-108 111h-4l-107 -111q-20 -20 -45 -20h-164q-10 0 -12 6t4 14l211 269q14 20 39 20h154q22 0 36 -20l213 -269q6 -8 3 -14t-11 -6z" />
    <glyph glyph-name="ccircumflex" unicode="&#x109;" horiz-adv-x="985" 
d="M539 -23q-161 0 -273.5 73t-154.5 208q-31 91 -31 238q0 146 31 237q42 135 154.5 208t273.5 73q121 0 219 -50.5t155 -136.5q10 -17 -4 -28l-178 -117q-18 -12 -31 4q-62 86 -157 86q-120 0 -154 -106q-18 -52 -18 -170t18 -170q34 -107 154 -107q95 0 157 86
q13 16 31 4l178 -116q14 -12 4 -29q-57 -86 -155 -136.5t-219 -50.5zM848 1126h-164q-24 0 -45 21l-107 110h-4l-108 -110q-21 -21 -45 -21h-162q-10 0 -13 7t3 14l213 268q15 21 37 21h153q24 0 39 -21l211 -268q6 -7 3 -14t-11 -7z" />
    <glyph glyph-name="Cdotaccent" unicode="&#x10a;" horiz-adv-x="1177" 
d="M135 319q-39 110 -39 377t39 377q55 167 183 254.5t313 87.5q176 0 300.5 -80t184.5 -229q10 -19 -10 -25l-223 -100q-20 -10 -29 10q-68 158 -221 158q-159 0 -209 -154q-23 -77 -23 -299t23 -299q50 -153 209 -153q153 0 221 157q9 21 29 11l223 -101q19 -5 10 -24
q-61 -149 -185 -229.5t-300 -80.5q-185 0 -313 87.5t-183 254.5zM741 1556h-235q-21 0 -21 21v201q0 20 21 20h235q21 0 21 -20v-201q0 -21 -21 -21z" />
    <glyph glyph-name="cdotaccent" unicode="&#x10b;" horiz-adv-x="985" 
d="M539 -23q-161 0 -273.5 73t-154.5 208q-31 91 -31 238q0 146 31 237q42 135 154.5 208t273.5 73q121 0 219 -50.5t155 -136.5q10 -17 -4 -28l-178 -117q-18 -12 -31 4q-62 86 -157 86q-120 0 -154 -106q-18 -52 -18 -170t18 -170q34 -107 154 -107q95 0 157 86
q13 16 31 4l178 -116q14 -12 4 -29q-57 -86 -155 -136.5t-219 -50.5zM649 1149h-235q-21 0 -21 20v203q0 21 21 21h235q21 0 21 -21v-203q0 -20 -21 -20z" />
    <glyph glyph-name="Ccaron" unicode="&#x10c;" horiz-adv-x="1177" 
d="M135 319q-39 110 -39 377t39 377q55 167 183 254.5t313 87.5q176 0 300.5 -80t184.5 -229q10 -19 -10 -25l-223 -100q-20 -10 -29 10q-68 158 -221 158q-159 0 -209 -154q-23 -77 -23 -299t23 -299q50 -153 209 -153q153 0 221 157q9 21 29 11l223 -101q19 -5 10 -24
q-61 -149 -185 -229.5t-300 -80.5q-185 0 -313 87.5t-183 254.5zM702 1524h-153q-25 0 -39 20l-211 266q-6 8 -3 14.5t11 6.5h164q24 0 45 -21l107 -110h4l108 110q21 21 45 21h164q10 0 12 -6.5t-4 -14.5l-213 -266q-14 -20 -37 -20z" />
    <glyph glyph-name="ccaron" unicode="&#x10d;" horiz-adv-x="985" 
d="M608 1120h-153q-22 0 -37 21l-213 268q-6 7 -3 14t13 7h162q24 0 45 -21l108 -111h5l106 111q21 21 45 21h164q10 0 12 -7t-4 -14l-211 -268q-15 -21 -39 -21zM539 -23q-161 0 -273.5 73t-154.5 208q-31 91 -31 238q0 146 31 237q42 135 154.5 208t273.5 73
q121 0 219 -50.5t155 -136.5q10 -17 -4 -28l-178 -117q-18 -12 -31 4q-62 86 -157 86q-120 0 -154 -106q-18 -52 -18 -170t18 -170q34 -107 154 -107q95 0 157 86q13 16 31 4l178 -116q14 -12 4 -29q-57 -86 -155 -136.5t-219 -50.5z" />
    <glyph glyph-name="Dcaron" unicode="&#x10e;" horiz-adv-x="1286" 
d="M682 1524h-154q-25 0 -39 20l-210 266q-6 8 -3 14.5t11 6.5h164q24 0 45 -21l106 -110h4l109 110q21 21 45 21h164q10 0 12 -6.5t-4 -14.5l-213 -266q-14 -20 -37 -20zM133 20v1352q0 21 21 21h518q379 0 481 -314q37 -115 37 -383t-37 -383q-102 -313 -481 -313h-518
q-21 0 -21 20zM434 1112v-831q0 -13 12 -13h158q211 0 258 154q23 71 23 274q0 204 -23 275q-46 153 -258 153h-158q-12 0 -12 -12z" />
    <glyph glyph-name="dcaron" unicode="&#x10f;" horiz-adv-x="1153" 
d="M979 0h-246q-20 0 -20 20v72h-2q-80 -115 -260 -115q-259 0 -336 238q-35 113 -35 281q0 167 35 280q77 238 336 238q180 0 260 -115h2v473q0 21 20 21h246q20 0 20 -21v-1352q0 -20 -20 -20zM543 219q117 0 151 107q19 62 19 170t-19 170q-34 106 -151 106
q-120 0 -154 -106q-18 -58 -18 -170t18 -170q34 -107 154 -107zM1090 999q-23 0 -23 23v350q0 21 20 21h197q21 0 21 -21v-172q0 -24 -17 -41l-168 -145q-15 -15 -30 -15z" />
    <glyph glyph-name="Dcroat" unicode="&#x110;" horiz-adv-x="1286" 
d="M672 0h-518q-21 0 -21 20v560q0 12 -12 12h-51q-21 0 -21 20v181q0 20 21 20h51q12 0 12 12v547q0 21 21 21h518q379 0 481 -314q37 -115 37 -383t-37 -383q-102 -313 -481 -313zM446 268h158q211 0 258 154q23 71 23 274q0 204 -23 275q-46 153 -258 153h-158
q-12 0 -12 -12v-287q0 -12 12 -12h170q21 0 21 -20v-181q0 -20 -21 -20h-170q-12 0 -12 -12v-299q0 -13 12 -13z" />
    <glyph glyph-name="dslash" unicode="&#x111;" horiz-adv-x="1128" 
d="M979 0h-246q-20 0 -20 20v72h-2q-80 -115 -260 -115q-259 0 -336 238q-35 113 -35 281q0 167 35 280q77 238 336 238q180 0 260 -115h2v199q0 12 -13 12h-211q-20 0 -20 20v158q0 21 20 21h211q13 0 13 12v51q0 21 20 21h246q20 0 20 -21v-51q0 -12 13 -12h39
q20 0 20 -21v-158q0 -20 -20 -20h-39q-13 0 -13 -12v-1078q0 -20 -20 -20zM543 219q117 0 151 107q19 62 19 170t-19 170q-34 106 -151 106q-120 0 -154 -106q-18 -58 -18 -170t18 -170q34 -107 154 -107z" />
    <glyph glyph-name="Emacron" unicode="&#x112;" horiz-adv-x="1157" 
d="M133 20v1352q0 21 21 21h893q20 0 20 -21v-219q0 -20 -20 -20h-601q-12 0 -12 -13v-276q0 -13 12 -13h500q21 0 21 -20v-217q0 -21 -21 -21h-500q-12 0 -12 -12v-289q0 -12 12 -12h601q20 0 20 -20v-220q0 -20 -20 -20h-893q-21 0 -21 20zM885 1579h-580q-20 0 -20 20
v156q0 21 20 21h580q20 0 20 -21v-156q0 -20 -20 -20z" />
    <glyph glyph-name="emacron" unicode="&#x113;" horiz-adv-x="1079" 
d="M553 -23q-167 0 -281 74t-157 209q-35 107 -35 236q0 142 33 237q43 133 155 207t271 74q160 0 272.5 -74t155.5 -205q32 -97 32 -305q0 -20 -22 -20h-600q-12 0 -12 -13q3 -31 12 -55q40 -131 205 -131q133 0 227 88q19 16 29 0l135 -127q15 -16 2 -29
q-156 -166 -422 -166zM377 600h328q12 0 12 12q0 36 -10 74q-38 109 -166 109t-166 -109q-10 -38 -10 -74q0 -12 12 -12zM827 1178h-579q-21 0 -21 20v154q0 20 21 20h579q21 0 21 -20v-154q0 -20 -21 -20z" />
    <glyph glyph-name="Ebreve" unicode="&#x114;" horiz-adv-x="1157" 
d="M133 20v1352q0 21 21 21h893q20 0 20 -21v-219q0 -20 -20 -20h-601q-12 0 -12 -13v-276q0 -13 12 -13h500q21 0 21 -20v-217q0 -21 -21 -21h-500q-12 0 -12 -12v-289q0 -12 12 -12h601q20 0 20 -20v-220q0 -20 -20 -20h-893q-21 0 -21 20zM594 1524q-135 0 -221.5 75
t-91.5 193q0 23 20 23h119q19 0 26 -23q35 -86 148 -86q115 0 145 86q10 23 29 23h117q22 0 22 -23q-6 -118 -92.5 -193t-220.5 -75z" />
    <glyph glyph-name="ebreve" unicode="&#x115;" horiz-adv-x="1079" 
d="M553 -23q-167 0 -281 74t-157 209q-35 107 -35 236q0 142 33 237q43 133 155 207t271 74q160 0 272.5 -74t155.5 -205q32 -97 32 -305q0 -20 -22 -20h-600q-12 0 -12 -13q3 -31 12 -55q40 -131 205 -131q133 0 227 88q19 16 29 0l135 -127q15 -16 2 -29
q-156 -166 -422 -166zM377 600h328q12 0 12 12q0 36 -10 74q-38 109 -166 109t-166 -109q-10 -38 -10 -74q0 -12 12 -12zM539 1118q-136 0 -222.5 75t-91.5 193q0 21 21 21h119q20 0 26 -21q34 -88 148 -88q115 0 145 88q9 21 29 21h116q23 0 23 -21q-6 -118 -92.5 -193
t-220.5 -75z" />
    <glyph glyph-name="Edotaccent" unicode="&#x116;" horiz-adv-x="1157" 
d="M133 20v1352q0 21 21 21h893q20 0 20 -21v-219q0 -20 -20 -20h-601q-12 0 -12 -13v-276q0 -13 12 -13h500q21 0 21 -20v-217q0 -21 -21 -21h-500q-12 0 -12 -12v-289q0 -12 12 -12h601q20 0 20 -20v-220q0 -20 -20 -20h-893q-21 0 -21 20zM711 1556h-236q-20 0 -20 21
v201q0 20 20 20h236q20 0 20 -20v-201q0 -21 -20 -21z" />
    <glyph glyph-name="edotaccent" unicode="&#x117;" horiz-adv-x="1079" 
d="M553 -23q-167 0 -281 74t-157 209q-35 107 -35 236q0 142 33 237q43 133 155 207t271 74q160 0 272.5 -74t155.5 -205q32 -97 32 -305q0 -20 -22 -20h-600q-12 0 -12 -13q3 -31 12 -55q40 -131 205 -131q133 0 227 88q19 16 29 0l135 -127q15 -16 2 -29
q-156 -166 -422 -166zM377 600h328q12 0 12 12q0 36 -10 74q-38 109 -166 109t-166 -109q-10 -38 -10 -74q0 -12 12 -12zM655 1149h-235q-21 0 -21 20v203q0 21 21 21h235q21 0 21 -21v-203q0 -20 -21 -20z" />
    <glyph glyph-name="Eogonek" unicode="&#x118;" horiz-adv-x="1157" 
d="M848 -391q-97 0 -154 51t-57 137q0 114 121 203h-604q-21 0 -21 20v1352q0 21 21 21h893q20 0 20 -21v-219q0 -20 -20 -20h-601q-12 0 -12 -13v-276q0 -13 12 -13h500q21 0 21 -20v-217q0 -21 -21 -21h-500q-12 0 -12 -12v-289q0 -12 12 -12h601q20 0 20 -20v-220
q0 -20 -20 -20h-21q-172 -88 -172 -154q0 -43 43 -43q12 0 51 17q18 11 27 -8l63 -121q11 -18 -8 -27q-76 -55 -182 -55z" />
    <glyph glyph-name="eogonek" unicode="&#x119;" horiz-adv-x="1079" 
d="M705 -391q-97 0 -154 51t-57 137q0 93 75 180h-26q-164 1 -274.5 75t-153.5 208q-35 107 -35 236q0 142 33 237q43 133 155 207t271 74q160 0 272.5 -74t155.5 -205q32 -97 32 -305q0 -20 -22 -20h-600q-12 0 -12 -13q3 -31 12 -55q40 -131 205 -131q133 0 227 88
q19 16 29 0l135 -127q15 -16 2 -29q-35 -37 -92 -77q-172 -147 -172 -220q0 -43 43 -43q18 0 49 17q16 8 26 -8l66 -121q8 -13 -8 -29q-80 -53 -182 -53zM377 600h328q12 0 12 12q0 36 -10 74q-38 109 -166 109t-166 -109q-10 -38 -10 -74q0 -12 12 -12z" />
    <glyph glyph-name="Ecaron" unicode="&#x11a;" horiz-adv-x="1157" 
d="M674 1524h-154q-25 0 -39 20l-211 266q-6 8 -2.5 14.5t11.5 6.5h163q24 0 45 -21l107 -110h4l109 110q21 21 45 21h163q10 0 12.5 -6.5t-3.5 -14.5l-213 -266q-14 -20 -37 -20zM133 20v1352q0 21 21 21h893q20 0 20 -21v-219q0 -20 -20 -20h-601q-12 0 -12 -13v-276
q0 -13 12 -13h500q21 0 21 -20v-217q0 -21 -21 -21h-500q-12 0 -12 -12v-289q0 -12 12 -12h601q20 0 20 -20v-220q0 -20 -20 -20h-893q-21 0 -21 20z" />
    <glyph glyph-name="ecaron" unicode="&#x11b;" horiz-adv-x="1079" 
d="M553 -23q-167 0 -281 74t-157 209q-35 107 -35 236q0 142 33 237q43 133 155 207t271 74q160 0 272.5 -74t155.5 -205q32 -97 32 -305q0 -20 -22 -20h-600q-12 0 -12 -13q3 -31 12 -55q40 -131 205 -131q133 0 227 88q19 16 29 0l135 -127q15 -16 2 -29
q-156 -166 -422 -166zM377 600h328q12 0 12 12q0 36 -10 74q-38 109 -166 109t-166 -109q-10 -38 -10 -74q0 -12 12 -12zM614 1120h-153q-22 0 -37 21l-213 268q-6 7 -3 14t13 7h162q24 0 45 -21l109 -111h4l106 111q21 21 45 21h164q8 0 11 -7t-3 -14l-211 -268
q-15 -21 -39 -21z" />
    <glyph glyph-name="Gcircumflex" unicode="&#x11c;" horiz-adv-x="1286" 
d="M135 315q-39 118 -39 381t39 381q54 164 187 251t325 87q183 0 313.5 -80.5t182.5 -216.5q10 -22 -8 -31l-220 -92q-21 -6 -28 11q-82 143 -240 143q-173 0 -223 -156q-23 -74 -23 -297q0 -225 23 -299q50 -153 227 -153q81 0 142 38.5t81 104.5q17 63 17 137
q0 13 -12 13h-189q-20 0 -20 20v197q0 20 20 20h479q21 0 21 -20v-115q0 -203 -35 -313q-51 -165 -186 -257t-322 -92q-192 0 -325 87t-187 251zM961 1530h-164q-25 0 -45 20l-109 111h-4l-107 -111q-20 -20 -45 -20h-163q-8 0 -11.5 6t2.5 14l211 269q14 20 39 20h154
q23 0 37 -20l213 -269q6 -8 4 -14t-12 -6z" />
    <glyph glyph-name="gcircumflex" unicode="&#x11d;" horiz-adv-x="1112" 
d="M489 -391q-110 0 -217 43q-103 40 -157 106q-13 16 2 31l145 148q16 15 31 0q96 -87 205 -87q198 0 198 220v84h-2q-71 -115 -254 -115q-254 0 -331 240q-33 103 -33 247q0 148 33 248q77 240 331 240q183 0 254 -115h2v72q0 20 21 20h246q20 0 20 -20v-865
q0 -497 -494 -497zM530 281q114 0 148 106q18 56 18 139q0 84 -18 140q-34 106 -148 106q-110 0 -147 -106q-17 -60 -17 -139.5t17 -139.5q37 -106 147 -106zM856 1126h-164q-24 0 -45 21l-106 110h-4l-109 -110q-21 -21 -45 -21h-162q-10 0 -13 7t3 14l213 268q15 21 37 21
h153q24 0 39 -21l211 -268q6 -7 3 -14t-11 -7z" />
    <glyph glyph-name="Gbreve" unicode="&#x11e;" horiz-adv-x="1286" 
d="M643 1524q-135 0 -221.5 75t-91.5 193q0 23 20 23h119q20 0 27 -23q35 -86 147 -86q115 0 145 86q10 23 29 23h117q22 0 22 -23q-6 -118 -92.5 -193t-220.5 -75zM135 315q-39 118 -39 381t39 381q54 164 187 251t325 87q183 0 313.5 -80.5t182.5 -216.5q10 -22 -8 -31
l-220 -92q-21 -6 -28 11q-82 143 -240 143q-173 0 -223 -156q-23 -74 -23 -297q0 -225 23 -299q50 -153 227 -153q81 0 142 38.5t81 104.5q17 63 17 137q0 13 -12 13h-189q-20 0 -20 20v197q0 20 20 20h479q21 0 21 -20v-115q0 -203 -35 -313q-51 -165 -186 -257t-322 -92
q-192 0 -325 87t-187 251z" />
    <glyph glyph-name="gbreve" unicode="&#x11f;" horiz-adv-x="1112" 
d="M489 -391q-110 0 -217 43q-103 40 -157 106q-13 16 2 31l145 148q16 15 31 0q96 -87 205 -87q198 0 198 220v84h-2q-71 -115 -254 -115q-254 0 -331 240q-33 103 -33 247q0 148 33 248q77 240 331 240q183 0 254 -115h2v72q0 20 21 20h246q20 0 20 -20v-865
q0 -497 -494 -497zM530 281q114 0 148 106q18 56 18 139q0 84 -18 140q-34 106 -148 106q-110 0 -147 -106q-17 -60 -17 -139.5t17 -139.5q37 -106 147 -106zM539 1118q-136 0 -222.5 75t-91.5 193q0 21 21 21h119q20 0 26 -21q34 -88 148 -88q115 0 145 88q9 21 29 21h116
q23 0 23 -21q-6 -118 -92.5 -193t-220.5 -75z" />
    <glyph glyph-name="Gdotaccent" unicode="&#x120;" horiz-adv-x="1286" 
d="M135 315q-39 118 -39 381t39 381q54 164 187 251t325 87q183 0 313.5 -80.5t182.5 -216.5q10 -22 -8 -31l-220 -92q-21 -6 -28 11q-82 143 -240 143q-173 0 -223 -156q-23 -74 -23 -297q0 -225 23 -299q50 -153 227 -153q81 0 142 38.5t81 104.5q17 63 17 137
q0 13 -12 13h-189q-20 0 -20 20v197q0 20 20 20h479q21 0 21 -20v-115q0 -203 -35 -313q-51 -165 -186 -257t-322 -92q-192 0 -325 87t-187 251zM760 1556h-236q-20 0 -20 21v201q0 20 20 20h236q20 0 20 -20v-201q0 -21 -20 -21z" />
    <glyph glyph-name="gdotaccent" unicode="&#x121;" horiz-adv-x="1112" 
d="M489 -391q-110 0 -217 43q-103 40 -157 106q-13 16 2 31l145 148q16 15 31 0q96 -87 205 -87q198 0 198 220v84h-2q-71 -115 -254 -115q-254 0 -331 240q-33 103 -33 247q0 148 33 248q77 240 331 240q183 0 254 -115h2v72q0 20 21 20h246q20 0 20 -20v-865
q0 -497 -494 -497zM530 281q114 0 148 106q18 56 18 139q0 84 -18 140q-34 106 -148 106q-110 0 -147 -106q-17 -60 -17 -139.5t17 -139.5q37 -106 147 -106zM655 1149h-235q-21 0 -21 20v203q0 21 21 21h235q21 0 21 -21v-203q0 -20 -21 -20z" />
    <glyph glyph-name="Gcommaaccent" unicode="&#x122;" horiz-adv-x="1286" 
d="M135 315q-39 118 -39 381t39 381q54 164 187 251t325 87q183 0 313.5 -80.5t182.5 -216.5q10 -22 -8 -31l-220 -92q-21 -6 -28 11q-82 143 -240 143q-173 0 -223 -156q-23 -74 -23 -297q0 -225 23 -299q50 -153 227 -153q81 0 142 38.5t81 104.5q17 63 17 137
q0 13 -12 13h-189q-20 0 -20 20v197q0 20 20 20h479q21 0 21 -20v-115q0 -203 -35 -313q-51 -165 -186 -257t-322 -92q-192 0 -325 87t-187 251zM539 -487q-23 0 -23 24v340q0 21 21 21h208q21 0 21 -21v-162q0 -25 -16 -41l-179 -145q-22 -16 -32 -16z" />
    <glyph glyph-name="gcommaaccent" unicode="&#x123;" horiz-adv-x="1112" 
d="M489 -391q-110 0 -217 43q-103 40 -157 106q-13 16 2 31l145 148q16 15 31 0q96 -87 205 -87q198 0 198 220v84h-2q-71 -115 -254 -115q-254 0 -331 240q-33 103 -33 247q0 148 33 248q77 240 331 240q183 0 254 -115h2v72q0 20 21 20h246q20 0 20 -20v-865
q0 -497 -494 -497zM530 281q114 0 148 106q18 56 18 139q0 84 -18 140q-34 106 -148 106q-110 0 -147 -106q-17 -60 -17 -139.5t17 -139.5q37 -106 147 -106zM643 1149h-209q-20 0 -20 20v162q0 25 16 41l178 148q14 14 33 14q23 0 23 -25v-340q0 -20 -21 -20z" />
    <glyph glyph-name="Hcircumflex" unicode="&#x124;" horiz-adv-x="1347" 
d="M133 20v1352q0 21 21 21h260q20 0 20 -21v-522q0 -12 12 -12h455q12 0 12 12v522q0 21 21 21h260q20 0 20 -21v-1352q0 -20 -20 -20h-260q-21 0 -21 20v537q0 12 -12 12h-455q-12 0 -12 -12v-537q0 -20 -20 -20h-260q-21 0 -21 20zM991 1530h-164q-25 0 -45 20l-108 111
h-4l-107 -111q-20 -20 -45 -20h-164q-10 0 -12 6t4 14l211 269q14 20 39 20h154q22 0 36 -20l213 -269q6 -8 3 -14t-11 -6z" />
    <glyph glyph-name="hcircumflex" unicode="&#x125;" horiz-adv-x="1132" 
d="M991 0h-246q-20 0 -20 20v570q0 85 -40 132.5t-114 47.5q-73 0 -114 -48.5t-41 -131.5v-570q0 -20 -21 -20h-245q-21 0 -21 20v1352q0 21 21 21h245q21 0 21 -21v-471h2q82 113 256 113q159 0 248.5 -100.5t89.5 -268.5v-625q0 -20 -21 -20zM895 1530h-164q-25 0 -45 20
l-108 111h-5l-106 -111q-20 -20 -45 -20h-164q-8 0 -11 6t3 14l211 269q14 20 39 20h153q23 0 37 -20l213 -269q6 -8 4 -14t-12 -6z" />
    <glyph glyph-name="Hbar" unicode="&#x126;" horiz-adv-x="1347" 
d="M1194 0h-260q-21 0 -21 20v537q0 12 -12 12h-455q-12 0 -12 -12v-537q0 -20 -20 -20h-260q-21 0 -21 20v984q0 12 -12 12h-66q-20 0 -20 20v152q0 20 20 20h66q12 0 12 13v151q0 21 21 21h260q20 0 20 -21v-151q0 -13 12 -13h455q12 0 12 13v151q0 21 21 21h260
q20 0 20 -21v-151q0 -13 13 -13h65q21 0 21 -20v-152q0 -20 -21 -20h-65q-13 0 -13 -12v-984q0 -20 -20 -20zM446 838h455q12 0 12 12v154q0 12 -12 12h-455q-12 0 -12 -12v-154q0 -12 12 -12z" />
    <glyph glyph-name="hbar" unicode="&#x127;" horiz-adv-x="1132" 
d="M991 0h-246q-20 0 -20 20v570q0 85 -40 132.5t-114 47.5q-73 0 -114 -48.5t-41 -131.5v-570q0 -20 -21 -20h-245q-21 0 -21 20v1078q0 12 -12 12h-39q-21 0 -21 20v158q0 21 21 21h39q12 0 12 12v51q0 21 21 21h245q21 0 21 -21v-51q0 -12 12 -12h211q20 0 20 -21v-158
q0 -20 -20 -20h-211q-12 0 -12 -12v-197h2q82 113 256 113q159 0 248.5 -100.5t89.5 -268.5v-625q0 -20 -21 -20z" />
    <glyph glyph-name="Itilde" unicode="&#x128;" horiz-adv-x="567" 
d="M414 1532q-69 0 -154 43q-64 37 -119 37q-63 0 -145 -64q-19 -16 -19 4v148q0 23 17 43q72 72 158 72q68 0 153 -43q67 -37 119 -37q64 0 145 63q7 6 14 4t7 -8v-147q0 -24 -19 -43q-69 -72 -157 -72zM133 20v1352q0 21 21 21h260q20 0 20 -21v-1352q0 -20 -20 -20h-260
q-21 0 -21 20z" />
    <glyph glyph-name="itilde" unicode="&#x129;" horiz-adv-x="544" 
d="M403 1130q-65 0 -153 46q-68 36 -119 36q-65 0 -145 -65q-19 -16 -19 6v147q0 21 17 41q74 74 157 74q68 0 154 -45q73 -37 119 -37q64 0 145 66q7 6 14 4t7 -10v-148q0 -22 -19 -41q-71 -74 -158 -74zM395 0h-245q-21 0 -21 20v951q0 20 21 20h245q21 0 21 -20v-951
q0 -20 -21 -20z" />
    <glyph glyph-name="Imacron" unicode="&#x12a;" horiz-adv-x="567" 
d="M133 20v1352q0 21 21 21h260q20 0 20 -21v-1352q0 -20 -20 -20h-260q-21 0 -21 20zM573 1579h-579q-21 0 -21 20v156q0 21 21 21h579q21 0 21 -21v-156q0 -20 -21 -20z" />
    <glyph glyph-name="imacron" unicode="&#x12b;" horiz-adv-x="544" 
d="M395 0h-245q-21 0 -21 20v951q0 20 21 20h245q21 0 21 -20v-951q0 -20 -21 -20zM563 1178h-579q-21 0 -21 20v154q0 20 21 20h579q21 0 21 -20v-154q0 -20 -21 -20z" />
    <glyph glyph-name="Ibreve" unicode="&#x12c;" horiz-adv-x="567" 
d="M133 20v1352q0 21 21 21h260q20 0 20 -21v-1352q0 -20 -20 -20h-260q-21 0 -21 20zM283 1524q-136 0 -222.5 75t-91.5 193q0 23 21 23h119q19 0 26 -23q35 -86 148 -86q115 0 145 86q10 23 29 23h116q23 0 23 -23q-6 -118 -92.5 -193t-220.5 -75z" />
    <glyph glyph-name="ibreve" unicode="&#x12d;" horiz-adv-x="544" 
d="M272 1118q-135 0 -221.5 75t-91.5 193q0 21 21 21h118q21 0 27 -21q34 -88 147 -88q116 0 146 88q9 21 28 21h117q23 0 23 -21q-6 -118 -93 -193t-221 -75zM395 0h-245q-21 0 -21 20v951q0 20 21 20h245q21 0 21 -20v-951q0 -20 -21 -20z" />
    <glyph glyph-name="Iogonek" unicode="&#x12e;" horiz-adv-x="567" 
d="M264 -391q-97 0 -154 51t-57 137q0 100 109 203h-8q-21 0 -21 20v1352q0 21 21 21h260q20 0 20 -21v-1352q0 -11 -12 -20q-88 -55 -120 -88.5t-32 -65.5q0 -43 43 -43q21 0 52 17q16 8 26 -8l64 -121q7 -12 -9 -29q-80 -53 -182 -53z" />
    <glyph glyph-name="iogonek" unicode="&#x12f;" horiz-adv-x="544" 
d="M395 1149h-245q-21 0 -21 20v203q0 21 21 21h245q21 0 21 -21v-203q0 -20 -21 -20zM254 -391q-97 0 -154 51t-57 137q0 113 102 205h-2q-14 3 -14 18v951q0 20 21 20h245q21 0 21 -20v-951q0 -16 -15 -22q-141 -92 -141 -152q0 -43 43 -43q20 0 51 17q18 11 27 -8
l63 -121q8 -13 -8 -29q-80 -53 -182 -53z" />
    <glyph glyph-name="Idot" unicode="&#x130;" horiz-adv-x="567" 
d="M133 20v1352q0 21 21 21h260q20 0 20 -21v-1352q0 -20 -20 -20h-260q-21 0 -21 20zM401 1556h-235q-21 0 -21 21v201q0 20 21 20h235q21 0 21 -20v-201q0 -21 -21 -21z" />
    <glyph glyph-name="dotlessi" unicode="&#x131;" horiz-adv-x="544" 
d="M395 0h-245q-21 0 -21 20v951q0 20 21 20h245q21 0 21 -20v-951q0 -20 -21 -20z" />
    <glyph glyph-name="Jcircumflex" unicode="&#x134;" horiz-adv-x="1067" 
d="M1112 1530h-164q-25 0 -45 20l-108 111h-4l-107 -111q-20 -20 -45 -20h-164q-10 0 -12 6t4 14l211 269q14 20 39 20h153q23 0 37 -20l213 -269q6 -8 3 -14t-11 -6zM53 156q-10 16 2 28l191 146q15 9 28 -4q70 -82 170 -82q99 0 152 62t53 179v887q0 21 21 21h260
q20 0 20 -21v-872q0 -252 -132.5 -387.5t-375.5 -135.5q-123 0 -231 50t-158 129z" />
    <glyph glyph-name="jcircumflex" unicode="&#x135;" horiz-adv-x="559" 
d="M57 -369h-67q-21 0 -21 21v201q0 20 21 20h41q62 0 86 24.5t24 90.5v983q0 20 21 20h246q20 0 20 -20v-981q0 -359 -371 -359zM602 1126h-164q-24 0 -45 21l-106 110h-4l-109 -110q-21 -21 -45 -21h-162q-10 0 -13 7t3 14l213 268q15 21 37 21h153q24 0 39 -21l211 -268
q6 -7 4 -14t-12 -7z" />
    <glyph glyph-name="Kcommaaccent" unicode="&#x136;" horiz-adv-x="1320" 
d="M133 20v1352q0 21 21 21h260q20 0 20 -21v-602l463 604q13 19 35 19h297q11 0 13 -8.5t-5 -18.5l-422 -528l461 -813q16 -25 -12 -25h-301q-22 0 -31 18l-316 586l-182 -229v-355q0 -20 -20 -20h-260q-21 0 -21 20zM561 -487q-22 0 -22 24v340q0 21 20 21h209
q20 0 20 -21v-162q0 -25 -16 -41l-178 -145q-22 -16 -33 -16z" />
    <glyph glyph-name="kcommaaccent" unicode="&#x137;" horiz-adv-x="1087" 
d="M1042 0h-272q-20 0 -31 20l-221 400l-102 -127v-273q0 -20 -21 -20h-245q-21 0 -21 20v1352q0 21 21 21h245q21 0 21 -21v-751l284 350q17 20 39 20h262q8 0 11.5 -7t-2.5 -13l-303 -350l346 -601q4 -6 0.5 -13t-11.5 -7zM451 -487q-23 0 -23 24v340q0 21 21 21h208
q21 0 21 -21v-162q0 -25 -16 -41l-179 -145q-22 -16 -32 -16z" />
    <glyph glyph-name="kgreenlandic" unicode="&#x138;" horiz-adv-x="1087" 
d="M1042 0h-272q-20 0 -31 20l-221 400l-102 -127v-273q0 -20 -21 -20h-245q-21 0 -21 20v951q0 20 21 20h245q21 0 21 -20v-350l284 350q17 20 39 20h262q8 0 11.5 -7t-2.5 -13l-303 -350l346 -601q4 -6 0.5 -13t-11.5 -7z" />
    <glyph glyph-name="Lacute" unicode="&#x139;" horiz-adv-x="1126" 
d="M391 1544h-190q-8 0 -11 7t3 14l194 235q15 21 39 21h246q10 0 13 -6.5t-3 -14.5l-252 -237q-19 -19 -39 -19zM133 20v1352q0 21 21 21h260q20 0 20 -21v-1091q0 -13 12 -13h615q20 0 20 -20v-228q0 -20 -20 -20h-907q-21 0 -21 20z" />
    <glyph glyph-name="lacute" unicode="&#x13a;" horiz-adv-x="622" 
d="M541 -12h-109q-164 0 -235.5 74.5t-71.5 240.5v1069q0 21 20 21h246q21 0 21 -21v-1046q0 -95 86 -95h43q20 0 20 -20v-203q0 -20 -20 -20zM369 1544h-191q-10 0 -12 7t4 14l195 235q15 21 38 21h246q11 0 14 -6.5t-4 -14.5l-251 -237q-19 -19 -39 -19z" />
    <glyph glyph-name="Lcommaaccent" unicode="&#x13b;" horiz-adv-x="1126" 
d="M133 20v1352q0 21 21 21h260q20 0 20 -21v-1091q0 -13 12 -13h615q20 0 20 -20v-228q0 -20 -20 -20h-907q-21 0 -21 20zM487 -487q-22 0 -22 24v340q0 21 20 21h209q21 0 21 -21v-162q0 -24 -17 -41l-178 -145q-22 -16 -33 -16z" />
    <glyph glyph-name="lcommaaccent" unicode="&#x13c;" horiz-adv-x="622" 
d="M541 -12h-109q-164 0 -235.5 74.5t-71.5 240.5v1069q0 21 20 21h246q21 0 21 -21v-1046q0 -95 86 -95h43q20 0 20 -20v-203q0 -20 -20 -20zM250 -487q-23 0 -23 24v340q0 21 21 21h209q20 0 20 -21v-162q0 -25 -16 -41l-178 -145q-22 -16 -33 -16z" />
    <glyph glyph-name="Lcaron" unicode="&#x13d;" horiz-adv-x="1126" 
d="M133 20v1352q0 21 21 21h260q20 0 20 -21v-1091q0 -13 12 -13h615q20 0 20 -20v-228q0 -20 -20 -20h-907q-21 0 -21 20zM573 999q-22 0 -22 23v350q0 21 20 21h197q20 0 20 -21v-172q0 -25 -16 -41l-168 -145q-15 -15 -31 -15z" />
    <glyph glyph-name="lcaron" unicode="&#x13e;" horiz-adv-x="624" 
d="M541 -12h-109q-164 0 -235.5 74.5t-71.5 240.5v1069q0 21 20 21h246q21 0 21 -21v-1046q0 -95 86 -95h43q20 0 20 -20v-203q0 -20 -20 -20zM504 999q-23 0 -23 23v350q0 21 21 21h196q21 0 21 -21v-172q0 -24 -17 -41l-167 -145q-15 -15 -31 -15z" />
    <glyph glyph-name="Ldot" unicode="&#x13f;" horiz-adv-x="1126" 
d="M133 20v1352q0 21 21 21h260q20 0 20 -21v-1091q0 -13 12 -13h615q20 0 20 -20v-228q0 -20 -20 -20h-907q-21 0 -21 20zM969 541h-244q-20 0 -20 20v244q0 20 20 20h244q20 0 20 -20v-244q0 -20 -20 -20z" />
    <glyph glyph-name="ldot" unicode="&#x140;" horiz-adv-x="792" 
d="M541 -12h-109q-164 0 -235.5 74.5t-71.5 240.5v1069q0 21 20 21h246q21 0 21 -21v-1046q0 -95 86 -95h43q20 0 20 -20v-203q0 -20 -20 -20zM788 557h-243q-21 0 -21 21v243q0 21 21 21h243q21 0 21 -21v-243q0 -21 -21 -21z" />
    <glyph glyph-name="Lslash" unicode="&#x141;" horiz-adv-x="1126" 
d="M1061 0h-907q-21 0 -21 20v496l-94 -47q-21 -9 -21 12v193q0 19 21 28l94 48v622q0 21 21 21h260q20 0 20 -21v-483l260 133q21 9 21 -12v-193q0 -20 -21 -29l-260 -133v-374q0 -13 12 -13h615q20 0 20 -20v-228q0 -20 -20 -20z" />
    <glyph glyph-name="lslash" unicode="&#x142;" horiz-adv-x="624" 
d="M541 741l-129 -65v-350q0 -95 86 -95h43q20 0 20 -20v-203q0 -20 -20 -20h-109q-164 0 -235.5 74.5t-71.5 240.5v242l-66 -33q-20 -9 -20 12v183q0 21 20 30l66 33v602q0 21 20 21h246q21 0 21 -21v-471l129 66q20 9 20 -13v-182q0 -22 -20 -31z" />
    <glyph glyph-name="Nacute" unicode="&#x143;" horiz-adv-x="1341" 
d="M702 1544h-190q-8 0 -11 7t3 14l194 235q15 21 39 21h246q10 0 13 -6.5t-3 -14.5l-252 -237q-19 -19 -39 -19zM133 20v1352q0 21 21 21h245q23 0 35 -21l492 -876h10v876q0 21 20 21h232q20 0 20 -21v-1352q0 -20 -20 -20h-244q-24 0 -35 20l-493 875h-10v-875
q0 -20 -21 -20h-231q-21 0 -21 20z" />
    <glyph glyph-name="nacute" unicode="&#x144;" horiz-adv-x="1132" 
d="M598 1128h-186q-22 0 -13 21l158 266q12 21 37 21h235q10 0 13.5 -7t-2.5 -14l-203 -266q-15 -21 -39 -21zM991 0h-246q-20 0 -20 20v570q0 85 -40 132.5t-114 47.5q-73 0 -114 -48.5t-41 -131.5v-570q0 -20 -21 -20h-245q-21 0 -21 20v951q0 20 21 20h245q21 0 21 -20
v-70h2q82 113 256 113q159 0 248.5 -100.5t89.5 -268.5v-625q0 -20 -21 -20z" />
    <glyph glyph-name="Ncommaaccent" unicode="&#x145;" horiz-adv-x="1341" 
d="M133 20v1352q0 21 21 21h245q23 0 35 -21l492 -876h10v876q0 21 20 21h232q20 0 20 -21v-1352q0 -20 -20 -20h-244q-24 0 -35 20l-493 875h-10v-875q0 -20 -21 -20h-231q-21 0 -21 20zM567 -487q-22 0 -22 24v340q0 21 20 21h209q21 0 21 -21v-162q0 -24 -17 -41
l-178 -145q-22 -16 -33 -16z" />
    <glyph glyph-name="ncommaaccent" unicode="&#x146;" horiz-adv-x="1132" 
d="M991 0h-246q-20 0 -20 20v570q0 85 -40 132.5t-114 47.5q-73 0 -114 -48.5t-41 -131.5v-570q0 -20 -21 -20h-245q-21 0 -21 20v951q0 20 21 20h245q21 0 21 -20v-70h2q82 113 256 113q159 0 248.5 -100.5t89.5 -268.5v-625q0 -20 -21 -20zM465 -487q-23 0 -23 24v340
q0 21 21 21h209q20 0 20 -21v-162q0 -25 -16 -41l-178 -145q-22 -16 -33 -16z" />
    <glyph glyph-name="Ncaron" unicode="&#x147;" horiz-adv-x="1341" 
d="M739 1524h-153q-25 0 -39 20l-211 266q-6 8 -3 14.5t11 6.5h164q24 0 45 -21l106 -110h5l108 110q21 21 45 21h164q10 0 12 -6.5t-4 -14.5l-213 -266q-14 -20 -37 -20zM133 20v1352q0 21 21 21h245q23 0 35 -21l492 -876h10v876q0 21 20 21h232q20 0 20 -21v-1352
q0 -20 -20 -20h-244q-24 0 -35 20l-493 875h-10v-875q0 -20 -21 -20h-231q-21 0 -21 20z" />
    <glyph glyph-name="ncaron" unicode="&#x148;" horiz-adv-x="1132" 
d="M641 1120h-154q-21 0 -36 21l-213 268q-6 7 -3 14t13 7h162q24 0 45 -21l108 -111h4l107 111q21 21 45 21h164q10 0 12 -7t-4 -14l-211 -268q-15 -21 -39 -21zM991 0h-246q-20 0 -20 20v570q0 85 -40 132.5t-114 47.5q-73 0 -114 -48.5t-41 -131.5v-570q0 -20 -21 -20
h-245q-21 0 -21 20v951q0 20 21 20h245q21 0 21 -20v-70h2q82 113 256 113q159 0 248.5 -100.5t89.5 -268.5v-625q0 -20 -21 -20z" />
    <glyph glyph-name="Eng" unicode="&#x14a;" horiz-adv-x="1341" 
d="M797 -377h-68q-20 0 -20 21v219q0 20 20 20h39q143 0 152 115v6l-504 891h-10v-875q0 -20 -21 -20h-231q-21 0 -21 20v1352q0 21 21 21h245q26 0 35 -21l492 -876h10v876q0 21 20 21h232q20 0 20 -21v-1333q0 -416 -411 -416z" />
    <glyph glyph-name="eng" unicode="&#x14b;" horiz-adv-x="1132" 
d="M645 -369h-67q-21 0 -21 21v201q0 20 21 20h38q61 0 85 24t24 89v604q0 85 -40 132.5t-114 47.5q-73 0 -114 -48.5t-41 -131.5v-570q0 -20 -21 -20h-245q-21 0 -21 20v951q0 20 21 20h245q21 0 21 -20v-70h2q85 113 256 113q159 0 248.5 -100.5t89.5 -268.5v-655
q0 -184 -91 -271.5t-276 -87.5z" />
    <glyph glyph-name="Omacron" unicode="&#x14c;" horiz-adv-x="1286" 
d="M135 315q-39 118 -39 381t39 381q53 164 186.5 251t321.5 87t321.5 -87t186.5 -251q39 -118 39 -381t-39 -381q-53 -164 -186.5 -251t-321.5 -87t-321.5 87t-186.5 251zM862 397q23 74 23 299t-23 299q-50 154 -219 154t-219 -154q-23 -74 -23 -299t23 -299
q50 -153 219 -153t219 153zM932 1579h-580q-20 0 -20 20v156q0 21 20 21h580q20 0 20 -21v-156q0 -20 -20 -20z" />
    <glyph glyph-name="omacron" unicode="&#x14d;" horiz-adv-x="1085" 
d="M113 256q-33 100 -33 240q0 139 33 239q43 133 156 206t274 73t274 -73t156 -206q33 -100 33 -239q0 -140 -33 -240q-43 -133 -156 -206t-274 -73t-274 73t-156 206zM696 326q19 62 19 170t-19 170q-34 106 -153 106q-120 0 -154 -106q-18 -58 -18 -170t18 -170
q34 -107 154 -107q119 0 153 107zM831 1178h-579q-21 0 -21 20v154q0 20 21 20h579q21 0 21 -20v-154q0 -20 -21 -20z" />
    <glyph glyph-name="Obreve" unicode="&#x14e;" horiz-adv-x="1286" 
d="M643 1524q-135 0 -221.5 75t-91.5 193q0 23 20 23h119q20 0 27 -23q35 -86 147 -86q115 0 145 86q10 23 29 23h117q22 0 22 -23q-6 -118 -92.5 -193t-220.5 -75zM135 315q-39 118 -39 381t39 381q53 164 186.5 251t321.5 87t321.5 -87t186.5 -251q39 -118 39 -381
t-39 -381q-53 -164 -186.5 -251t-321.5 -87t-321.5 87t-186.5 251zM862 397q23 74 23 299t-23 299q-50 154 -219 154t-219 -154q-23 -74 -23 -299t23 -299q50 -153 219 -153t219 153z" />
    <glyph glyph-name="obreve" unicode="&#x14f;" horiz-adv-x="1085" 
d="M113 256q-33 100 -33 240q0 139 33 239q43 133 156 206t274 73t274 -73t156 -206q33 -100 33 -239q0 -140 -33 -240q-43 -133 -156 -206t-274 -73t-274 73t-156 206zM696 326q19 62 19 170t-19 170q-34 106 -153 106q-120 0 -154 -106q-18 -58 -18 -170t18 -170
q34 -107 154 -107q119 0 153 107zM543 1118q-136 0 -222.5 75t-91.5 193q0 21 21 21h119q20 0 26 -21q34 -88 148 -88q115 0 145 88q9 21 29 21h117q22 0 22 -21q-6 -118 -92.5 -193t-220.5 -75z" />
    <glyph glyph-name="Ohungarumlaut" unicode="&#x150;" horiz-adv-x="1286" 
d="M135 315q-39 118 -39 381t39 381q53 164 186.5 251t321.5 87t321.5 -87t186.5 -251q39 -118 39 -381t-39 -381q-53 -164 -186.5 -251t-321.5 -87t-321.5 87t-186.5 251zM862 397q23 74 23 299t-23 299q-50 154 -219 154t-219 -154q-23 -74 -23 -299t23 -299
q50 -153 219 -153t219 153zM877 1548h-166q-23 0 -11 21l142 229q12 21 35 21h198q10 0 12 -6.5t-4 -14.5l-168 -229q-15 -21 -38 -21zM524 1548h-166q-22 0 -10 21l144 229q12 21 34 21h199q8 0 11 -6.5t-3 -14.5l-170 -229q-12 -21 -39 -21z" />
    <glyph glyph-name="ohungarumlaut" unicode="&#x151;" horiz-adv-x="1085" 
d="M113 256q-33 100 -33 240q0 139 33 239q43 133 156 206t274 73t274 -73t156 -206q33 -100 33 -239q0 -140 -33 -240q-43 -133 -156 -206t-274 -73t-274 73t-156 206zM696 326q19 62 19 170t-19 170q-34 106 -153 106q-120 0 -154 -106q-18 -58 -18 -170t18 -170
q34 -107 154 -107q119 0 153 107zM793 1124h-168q-22 0 -13 21l138 268q9 21 32 21h199q22 0 10 -21l-164 -268q-12 -21 -34 -21zM440 1124h-166q-21 0 -12 21l137 268q9 21 33 21h199q22 0 10 -21l-164 -268q-15 -21 -37 -21z" />
    <glyph glyph-name="OE" unicode="&#x152;" horiz-adv-x="1908" 
d="M1798 0h-893q-20 0 -20 20v46h-4q-100 -89 -263 -89q-181 0 -305 85.5t-178 250.5q-39 121 -39 383t39 383q54 165 178 250.5t305 85.5q165 0 263 -88h4v45q0 21 20 21h893q21 0 21 -21v-219q0 -20 -21 -20h-600q-12 0 -12 -13v-276q0 -13 12 -13h500q20 0 20 -20v-217
q0 -21 -20 -21h-500q-12 0 -12 -12v-289q0 -12 12 -12h600q21 0 21 -20v-220q0 -20 -21 -20zM862 397q23 74 23 299t-23 299q-50 154 -219 154t-219 -154q-23 -74 -23 -299t23 -299q50 -153 219 -153t219 153z" />
    <glyph glyph-name="oe" unicode="&#x153;" horiz-adv-x="1712" 
d="M1186 -23q-207 0 -322 121h-4q-121 -121 -317 -121q-161 0 -274.5 73.5t-155.5 207.5q-33 98 -33 238q0 139 33 239q43 133 156 206t274 73q200 0 315 -115h4q109 115 309 115q160 0 272.5 -74t155.5 -205q31 -102 31 -305q0 -20 -20 -20h-600q-13 0 -13 -13
q3 -34 11 -55q43 -131 206 -131q135 0 226 88q18 12 30 0l136 -127q16 -13 0 -29q-156 -166 -420 -166zM1010 600h325q13 0 13 12q0 41 -11 74q-35 109 -163 109q-62 0 -107.5 -29.5t-58.5 -79.5q-11 -42 -11 -74q0 -12 13 -12zM696 328q19 59 19 168q0 108 -19 170
q-34 106 -153 106q-120 0 -154 -106q-18 -58 -18 -170t18 -168q35 -109 154 -109q118 0 153 109z" />
    <glyph glyph-name="Racute" unicode="&#x154;" horiz-adv-x="1277" 
d="M1194 0h-291q-22 0 -31 20l-239 510h-187q-12 0 -12 -12v-498q0 -20 -20 -20h-260q-21 0 -21 20v1352q0 21 21 21h555q212 0 342 -121q131 -119 131 -311q0 -133 -65.5 -235t-182.5 -153l274 -548q5 -7 0.5 -16t-14.5 -9zM446 786h246q86 0 137.5 47.5t51.5 127.5
q0 78 -51.5 125t-137.5 47h-246q-12 0 -12 -13v-321q0 -13 12 -13zM637 1544h-191q-8 0 -11 7t3 14l195 235q15 21 39 21h246q10 0 13 -6.5t-3 -14.5l-252 -237q-19 -19 -39 -19z" />
    <glyph glyph-name="racute" unicode="&#x155;" horiz-adv-x="872" 
d="M508 1128h-186q-22 0 -13 21l158 266q12 21 37 21h235q10 0 13.5 -7t-2.5 -14l-203 -266q-15 -21 -39 -21zM395 0h-245q-21 0 -21 20v951q0 20 21 20h245q21 0 21 -20v-84h2q77 127 258 127q102 0 174 -60q15 -12 6 -28l-115 -209q-10 -13 -28 -4q-76 48 -144 45
q-153 -6 -153 -215v-523q0 -20 -21 -20z" />
    <glyph glyph-name="Rcommaaccent" unicode="&#x156;" horiz-adv-x="1277" 
d="M1194 0h-291q-22 0 -31 20l-239 510h-187q-12 0 -12 -12v-498q0 -20 -20 -20h-260q-21 0 -21 20v1352q0 21 21 21h555q212 0 342 -121q131 -119 131 -311q0 -133 -65.5 -235t-182.5 -153l274 -548q5 -7 0.5 -16t-14.5 -9zM446 786h246q86 0 137.5 47.5t51.5 127.5
q0 78 -51.5 125t-137.5 47h-246q-12 0 -12 -13v-321q0 -13 12 -13zM535 -487q-23 0 -23 24v340q0 21 20 21h209q21 0 21 -21v-162q0 -24 -17 -41l-178 -145q-22 -16 -32 -16z" />
    <glyph glyph-name="rcommaaccent" unicode="&#x157;" horiz-adv-x="872" 
d="M395 0h-245q-21 0 -21 20v951q0 20 21 20h245q21 0 21 -20v-84h2q77 127 258 127q102 0 174 -60q15 -12 6 -28l-115 -209q-10 -13 -28 -4q-76 48 -144 45q-153 -6 -153 -215v-523q0 -20 -21 -20zM172 -487q-22 0 -22 24v340q0 21 20 21h209q20 0 20 -21v-162
q0 -25 -16 -41l-178 -145q-22 -16 -33 -16z" />
    <glyph glyph-name="Rcaron" unicode="&#x158;" horiz-adv-x="1277" 
d="M670 1524h-154q-25 0 -39 20l-211 266q-6 8 -3 14.5t11 6.5h164q24 0 45 -21l107 -110h4l108 110q21 21 46 21h163q10 0 12.5 -6.5t-3.5 -14.5l-213 -266q-14 -20 -37 -20zM1194 0h-291q-22 0 -31 20l-239 510h-187q-12 0 -12 -12v-498q0 -20 -20 -20h-260q-21 0 -21 20
v1352q0 21 21 21h555q212 0 342 -121q131 -119 131 -311q0 -133 -65.5 -235t-182.5 -153l274 -548q5 -7 0.5 -16t-14.5 -9zM446 786h246q86 0 137.5 47.5t51.5 127.5q0 78 -51.5 125t-137.5 47h-246q-12 0 -12 -13v-321q0 -13 12 -13z" />
    <glyph glyph-name="rcaron" unicode="&#x159;" horiz-adv-x="872" 
d="M555 1120h-154q-21 0 -36 21l-213 268q-6 7 -3 14t13 7h162q24 0 45 -21l108 -111h4l107 111q21 21 45 21h164q10 0 12 -7t-4 -14l-211 -268q-15 -21 -39 -21zM395 0h-245q-21 0 -21 20v951q0 20 21 20h245q21 0 21 -20v-84h2q77 127 258 127q102 0 174 -60q15 -12 6 -28
l-115 -209q-10 -13 -28 -4q-76 48 -144 45q-153 -6 -153 -215v-523q0 -20 -21 -20z" />
    <glyph glyph-name="Sacute" unicode="&#x15a;" horiz-adv-x="1218" 
d="M616 -23q-154 0 -305 54q-151 57 -231 137q-17 17 -2 35l155 178q13 17 31 2q180 -143 365 -143q105 0 166 45t61 121q0 67 -48.5 102.5t-166.5 52.5l-74 10q-440 62 -440 418q0 191 133 309q135 117 361 117q284 0 473 -145q19 -13 4 -31l-125 -186q-13 -16 -29 -6
q-160 106 -323 106q-89 0 -138 -41.5t-49 -110.5q0 -62 51 -99t166 -54l74 -10q438 -58 438 -422q0 -200 -144.5 -319.5t-402.5 -119.5zM690 1544h-190q-10 0 -12 7t4 14l194 235q15 21 39 21h246q11 0 14 -6.5t-4 -14.5l-252 -237q-19 -19 -39 -19z" />
    <glyph glyph-name="sacute" unicode="&#x15b;" horiz-adv-x="1034" 
d="M532 -23q-273 0 -450 154q-14 15 0 29l133 149q13 13 29 0q141 -108 303 -108q153 0 153 94q0 39 -30.5 59t-110.5 27l-110 12q-159 17 -241.5 93.5t-82.5 209.5q0 148 108 233t299 85q239 0 402 -123q15 -15 2 -31l-115 -141q-11 -14 -28 -4q-127 80 -269 80
q-125 0 -125 -82q0 -38 30 -56.5t108 -25.5l108 -13q330 -35 330 -301q-2 -157 -119 -248.5t-324 -91.5zM590 1128h-187q-21 0 -12 21l158 266q12 21 37 21h235q10 0 13 -7t-3 -14l-202 -266q-15 -21 -39 -21z" />
    <glyph glyph-name="Scircumflex" unicode="&#x15c;" horiz-adv-x="1218" 
d="M616 -23q-154 0 -305 54q-151 57 -231 137q-17 17 -2 35l155 178q13 17 31 2q180 -143 365 -143q105 0 166 45t61 121q0 67 -48.5 102.5t-166.5 52.5l-74 10q-440 62 -440 418q0 191 133 309q135 117 361 117q284 0 473 -145q19 -13 4 -31l-125 -186q-13 -16 -29 -6
q-160 106 -323 106q-89 0 -138 -41.5t-49 -110.5q0 -62 51 -99t166 -54l74 -10q438 -58 438 -422q0 -200 -144.5 -319.5t-402.5 -119.5zM948 1530h-164q-25 0 -45 20l-108 111h-4l-107 -111q-20 -20 -45 -20h-164q-10 0 -12 6t4 14l211 269q14 20 39 20h154q22 0 36 -20
l213 -269q6 -8 3 -14t-11 -6z" />
    <glyph glyph-name="scircumflex" unicode="&#x15d;" horiz-adv-x="1034" 
d="M532 -23q-273 0 -450 154q-14 15 0 29l133 149q13 13 29 0q141 -108 303 -108q153 0 153 94q0 39 -30.5 59t-110.5 27l-110 12q-159 17 -241.5 93.5t-82.5 209.5q0 148 108 233t299 85q239 0 402 -123q15 -15 2 -31l-115 -141q-11 -14 -28 -4q-127 80 -269 80
q-125 0 -125 -82q0 -38 30 -56.5t108 -25.5l108 -13q330 -35 330 -301q-2 -157 -119 -248.5t-324 -91.5zM854 1126h-164q-24 0 -45 21l-106 110h-4l-109 -110q-21 -21 -45 -21h-162q-10 0 -13 7t3 14l213 268q15 21 37 21h153q24 0 39 -21l211 -268q6 -7 3 -14t-11 -7z" />
    <glyph glyph-name="Scedilla" unicode="&#x15e;" horiz-adv-x="1218" 
d="M625 -328h-199q-20 0 -14 21l116 289q-294 38 -448 186q-17 17 -2 35l155 178q13 17 31 2q180 -143 365 -143q105 0 166 45t61 121q0 67 -48.5 102.5t-166.5 52.5l-74 10q-440 62 -440 418q0 191 133 309q135 117 361 117q284 0 473 -145q19 -13 4 -31l-125 -186
q-13 -16 -29 -6q-160 106 -323 106q-89 0 -138 -41.5t-49 -110.5q0 -62 51 -99t166 -54l74 -10q438 -58 438 -422q0 -169 -108.5 -284.5t-306.5 -145.5l-91 -293q-6 -21 -32 -21z" />
    <glyph glyph-name="scedilla" unicode="&#x15f;" horiz-adv-x="1034" 
d="M532 -328h-198q-21 0 -15 21l119 291q-212 21 -356 147q-14 15 0 29l133 149q13 13 29 0q141 -108 303 -108q153 0 153 94q0 39 -30.5 59t-110.5 27l-110 12q-159 17 -241.5 93.5t-82.5 209.5q0 148 108 233t299 85q239 0 402 -123q15 -15 2 -31l-115 -141
q-11 -14 -28 -4q-127 80 -269 80q-125 0 -125 -82q0 -38 30 -56.5t108 -25.5l108 -13q330 -35 330 -301q-2 -129 -85.5 -216t-234.5 -113l-90 -295q-6 -21 -33 -21z" />
    <glyph glyph-name="Scaron" unicode="&#x160;" horiz-adv-x="1218" 
d="M616 -23q-154 0 -305 54q-151 57 -231 137q-17 17 -2 35l155 178q13 17 31 2q180 -143 365 -143q105 0 166 45t61 121q0 67 -48.5 102.5t-166.5 52.5l-74 10q-440 62 -440 418q0 191 133 309q135 117 361 117q284 0 473 -145q19 -13 4 -31l-125 -186q-13 -16 -29 -6
q-160 106 -323 106q-89 0 -138 -41.5t-49 -110.5q0 -62 51 -99t166 -54l74 -10q438 -58 438 -422q0 -200 -144.5 -319.5t-402.5 -119.5zM705 1524h-154q-25 0 -39 20l-211 266q-6 8 -3 14.5t11 6.5h164q24 0 45 -21l107 -110h4l108 110q21 21 45 21h164q10 0 12 -6.5
t-4 -14.5l-213 -266q-14 -20 -36 -20z" />
    <glyph glyph-name="scaron" unicode="&#x161;" horiz-adv-x="1034" 
d="M606 1120h-153q-22 0 -37 21l-213 268q-6 7 -3 14t13 7h162q24 0 45 -21l108 -111h4l107 111q21 21 45 21h164q10 0 12 -7t-4 -14l-211 -268q-15 -21 -39 -21zM532 -23q-273 0 -450 154q-14 15 0 29l133 149q13 13 29 0q141 -108 303 -108q153 0 153 94q0 39 -30.5 59
t-110.5 27l-110 12q-159 17 -241.5 93.5t-82.5 209.5q0 148 108 233t299 85q239 0 402 -123q15 -15 2 -31l-115 -141q-11 -14 -28 -4q-127 80 -269 80q-125 0 -125 -82q0 -38 30 -56.5t108 -25.5l108 -13q330 -35 330 -301q-2 -157 -119 -248.5t-324 -91.5z" />
    <glyph glyph-name="uni0162" unicode="&#x162;" horiz-adv-x="1142" 
d="M469 -487q-23 0 -23 24v340q0 21 21 21h209q20 0 20 -21v-162q0 -25 -16 -41l-178 -145q-22 -16 -33 -16zM702 0h-260q-20 0 -20 20v1092q0 12 -12 12h-353q-20 0 -20 21v227q0 21 20 21h1030q21 0 21 -21v-227q0 -21 -21 -21h-352q-12 0 -12 -12v-1092q0 -20 -21 -20z
" />
    <glyph glyph-name="uni0163" unicode="&#x163;" horiz-adv-x="677" 
d="M281 -487q-23 0 -23 24v340q0 21 21 21h208q21 0 21 -21v-162q0 -25 -16 -41l-179 -145q-22 -16 -32 -16zM573 -12h-108q-169 0 -242 78t-73 251v451q0 12 -13 12h-61q-21 0 -21 21v170q0 20 21 20h61q13 0 13 13v266q0 20 20 20h244q20 0 20 -20v-266q0 -13 12 -13h127
q21 0 21 -20v-170q0 -21 -21 -21h-127q-12 0 -12 -12v-438q0 -55 20 -77t70 -22h49q21 0 21 -20v-203q0 -20 -21 -20z" />
    <glyph glyph-name="Tcaron" unicode="&#x164;" horiz-adv-x="1142" 
d="M702 0h-260q-20 0 -20 20v1092q0 12 -12 12h-353q-20 0 -20 21v227q0 21 20 21h1030q21 0 21 -21v-227q0 -21 -21 -21h-352q-12 0 -12 -12v-1092q0 -20 -21 -20zM647 1524h-153q-25 0 -39 20l-211 266q-6 8 -4 14.5t12 6.5h164q24 0 45 -21l106 -110h4l109 110
q21 21 45 21h164q8 0 11 -6.5t-3 -14.5l-213 -266q-14 -20 -37 -20z" />
    <glyph glyph-name="tcaron" unicode="&#x165;" horiz-adv-x="700" 
d="M573 -12h-108q-169 0 -242 78t-73 251v451q0 12 -13 12h-61q-21 0 -21 21v170q0 20 21 20h61q13 0 13 13v266q0 20 20 20h244q20 0 20 -20v-266q0 -13 12 -13h127q21 0 21 -20v-170q0 -21 -21 -21h-127q-12 0 -12 -12v-438q0 -55 20 -77t70 -22h49q21 0 21 -20v-203
q0 -20 -21 -20zM602 999q-22 0 -22 23v350q0 21 20 21h197q20 0 20 -21v-172q0 -25 -16 -41l-168 -145q-15 -15 -31 -15z" />
    <glyph glyph-name="Tbar" unicode="&#x166;" horiz-adv-x="1142" 
d="M702 0h-260q-20 0 -20 20v615q0 12 -12 12h-183q-20 0 -20 21v180q0 20 20 20h183q12 0 12 13v231q0 12 -12 12h-353q-20 0 -20 21v227q0 21 20 21h1030q21 0 21 -21v-227q0 -21 -21 -21h-352q-12 0 -12 -12v-231q0 -13 12 -13h183q20 0 20 -20v-180q0 -21 -20 -21h-183
q-12 0 -12 -12v-615q0 -20 -21 -20z" />
    <glyph glyph-name="tbar" unicode="&#x167;" horiz-adv-x="677" 
d="M573 -12h-108q-169 0 -242 78t-73 251v158q0 12 -13 12h-41q-20 0 -20 21v137q0 21 20 21h41q13 0 13 12v90q0 12 -13 12h-61q-21 0 -21 21v170q0 20 21 20h61q13 0 13 13v266q0 20 20 20h244q20 0 20 -20v-266q0 -13 12 -13h127q21 0 21 -20v-170q0 -21 -21 -21h-127
q-12 0 -12 -12v-90q0 -12 12 -12h103q20 0 20 -21v-137q0 -21 -20 -21h-103q-12 0 -12 -12v-145q0 -55 20 -77t70 -22h49q21 0 21 -20v-203q0 -20 -21 -20z" />
    <glyph glyph-name="Utilde" unicode="&#x168;" horiz-adv-x="1320" 
d="M791 1532q-69 0 -154 43q-64 37 -119 37q-63 0 -145 -64q-19 -16 -19 4v148q0 23 17 43q72 72 157 72q69 0 154 -43q67 -37 119 -37q64 0 145 63q8 6 14.5 4t6.5 -8v-147q0 -24 -19 -43q-69 -72 -157 -72zM662 -23q-241 0 -390 140q-145 142 -145 395v860q0 21 20 21h261
q20 0 20 -21v-868q0 -122 63.5 -191t170.5 -69t169 69t62 191v868q0 21 20 21h261q20 0 20 -21v-860q0 -254 -147 -395q-146 -140 -385 -140z" />
    <glyph glyph-name="utilde" unicode="&#x169;" horiz-adv-x="1124" 
d="M975 0h-246q-20 0 -20 20v72h-2q-86 -115 -254 -115q-157 0 -245.5 100.5t-88.5 268.5v625q0 20 20 20h246q21 0 21 -20v-570q0 -83 39.5 -131.5t111.5 -48.5t112 47.5t40 132.5v570q0 20 20 20h246q20 0 20 -20v-951q0 -20 -20 -20zM690 1130q-65 0 -153 46
q-68 36 -119 36q-66 0 -146 -65q-18 -15 -18 6v147q0 22 16 41q74 74 158 74q68 0 154 -45q73 -37 118 -37q65 0 146 66q8 6 14 4t6 -10v-148q0 -23 -18 -41q-71 -74 -158 -74z" />
    <glyph glyph-name="Umacron" unicode="&#x16a;" horiz-adv-x="1320" 
d="M662 -23q-241 0 -390 140q-145 142 -145 395v860q0 21 20 21h261q20 0 20 -21v-868q0 -122 63.5 -191t170.5 -69t169 69t62 191v868q0 21 20 21h261q20 0 20 -21v-860q0 -254 -147 -395q-146 -140 -385 -140zM950 1579h-579q-21 0 -21 20v156q0 21 21 21h579q21 0 21 -21
v-156q0 -20 -21 -20z" />
    <glyph glyph-name="umacron" unicode="&#x16b;" horiz-adv-x="1124" 
d="M975 0h-246q-20 0 -20 20v72h-2q-86 -115 -254 -115q-157 0 -245.5 100.5t-88.5 268.5v625q0 20 20 20h246q21 0 21 -20v-570q0 -83 39.5 -131.5t111.5 -48.5t112 47.5t40 132.5v570q0 20 20 20h246q20 0 20 -20v-951q0 -20 -20 -20zM850 1178h-580q-20 0 -20 20v154
q0 20 20 20h580q20 0 20 -20v-154q0 -20 -20 -20z" />
    <glyph glyph-name="Ubreve" unicode="&#x16c;" horiz-adv-x="1320" 
d="M662 -23q-241 0 -390 140q-145 142 -145 395v860q0 21 20 21h261q20 0 20 -21v-868q0 -122 63.5 -191t170.5 -69t169 69t62 191v868q0 21 20 21h261q20 0 20 -21v-860q0 -254 -147 -395q-146 -140 -385 -140zM659 1524q-135 0 -221.5 75t-91.5 193q0 23 21 23h118
q20 0 27 -23q35 -86 147 -86q116 0 146 86q10 23 29 23h116q23 0 23 -23q-6 -118 -93 -193t-221 -75z" />
    <glyph glyph-name="ubreve" unicode="&#x16d;" horiz-adv-x="1124" 
d="M975 0h-246q-20 0 -20 20v72h-2q-86 -115 -254 -115q-157 0 -245.5 100.5t-88.5 268.5v625q0 20 20 20h246q21 0 21 -20v-570q0 -83 39.5 -131.5t111.5 -48.5t112 47.5t40 132.5v570q0 20 20 20h246q20 0 20 -20v-951q0 -20 -20 -20zM561 1118q-135 0 -221.5 75
t-91.5 193q0 21 20 21h119q21 0 27 -21q34 -88 147 -88q116 0 146 88q9 21 28 21h117q22 0 22 -21q-6 -118 -92.5 -193t-220.5 -75z" />
    <glyph glyph-name="Uring" unicode="&#x16e;" horiz-adv-x="1320" 
d="M815 1520q-62 -62 -156 -62q-92 0 -157 62q-62 65 -62 157q0 94 62 156q64 61 157 61q95 0 156 -61q64 -61 64 -156q0 -93 -64 -157zM754 1677q0 41 -28 70t-67 29q-41 0 -68.5 -28.5t-27.5 -70.5q0 -43 27.5 -70.5t68.5 -27.5t68 27.5t27 70.5zM662 -23q-241 0 -390 140
q-145 142 -145 395v860q0 21 20 21h261q20 0 20 -21v-868q0 -122 63.5 -191t170.5 -69t169 69t62 191v868q0 21 20 21h261q20 0 20 -21v-860q0 -254 -147 -395q-146 -140 -385 -140z" />
    <glyph glyph-name="uring" unicode="&#x16f;" horiz-adv-x="1124" 
d="M975 0h-246q-20 0 -20 20v72h-2q-86 -115 -254 -115q-157 0 -245.5 100.5t-88.5 268.5v625q0 20 20 20h246q21 0 21 -20v-570q0 -83 39.5 -131.5t111.5 -48.5t112 47.5t40 132.5v570q0 20 20 20h246q20 0 20 -20v-951q0 -20 -20 -20zM717 1135q-62 -62 -156 -62
q-93 0 -158 62q-61 61 -61 155q0 95 61 156q63 63 158 63q96 0 156 -63q63 -60 63 -156q0 -95 -63 -155zM561 1192q39 0 66.5 28.5t27.5 69.5q0 43 -26.5 72t-67.5 29t-68.5 -29t-27.5 -72q0 -41 27.5 -69.5t68.5 -28.5z" />
    <glyph glyph-name="Uhungarumlaut" unicode="&#x170;" horiz-adv-x="1320" 
d="M662 -23q-241 0 -390 140q-145 142 -145 395v860q0 21 20 21h261q20 0 20 -21v-868q0 -122 63.5 -191t170.5 -69t169 69t62 191v868q0 21 20 21h261q20 0 20 -21v-860q0 -254 -147 -395q-146 -140 -385 -140zM901 1548h-166q-22 0 -10 21l141 229q12 21 35 21h199
q10 0 12 -6.5t-4 -14.5l-168 -229q-15 -21 -39 -21zM549 1548h-166q-22 0 -10 21l143 229q12 21 35 21h199q8 0 11 -6.5t-3 -14.5l-170 -229q-12 -21 -39 -21z" />
    <glyph glyph-name="uhungarumlaut" unicode="&#x171;" horiz-adv-x="1124" 
d="M975 0h-246q-20 0 -20 20v72h-2q-86 -115 -254 -115q-157 0 -245.5 100.5t-88.5 268.5v625q0 20 20 20h246q21 0 21 -20v-570q0 -83 39.5 -131.5t111.5 -48.5t112 47.5t40 132.5v570q0 20 20 20h246q20 0 20 -20v-951q0 -20 -20 -20zM813 1124h-168q-21 0 -12 21l137 268
q9 21 33 21h198q23 0 11 -21l-164 -268q-12 -21 -35 -21zM461 1124h-166q-21 0 -12 21l137 268q9 21 33 21h198q23 0 11 -21l-164 -268q-15 -21 -37 -21z" />
    <glyph glyph-name="Uogonek" unicode="&#x172;" horiz-adv-x="1320" 
d="M684 -391q-97 0 -154 51t-57 137q0 95 88 189q-201 27 -317.5 165t-116.5 361v860q0 21 20 21h261q20 0 20 -21v-868q0 -122 63.5 -191t170.5 -69t169 69t62 191v868q0 21 20 21h261q20 0 20 -21v-860q0 -211 -101.5 -345t-281.5 -173q-121 -92 -121 -148q0 -43 43 -43
q18 0 49 17q17 9 27 -8l65 -121q8 -13 -8 -29q-80 -53 -182 -53z" />
    <glyph glyph-name="uogonek" unicode="&#x173;" horiz-adv-x="1126" 
d="M801 -391q-97 0 -154 51t-57 137q0 60 31 105.5t104 97.5q-16 3 -16 20v72h-2q-86 -115 -254 -115q-157 0 -245.5 100.5t-88.5 268.5v625q0 20 20 20h246q21 0 21 -20v-570q0 -83 39.5 -131.5t111.5 -48.5t112 47.5t40 132.5v570q0 20 20 20h246q20 0 20 -20v-951
q0 -14 -12 -20q-176 -89 -176 -154q0 -43 45 -43q10 0 49 17q18 11 27 -8l63 -121q8 -13 -8 -29q-80 -53 -182 -53z" />
    <glyph glyph-name="Wcircumflex" unicode="&#x174;" horiz-adv-x="1771" 
d="M1366 0h-205q-20 0 -26 20l-242 867h-4l-244 -867q-6 -20 -27 -20h-204q-19 0 -25 20l-360 1352q-3 21 16 21h264q22 0 25 -21l201 -874h4l237 874q6 21 27 21h178q19 0 25 -21l245 -874h4l193 874q3 21 25 21h262q19 0 16 -21l-358 -1352q-3 -20 -27 -20zM1208 1530
h-164q-25 0 -45 20l-108 111h-4l-107 -111q-20 -20 -45 -20h-164q-10 0 -12 6t4 14l211 269q14 20 39 20h154q23 0 37 -20l213 -269q6 -8 2.5 -14t-11.5 -6z" />
    <glyph glyph-name="wcircumflex" unicode="&#x175;" horiz-adv-x="1562" 
d="M1190 0h-205q-18 0 -24 20l-170 576h-5l-174 -576q-6 -20 -24 -20h-203q-19 0 -25 20l-317 951q-6 20 14 20h252q23 0 29 -20l164 -590h4l170 590q6 20 29 20h172q20 0 26 -20l174 -590h4l156 590q6 20 27 20h252q22 0 16 -20l-318 -951q-6 -20 -24 -20zM1104 1126h-164
q-24 0 -45 21l-107 110h-4l-108 -110q-21 -21 -45 -21h-162q-10 0 -13 7t3 14l213 268q15 21 37 21h153q24 0 39 -21l211 -268q6 -7 3 -14t-11 -7z" />
    <glyph glyph-name="Ycircumflex" unicode="&#x176;" horiz-adv-x="1163" 
d="M719 0h-260q-21 0 -21 20v535l-411 817q-9 21 14 21h266q22 0 31 -21l252 -508h6l252 508q9 21 31 21h258q10 0 14.5 -6.5t-0.5 -14.5l-412 -817v-535q0 -20 -20 -20zM905 1530h-164q-25 0 -45 20l-108 111h-4l-107 -111q-20 -20 -45 -20h-164q-10 0 -12 6t4 14l211 269
q14 20 39 20h154q22 0 36 -20l213 -269q6 -8 3 -14t-11 -6z" />
    <glyph glyph-name="ycircumflex" unicode="&#x177;" horiz-adv-x="1038" 
d="M266 -369h-69q-21 0 -21 21v201q0 20 21 20h43q54 0 85 23.5t50 78.5l26 74l-368 922q-6 20 16 20h262q19 0 25 -20l199 -574h4l184 574q6 20 25 20h253q23 0 17 -20l-402 -1055q-60 -159 -139 -223q-77 -62 -211 -62zM846 1126h-164q-24 0 -45 21l-107 110h-4l-108 -110
q-21 -21 -45 -21h-162q-10 0 -13 7t3 14l213 268q15 21 37 21h153q24 0 39 -21l211 -268q6 -7 3 -14t-11 -7z" />
    <glyph glyph-name="Ydieresis" unicode="&#x178;" horiz-adv-x="1163" 
d="M719 0h-260q-21 0 -21 20v535l-411 817q-9 21 14 21h266q22 0 31 -21l252 -508h6l252 508q9 21 31 21h258q10 0 14.5 -6.5t-0.5 -14.5l-412 -817v-535q0 -20 -20 -20zM889 1556h-184q-21 0 -21 21v201q0 20 21 20h184q20 0 20 -20v-201q0 -21 -20 -21zM473 1556h-184
q-21 0 -21 21v201q0 20 21 20h184q21 0 21 -20v-201q0 -21 -21 -21z" />
    <glyph glyph-name="Zacute" unicode="&#x179;" horiz-adv-x="1118" 
d="M1016 0h-914q-20 0 -20 20v226q0 11 6 20l600 854v4h-563q-21 0 -21 21v227q0 21 21 21h891q20 0 20 -21v-225q0 -12 -6 -21l-602 -854v-4h588q20 0 20 -20v-228q0 -20 -20 -20zM610 1544h-190q-10 0 -12 7t4 14l194 235q15 21 39 21h246q11 0 14 -6.5t-4 -14.5
l-252 -237q-19 -19 -39 -19z" />
    <glyph glyph-name="zacute" unicode="&#x17a;" horiz-adv-x="1003" 
d="M565 1128h-186q-21 0 -12 21l157 266q12 21 37 21h236q10 0 13 -7t-3 -14l-203 -266q-15 -21 -39 -21zM889 0h-774q-21 0 -21 20v185q0 11 6 20l471 527v4h-430q-20 0 -20 20v195q0 20 20 20h748q20 0 20 -20v-195q0 -11 -6 -20l-467 -516v-4h453q20 0 20 -21v-195
q0 -20 -20 -20z" />
    <glyph glyph-name="Zdotaccent" unicode="&#x17b;" horiz-adv-x="1118" 
d="M1016 0h-914q-20 0 -20 20v226q0 11 6 20l600 854v4h-563q-21 0 -21 21v227q0 21 21 21h891q20 0 20 -21v-225q0 -12 -6 -21l-602 -854v-4h588q20 0 20 -20v-228q0 -20 -20 -20zM676 1556h-236q-20 0 -20 21v201q0 20 20 20h236q20 0 20 -20v-201q0 -21 -20 -21z" />
    <glyph glyph-name="zdotaccent" unicode="&#x17c;" horiz-adv-x="1003" 
d="M889 0h-774q-21 0 -21 20v185q0 11 6 20l471 527v4h-430q-20 0 -20 20v195q0 20 20 20h748q20 0 20 -20v-195q0 -11 -6 -20l-467 -516v-4h453q20 0 20 -21v-195q0 -20 -20 -20zM627 1149h-236q-20 0 -20 20v203q0 21 20 21h236q20 0 20 -21v-203q0 -20 -20 -20z" />
    <glyph glyph-name="Zcaron" unicode="&#x17d;" horiz-adv-x="1118" 
d="M637 1524h-154q-25 0 -39 20l-211 266q-6 8 -2.5 14.5t11.5 6.5h164q24 0 45 -21l106 -110h4l109 110q21 21 45 21h164q10 0 12 -6.5t-4 -14.5l-213 -266q-14 -20 -37 -20zM1016 0h-914q-20 0 -20 20v226q0 11 6 20l600 854v4h-563q-21 0 -21 21v227q0 21 21 21h891
q20 0 20 -21v-225q0 -12 -6 -21l-602 -854v-4h588q20 0 20 -20v-228q0 -20 -20 -20z" />
    <glyph glyph-name="zcaron" unicode="&#x17e;" horiz-adv-x="1003" 
d="M889 0h-774q-21 0 -21 20v185q0 11 6 20l471 527v4h-430q-20 0 -20 20v195q0 20 20 20h748q20 0 20 -20v-195q0 -11 -6 -20l-467 -516v-4h453q20 0 20 -21v-195q0 -20 -20 -20zM586 1120h-154q-22 0 -37 21l-213 268q-6 7 -2.5 14t13.5 7h161q24 0 45 -21l109 -111h4
l106 111q21 21 46 21h163q8 0 11.5 -7t-2.5 -14l-211 -268q-15 -21 -39 -21z" />
    <glyph glyph-name="florin" unicode="&#x192;" 
d="M920 641h-193l-100 -659q-31 -192 -118.5 -271.5t-266.5 -79.5h-66q-20 0 -20 21v198q0 21 20 21h39q66 0 95.5 25t39.5 92l99 653h-125q-21 0 -21 21v172q0 20 21 20h157l31 195q29 184 118 264t263 80h70q20 0 20 -21v-198q0 -21 -20 -21h-43q-60 0 -90.5 -26.5
t-41.5 -86.5l-28 -186h160q20 0 20 -20v-172q0 -21 -20 -21z" />
    <glyph glyph-name="Scommaaccent" unicode="&#x218;" horiz-adv-x="1218" 
d="M616 -23q-154 0 -305 54q-151 57 -231 137q-17 17 -2 35l155 178q13 17 31 2q180 -143 365 -143q105 0 166 45t61 121q0 67 -48.5 102.5t-166.5 52.5l-74 10q-440 62 -440 418q0 191 133 309q135 117 361 117q284 0 473 -145q19 -13 4 -31l-125 -186q-13 -16 -29 -6
q-160 106 -323 106q-89 0 -138 -41.5t-49 -110.5q0 -62 51 -99t166 -54l74 -10q438 -58 438 -422q0 -200 -144.5 -319.5t-402.5 -119.5zM518 -487q-22 0 -22 24v340q0 21 20 21h209q20 0 20 -21v-162q0 -25 -16 -41l-178 -145q-22 -16 -33 -16z" />
    <glyph glyph-name="scommaaccent" unicode="&#x219;" horiz-adv-x="1034" 
d="M532 -23q-273 0 -450 154q-14 15 0 29l133 149q13 13 29 0q141 -108 303 -108q153 0 153 94q0 39 -30.5 59t-110.5 27l-110 12q-159 17 -241.5 93.5t-82.5 209.5q0 148 108 233t299 85q239 0 402 -123q15 -15 2 -31l-115 -141q-11 -14 -28 -4q-127 80 -269 80
q-125 0 -125 -82q0 -38 30 -56.5t108 -25.5l108 -13q330 -35 330 -301q-2 -157 -119 -248.5t-324 -91.5zM434 -487q-22 0 -22 24v340q0 21 20 21h209q21 0 21 -21v-162q0 -24 -17 -41l-178 -145q-22 -16 -33 -16z" />
    <glyph glyph-name="uni021A" unicode="&#x21a;" horiz-adv-x="1142" 
d="M469 -487q-23 0 -23 24v340q0 21 21 21h209q20 0 20 -21v-162q0 -25 -16 -41l-178 -145q-22 -16 -33 -16zM702 0h-260q-20 0 -20 20v1092q0 12 -12 12h-353q-20 0 -20 21v227q0 21 20 21h1030q21 0 21 -21v-227q0 -21 -21 -21h-352q-12 0 -12 -12v-1092q0 -20 -21 -20z
" />
    <glyph glyph-name="uni021B" unicode="&#x21b;" horiz-adv-x="677" 
d="M281 -487q-23 0 -23 24v340q0 21 21 21h208q21 0 21 -21v-162q0 -25 -16 -41l-179 -145q-22 -16 -32 -16zM573 -12h-108q-169 0 -242 78t-73 251v451q0 12 -13 12h-61q-21 0 -21 21v170q0 20 21 20h61q13 0 13 13v266q0 20 20 20h244q20 0 20 -20v-266q0 -13 12 -13h127
q21 0 21 -20v-170q0 -21 -21 -21h-127q-12 0 -12 -12v-438q0 -55 20 -77t70 -22h49q21 0 21 -20v-203q0 -20 -21 -20z" />
    <glyph glyph-name="dotlessj" unicode="&#x237;" horiz-adv-x="544" 
d="M45 -369h-68q-20 0 -20 21v201q0 20 20 20h41q62 0 86.5 25t24.5 90v983q0 20 21 20h245q21 0 21 -20v-981q0 -359 -371 -359z" />
    <glyph glyph-name="circumflex" unicode="&#x2c6;" horiz-adv-x="929" 
d="M784 1126h-163q-25 0 -46 21l-106 110h-4l-109 -110q-21 -21 -45 -21h-161q-10 0 -13.5 7t2.5 14l213 268q15 21 37 21h154q24 0 39 -21l211 -268q6 -7 2.5 -14t-11.5 -7z" />
    <glyph glyph-name="caron" unicode="&#x2c7;" horiz-adv-x="929" 
d="M543 1120h-154q-22 0 -37 21l-213 268q-6 7 -2.5 14t13.5 7h161q24 0 45 -21l109 -111h4l106 111q21 21 46 21h163q8 0 11.5 -7t-2.5 -14l-211 -268q-15 -21 -39 -21z" />
    <glyph glyph-name="uni02C9" unicode="&#x2c9;" horiz-adv-x="929" 
d="M754 1579h-580q-20 0 -20 20v156q0 21 20 21h580q20 0 20 -21v-156q0 -20 -20 -20z" />
    <glyph glyph-name="breve" unicode="&#x2d8;" horiz-adv-x="929" 
d="M465 1118q-135 0 -221.5 75t-91.5 193q0 21 20 21h119q20 0 26 -21q34 -88 148 -88q115 0 145 88q9 21 29 21h117q22 0 22 -21q-6 -118 -92.5 -193t-220.5 -75z" />
    <glyph glyph-name="dotaccent" unicode="&#x2d9;" horiz-adv-x="929" 
d="M582 1149h-236q-20 0 -20 20v203q0 21 20 21h236q20 0 20 -21v-203q0 -20 -20 -20z" />
    <glyph glyph-name="ring" unicode="&#x2da;" horiz-adv-x="929" 
d="M621 1135q-62 -62 -156 -62q-93 0 -158 62q-61 61 -61 155q0 95 61 156q63 63 158 63q96 0 156 -63q63 -60 63 -156q0 -95 -63 -155zM465 1192q39 0 66.5 28.5t27.5 69.5q0 43 -26.5 72t-67.5 29t-68.5 -29t-27.5 -72q0 -41 27.5 -69.5t68.5 -28.5z" />
    <glyph glyph-name="ogonek" unicode="&#x2db;" horiz-adv-x="929" 
d="M446 -391q-97 0 -153.5 51t-56.5 137q0 115 122 203q26 20 52 20h213q10 0 10 -7.5t-8 -12.5q-172 -88 -172 -154q0 -43 43 -43q12 0 51 17q17 10 26 -8l64 -121q8 -13 -8 -29q-80 -53 -183 -53z" />
    <glyph glyph-name="tilde" unicode="&#x2dc;" horiz-adv-x="929" 
d="M592 1130q-66 0 -154 46q-68 36 -119 36q-65 0 -145 -65q-18 -15 -18 6v147q0 22 16 41q74 74 158 74q67 0 153 -45q73 -37 119 -37q65 0 146 66q8 6 14 4t6 -10v-148q0 -23 -18 -41q-71 -74 -158 -74z" />
    <glyph glyph-name="hungarumlaut" unicode="&#x2dd;" horiz-adv-x="929" 
d="M649 1124h-168q-21 0 -12 21l137 268q9 21 33 21h199q22 0 10 -21l-164 -268q-12 -21 -35 -21zM297 1124h-166q-21 0 -12 21l137 268q9 21 33 21h198q23 0 11 -21l-164 -268q-15 -21 -37 -21z" />
    <glyph glyph-name="uni0374" unicode="&#x374;" horiz-adv-x="1083" 
d="M492 958h-224q-21 0 -12 21l238 483q9 21 32 21h312q8 0 12 -7t0 -14l-326 -483q-15 -21 -32 -21z" />
    <glyph glyph-name="uni0375" unicode="&#x375;" horiz-adv-x="1083" 
d="M608 131h223q22 0 13 -20l-238 -484q-9 -20 -33 -20h-311q-8 0 -12 6.5t0 13.5l325 484q14 20 33 20z" />
    <glyph glyph-name="uni037E" unicode="&#x37e;" horiz-adv-x="552" 
d="M399 707h-245q-21 0 -21 20v244q0 20 21 20h245q21 0 21 -20v-244q0 -20 -21 -20zM141 -199v465q0 21 21 21h231q21 0 21 -21v-248q0 -24 -17 -41l-204 -184q-14 -14 -31 -14q-21 0 -21 22z" />
    <glyph glyph-name="tonos" unicode="&#x384;" horiz-adv-x="993" 
d="M504 1128h-193q-19 0 -10 27l74 260q6 21 26 21h281q29 0 10 -31l-155 -256q-12 -21 -33 -21z" />
    <glyph glyph-name="dieresistonos" unicode="&#x385;" horiz-adv-x="1173" 
d="M1116 1149h-190q-21 0 -21 20v203q0 21 21 21h190q21 0 21 -21v-203q0 -20 -21 -20zM387 1149h-188q-21 0 -21 20v203q0 21 21 21h188q21 0 21 -21v-203q0 -20 -21 -20zM711 1128h-205q-18 0 -12 21l32 266q6 21 27 21h291q20 0 8 -21l-113 -266q-9 -21 -28 -21z" />
    <glyph glyph-name="Alphatonos" unicode="&#x386;" horiz-adv-x="1318" 
d="M37 20l479 1352q6 21 27 21h258q20 0 26 -21l471 -1352q6 -20 -14 -20h-266q-21 0 -27 20l-80 244h-487l-78 -244q-6 -20 -27 -20h-268q-20 0 -14 20zM666 1008l-158 -488h321l-157 488h-6zM209 1085h-193q-19 0 -10 27l74 260q6 21 26 21h281q29 0 10 -31l-155 -256
q-12 -21 -33 -21z" />
    <glyph glyph-name="anoteleia" unicode="&#x387;" horiz-adv-x="530" 
d="M387 399h-244q-20 0 -20 21v244q0 20 20 20h244q21 0 21 -20v-244q0 -21 -21 -21z" />
    <glyph glyph-name="Epsilontonos" unicode="&#x388;" horiz-adv-x="1157" 
d="M141 20v1352q0 21 21 21h893q20 0 20 -21v-219q0 -20 -20 -20h-600q-13 0 -13 -13v-276q0 -13 13 -13h499q21 0 21 -20v-217q0 -21 -21 -21h-499q-13 0 -13 -12v-289q0 -12 13 -12h600q20 0 20 -20v-220q0 -20 -20 -20h-893q-21 0 -21 20zM-141 1085h-193q-19 0 -10 27
l74 260q6 21 26 21h281q29 0 10 -31l-156 -256q-12 -21 -32 -21z" />
    <glyph glyph-name="Etatonos" unicode="&#x389;" horiz-adv-x="1347" 
d="M141 20v1352q0 21 21 21h260q20 0 20 -21v-522q0 -12 13 -12h454q13 0 13 12v522q0 21 20 21h260q21 0 21 -21v-1352q0 -20 -21 -20h-260q-20 0 -20 20v537q0 12 -13 12h-454q-13 0 -13 -12v-537q0 -20 -20 -20h-260q-21 0 -21 20zM-139 1085h-193q-19 0 -10 27l74 260
q6 21 26 21h281q29 0 10 -31l-155 -256q-12 -21 -33 -21z" />
    <glyph glyph-name="Iotatonos" unicode="&#x38a;" horiz-adv-x="567" 
d="M-141 1085h-193q-19 0 -10 27l74 260q6 21 26 21h281q29 0 10 -31l-156 -256q-12 -21 -32 -21zM141 20v1352q0 21 21 21h260q20 0 20 -21v-1352q0 -20 -20 -20h-260q-21 0 -21 20z" />
    <glyph glyph-name="Omicrontonos" unicode="&#x38c;" horiz-adv-x="1286" 
d="M143 315q-39 118 -39 381t39 381q53 164 186.5 251t321.5 87t321.5 -87t186.5 -251q39 -118 39 -381t-39 -381q-53 -164 -186.5 -251t-321.5 -87t-321.5 87t-186.5 251zM870 397q23 74 23 299t-23 299q-50 154 -219 154t-219 -154q-22 -71 -22 -299t22 -299
q50 -153 219 -153t219 153zM-53 1085h-193q-19 0 -10 27l74 260q6 21 26 21h281q29 0 10 -31l-155 -256q-12 -21 -33 -21z" />
    <glyph glyph-name="Upsilontonos" unicode="&#x38e;" horiz-adv-x="1163" 
d="M719 0h-260q-21 0 -21 20v535l-411 817q-9 21 14 21h266q22 0 31 -21l252 -508h6l252 508q9 21 31 21h258q10 0 14.5 -6.5t-0.5 -14.5l-412 -817v-535q0 -20 -20 -20zM-256 1085h-193q-19 0 -10 27l74 260q6 21 27 21h280q29 0 10 -31l-155 -256q-12 -21 -33 -21z" />
    <glyph glyph-name="Omegatonos" unicode="&#x38f;" horiz-adv-x="1302" 
d="M1192 0h-436q-21 0 -21 20v207q0 23 19 29q84 31 118.5 130.5t34.5 309.5q0 216 -24 299q-47 154 -224 154q-170 0 -223 -154q-24 -73 -24 -299q0 -209 34.5 -309t116.5 -131q21 -6 21 -29v-207q0 -20 -21 -20h-436q-21 0 -21 20v213q0 21 21 21h117v4
q-71 57 -104.5 158.5t-33.5 279.5q0 261 39 377q55 166 189 254t325 88t325.5 -88t189.5 -254q38 -113 38 -377q0 -180 -33 -281.5t-106 -156.5v-4h119q20 0 20 -21v-213q0 -20 -20 -20zM-47 1085h-193q-19 0 -10 27l74 260q6 21 26 21h281q29 0 10 -31l-155 -256
q-12 -21 -33 -21z" />
    <glyph glyph-name="iotadieresistonos" unicode="&#x390;" horiz-adv-x="665" 
d="M772 1149h-190q-21 0 -21 20v203q0 21 21 21h190q21 0 21 -21v-203q0 -20 -21 -20zM43 1149h-188q-21 0 -21 20v203q0 21 21 21h188q20 0 20 -21v-203q0 -20 -20 -20zM367 1128h-205q-18 0 -12 21l32 266q6 21 27 21h291q20 0 8 -21l-113 -266q-9 -21 -28 -21zM387 -23
q-143 0 -205.5 76t-62.5 228v690q0 20 20 20h246q21 0 21 -20v-645q0 -57 19 -81t62 -24q34 0 70 8q22 3 25 -12l41 -176q3 -13 -11 -23q-74 -41 -225 -41z" />
    <glyph glyph-name="Alpha" unicode="&#x391;" horiz-adv-x="1318" 
d="M35 20l479 1352q6 21 27 21h258q20 0 26 -21l471 -1352q6 -20 -14 -20h-266q-21 0 -27 20l-80 244h-487l-78 -244q-6 -20 -27 -20h-268q-20 0 -14 20zM664 1008l-158 -488h321l-157 488h-6z" />
    <glyph glyph-name="Beta" unicode="&#x392;" horiz-adv-x="1249" 
d="M133 20v1352q0 21 21 21h542q218 0 331.5 -98t113.5 -273q0 -209 -162 -297v-4q79 -31 132.5 -116.5t53.5 -198.5q0 -201 -124.5 -303.5t-358.5 -102.5h-528q-21 0 -21 20zM446 823h213q86 0 134.5 43t48.5 121q0 75 -48.5 118.5t-134.5 43.5h-213q-12 0 -12 -12v-301
q0 -13 12 -13zM434 580v-324q0 -12 12 -12h230q91 0 139.5 45.5t48.5 128.5q0 82 -49 128t-139 46h-230q-12 0 -12 -12z" />
    <glyph glyph-name="Gamma" unicode="&#x393;" horiz-adv-x="1097" 
d="M432 1120v-1100q0 -20 -20 -20h-260q-21 0 -21 20v1352q0 21 21 21h852q20 0 20 -21v-219q0 -20 -20 -20h-560q-12 0 -12 -13z" />
    <glyph glyph-name="uni0394" unicode="&#x394;" horiz-adv-x="1331" 
d="M1288 0h-1233q-20 0 -14 20l479 1352q6 21 27 21h258q20 0 26 -21l472 -1352q6 -20 -15 -20zM434 248h475q14 0 11 12l-244 748h-6l-246 -748q-3 -12 10 -12z" />
    <glyph glyph-name="Epsilon" unicode="&#x395;" horiz-adv-x="1157" 
d="M133 20v1352q0 21 21 21h893q20 0 20 -21v-219q0 -20 -20 -20h-601q-12 0 -12 -13v-276q0 -13 12 -13h500q21 0 21 -20v-217q0 -21 -21 -21h-500q-12 0 -12 -12v-289q0 -12 12 -12h601q20 0 20 -20v-220q0 -20 -20 -20h-893q-21 0 -21 20z" />
    <glyph glyph-name="Zeta" unicode="&#x396;" horiz-adv-x="1118" 
d="M1016 0h-914q-20 0 -20 20v226q0 11 6 20l600 854v4h-563q-21 0 -21 21v227q0 21 21 21h891q20 0 20 -21v-225q0 -12 -6 -21l-602 -854v-4h588q20 0 20 -20v-228q0 -20 -20 -20z" />
    <glyph glyph-name="Eta" unicode="&#x397;" horiz-adv-x="1347" 
d="M133 20v1352q0 21 21 21h260q20 0 20 -21v-522q0 -12 12 -12h455q12 0 12 12v522q0 21 21 21h260q20 0 20 -21v-1352q0 -20 -20 -20h-260q-21 0 -21 20v537q0 12 -12 12h-455q-12 0 -12 -12v-537q0 -20 -20 -20h-260q-21 0 -21 20z" />
    <glyph glyph-name="Theta" unicode="&#x398;" horiz-adv-x="1318" 
d="M657 244q149 0 213 98q28 46 37 117q11 90 11 237q0 138 -11 232q-10 81 -41 129q-61 94 -207 94q-145 0 -206 -94q-34 -52 -43 -129q-9 -76 -9 -232q0 -164 9 -237q8 -67 39 -117q64 -98 208 -98zM809 592h-299q-21 0 -21 20v168q0 21 21 21h299q20 0 20 -21v-168
q0 -20 -20 -20zM657 -23q-307 0 -454 199q-58 75 -82 191q-25 119 -25 329q0 204 21 318q22 119 90 207q77 103 184.5 148.5t267.5 45.5t268 -45.5t185 -148.5q68 -88 90 -207q21 -114 21 -318q0 -210 -25 -329q-24 -116 -82 -191q-147 -199 -459 -199z" />
    <glyph glyph-name="Iota" unicode="&#x399;" horiz-adv-x="567" 
d="M133 20v1352q0 21 21 21h260q20 0 20 -21v-1352q0 -20 -20 -20h-260q-21 0 -21 20z" />
    <glyph glyph-name="Kappa" unicode="&#x39a;" horiz-adv-x="1320" 
d="M133 20v1352q0 21 21 21h260q20 0 20 -21v-602l463 604q13 19 35 19h297q11 0 13 -8.5t-5 -18.5l-422 -528l461 -813q16 -25 -12 -25h-301q-22 0 -31 18l-316 586l-182 -229v-355q0 -20 -20 -20h-260q-21 0 -21 20z" />
    <glyph glyph-name="Lambda" unicode="&#x39b;" horiz-adv-x="1318" 
d="M670 1008h-6l-320 -988q-6 -20 -27 -20h-268q-20 0 -14 20l479 1352q6 21 27 21h258q20 0 26 -21l471 -1352q6 -20 -14 -20h-266q-21 0 -27 20z" />
    <glyph glyph-name="Mu" unicode="&#x39c;" horiz-adv-x="1562" 
d="M133 20v1352q0 21 21 21h243q24 0 33 -21l352 -794h9l346 794q9 21 32 21h240q21 0 21 -21v-1352q0 -20 -21 -20h-231q-21 0 -21 20v785h-8l-258 -588q-12 -27 -39 -27h-141q-27 0 -39 27l-258 588h-8v-785q0 -20 -21 -20h-231q-21 0 -21 20z" />
    <glyph glyph-name="Nu" unicode="&#x39d;" horiz-adv-x="1341" 
d="M133 20v1352q0 21 21 21h245q23 0 35 -21l492 -876h10v876q0 21 20 21h232q20 0 20 -21v-1352q0 -20 -20 -20h-244q-24 0 -35 20l-493 875h-10v-875q0 -20 -21 -20h-231q-21 0 -21 20z" />
    <glyph glyph-name="Xi" unicode="&#x39e;" horiz-adv-x="1150" 
d="M1047 0h-943q-20 0 -20 20v226q0 20 20 20h943q20 0 20 -20v-226q0 -20 -20 -20zM946 569h-743q-21 0 -21 21v219q0 20 21 20h743q21 0 21 -20v-219q0 -21 -21 -21zM1047 1126h-943q-20 0 -20 21v225q0 21 20 21h943q20 0 20 -21v-225q0 -21 -20 -21z" />
    <glyph glyph-name="Omicron" unicode="&#x39f;" horiz-adv-x="1286" 
d="M135 315q-39 118 -39 381t39 381q53 164 186.5 251t321.5 87t321.5 -87t186.5 -251q39 -118 39 -381t-39 -381q-53 -164 -186.5 -251t-321.5 -87t-321.5 87t-186.5 251zM862 397q23 74 23 299t-23 299q-50 154 -219 154t-219 -154q-23 -74 -23 -299t23 -299
q50 -153 219 -153t219 153z" />
    <glyph glyph-name="Pi" unicode="&#x3a0;" horiz-adv-x="1327" 
d="M414 0h-260q-21 0 -21 20v1352q0 21 21 21h1020q20 0 20 -21v-1352q0 -20 -20 -20h-261q-20 0 -20 20v1092q0 12 -12 12h-435q-12 0 -12 -12v-1092q0 -20 -20 -20z" />
    <glyph glyph-name="Rho" unicode="&#x3a1;" horiz-adv-x="1239" 
d="M414 0h-260q-21 0 -21 20v1352q0 21 21 21h540q226 0 355 -123q131 -122 131 -326q0 -198 -131 -323q-132 -123 -355 -123h-248q-12 0 -12 -13v-465q0 -20 -20 -20zM446 758h230q94 0 148.5 50t54.5 136t-55 137.5t-148 51.5h-230q-12 0 -12 -13v-350q0 -12 12 -12z" />
    <glyph glyph-name="Sigma" unicode="&#x3a3;" horiz-adv-x="1118" 
d="M1016 0h-914q-20 0 -20 20v226q0 11 8 24l289 416l-277 408q-8 8 -8 22v256q0 21 21 21h891q20 0 20 -21v-225q0 -21 -20 -21h-545v-6l270 -385q9 -16 2 -28l-305 -433v-6h588q20 0 20 -20v-228q0 -20 -20 -20z" />
    <glyph glyph-name="Tau" unicode="&#x3a4;" horiz-adv-x="1140" 
d="M700 0h-260q-20 0 -20 20v1092q0 12 -12 12h-353q-20 0 -20 21v227q0 21 20 21h1030q21 0 21 -21v-227q0 -21 -21 -21h-352q-12 0 -12 -12v-1092q0 -20 -21 -20z" />
    <glyph glyph-name="Upsilon" unicode="&#x3a5;" horiz-adv-x="1163" 
d="M719 0h-260q-21 0 -21 20v535l-411 817q-9 21 14 21h266q22 0 31 -21l252 -508h6l252 508q9 21 31 21h258q10 0 14.5 -6.5t-0.5 -14.5l-412 -817v-535q0 -20 -20 -20z" />
    <glyph glyph-name="Phi" unicode="&#x3a6;" horiz-adv-x="1632" 
d="M961 1446v-96q131 -4 236 -44.5t169 -105.5q170 -178 166 -495q0 -625 -571 -646v-112q0 -21 -21 -21h-246q-20 0 -20 21v112q-288 7 -431 174t-143 472q0 627 574 645v96q0 20 20 20h246q21 0 21 -20zM674 326v755q-151 -7 -209.5 -94t-58.5 -282q0 -89 9.5 -146.5
t33.5 -112.5q51 -108 225 -120zM958 1083v-755q174 9 226 121q25 55 34 110.5t9 145.5q0 200 -58 282q-60 84 -211 96z" />
    <glyph glyph-name="Chi" unicode="&#x3a7;" horiz-adv-x="1218" 
d="M1184 0h-285q-24 0 -35 20l-248 424h-6l-250 -424q-11 -20 -34 -20h-283q-10 0 -14 9t2 16l415 694l-387 649q-13 25 13 25h284q21 0 33 -21l221 -377h6l222 377q12 21 32 21h285q25 0 12 -25l-389 -649l418 -694q12 -25 -12 -25z" />
    <glyph glyph-name="Psi" unicode="&#x3a8;" horiz-adv-x="1513" 
d="M899 168v-148q0 -20 -20 -20h-244q-21 0 -21 20v148q-253 12 -378 131q-123 120 -123 403v672q0 19 22 19h240q22 0 22 -19v-688q0 -152 47 -205q46 -52 170 -55v946q0 21 21 21h244q20 0 20 -21v-946q124 3 170 55q47 53 47 205v688q0 19 23 19h239q23 0 23 -19v-672
q0 -284 -125 -403q-122 -119 -377 -131z" />
    <glyph glyph-name="uni03A9" unicode="&#x3a9;" horiz-adv-x="1302" 
d="M1184 0h-436q-21 0 -21 20v207q0 23 18 29q85 31 119.5 130.5t34.5 309.5q0 213 -25 299q-47 154 -223 154q-170 0 -223 -154q-25 -77 -25 -299q0 -208 35 -308.5t117 -131.5q20 -6 20 -29v-207q0 -20 -20 -20h-436q-21 0 -21 20v213q0 21 21 21h117v4
q-71 57 -104.5 158.5t-33.5 279.5q0 261 39 377q55 166 189 254t325 88t325 -88t189 -254q39 -116 39 -377q0 -180 -33 -281.5t-106 -156.5v-4h119q20 0 20 -21v-213q0 -20 -20 -20z" />
    <glyph glyph-name="Iotadieresis" unicode="&#x3aa;" horiz-adv-x="567" 
d="M133 20v1352q0 21 21 21h260q20 0 20 -21v-1352q0 -20 -20 -20h-260q-21 0 -21 20zM584 1556h-185q-20 0 -20 21v201q0 20 20 20h185q20 0 20 -20v-201q0 -21 -20 -21zM168 1556h-184q-21 0 -21 21v201q0 20 21 20h184q20 0 20 -20v-201q0 -21 -20 -21z" />
    <glyph glyph-name="Upsilondieresis" unicode="&#x3ab;" horiz-adv-x="1163" 
d="M719 0h-260q-21 0 -21 20v535l-411 817q-9 21 14 21h266q22 0 31 -21l252 -508h6l252 508q9 21 31 21h258q10 0 14.5 -6.5t-0.5 -14.5l-412 -817v-535q0 -20 -20 -20zM891 1556h-184q-21 0 -21 21v201q0 20 21 20h184q20 0 20 -20v-201q0 -21 -20 -21zM475 1556h-184
q-21 0 -21 21v201q0 20 21 20h184q21 0 21 -20v-201q0 -21 -21 -21z" />
    <glyph glyph-name="alphatonos" unicode="&#x3ac;" horiz-adv-x="1214" 
d="M463 -23q-203 0 -295 144q-92 145 -92 375q0 243 97 380.5t292 137.5q116 0 185 -38t126 -122h2q15 34 33 121q3 16 25 16h256q31 0 22 -41q-55 -226 -180 -526l20 -45q37 -82 67.5 -115t76.5 -33h20q25 0 25 -24v-199q0 -20 -21 -20h-59q-129 0 -184 30q-59 37 -103 109
h-2q-105 -150 -311 -150zM539 219q166 0 166 277q0 276 -166 276q-120 0 -154 -106q-18 -58 -18 -170t18 -170q34 -107 154 -107zM688 1128h-192q-20 0 -11 27l74 260q6 21 27 21h280q30 0 11 -31l-156 -256q-12 -21 -33 -21z" />
    <glyph glyph-name="epsilontonos" unicode="&#x3ad;" horiz-adv-x="927" 
d="M469 -23q-397 0 -397 293q0 166 168 254v2q-131 70 -131 213q0 277 401 277q186 0 301 -37q16 -6 18.5 -12.5t-0.5 -26.5l-32 -162q-3 -17 -25 -14q-126 27 -240 27q-137 0 -137 -91q0 -77 119 -77h127q29 0 29 -29v-166q0 -25 -27 -25h-156q-112 0 -112 -92t151 -92
q74 0 256 37q20 4 25 2t10 -14l43 -176q4 -18 -14 -27q-143 -64 -377 -64zM612 1128h-192q-19 0 -10 27l73 260q6 21 27 21h281q29 0 10 -31l-156 -256q-12 -21 -33 -21z" />
    <glyph glyph-name="etatonos" unicode="&#x3ae;" horiz-adv-x="1167" 
d="M426 0h-246q-20 0 -20 20v662q0 48 -13 67t-43 19q-22 0 -22 20v193q0 20 22 20q87 0 134 -8q58 -8 107 -47.5t65 -103.5h4q82 172 303 172q164 0 247 -102t83 -271v-989q0 -21 -21 -21h-246q-20 0 -20 21v936q0 182 -156 182q-69 0 -113.5 -46t-44.5 -128v-576
q0 -20 -20 -20zM618 1128h-192q-19 0 -10 27l73 260q6 21 27 21h281q29 0 10 -31l-156 -256q-12 -21 -33 -21z" />
    <glyph glyph-name="iotatonos" unicode="&#x3af;" horiz-adv-x="665" 
d="M387 -23q-143 0 -205.5 76t-62.5 228v690q0 20 20 20h246q21 0 21 -20v-645q0 -57 19 -81t62 -24q34 0 70 8q22 3 25 -12l41 -176q3 -13 -11 -23q-74 -41 -225 -41zM354 1128h-192q-19 0 -10 27l73 260q6 21 27 21h280q30 0 11 -31l-156 -256q-12 -21 -33 -21z" />
    <glyph glyph-name="upsilondieresistonos" unicode="&#x3b0;" horiz-adv-x="1136" 
d="M1018 1149h-191q-20 0 -20 20v203q0 21 20 21h191q20 0 20 -21v-203q0 -20 -20 -20zM289 1149h-189q-20 0 -20 20v203q0 21 20 21h189q20 0 20 -21v-203q0 -20 -20 -20zM612 1128h-204q-19 0 -13 21l33 266q6 21 27 21h290q21 0 9 -21l-113 -266q-9 -21 -29 -21zM580 -23
q-231 0 -336 117t-105 371v219q0 84 -51 84q-27 0 -27 20v193q0 20 21 20h70q153 0 213 -45q61 -46 61 -202v-353q0 -180 156 -180q155 0 155 180v570q0 20 21 20h246q20 0 20 -20v-506q0 -257 -105 -372.5t-339 -115.5z" />
    <glyph glyph-name="alpha" unicode="&#x3b1;" horiz-adv-x="1214" 
d="M463 -23q-203 0 -295 144q-92 145 -92 375q0 243 97 380.5t292 137.5q116 0 185 -38t126 -122h2q15 34 33 121q3 16 25 16h256q31 0 22 -41q-55 -226 -180 -526l20 -45q37 -82 67.5 -115t76.5 -33h20q25 0 25 -24v-199q0 -20 -21 -20h-59q-129 0 -184 30q-59 37 -103 109
h-2q-105 -150 -311 -150zM539 219q166 0 166 277q0 276 -166 276q-120 0 -154 -106q-18 -58 -18 -170t18 -170q34 -107 154 -107z" />
    <glyph glyph-name="beta" unicode="&#x3b2;" horiz-adv-x="1189" 
d="M395 -369h-245q-21 0 -21 21v1259q0 504 457 504q422 0 422 -358q0 -180 -138 -279v-4q109 -34 174.5 -123.5t65.5 -226.5q0 -195 -104 -320q-103 -127 -301 -127q-108 0 -172.5 21.5t-114.5 77.5h-2v-424q0 -21 -21 -21zM793 430q0 184 -177 184h-51q-20 0 -20 21v201
q0 20 20 20h37q146 0 146 156q0 77 -42 118t-118 41q-172 0 -172 -196v-526q0 -213 188 -213q189 0 189 194z" />
    <glyph glyph-name="gamma" unicode="&#x3b3;" horiz-adv-x="1112" 
d="M723 -352h-264q-21 0 -21 20l17 320l-250 637q-39 99 -58 118q-19 25 -65 25q-31 0 -31 20v193q0 20 23 20h26q161 0 224 -38q69 -37 112 -162l154 -445h4l57 156q96 269 105 459q0 20 22 20h256q17 0 17 -18q0 -81 -31 -199q-27 -112 -62 -203q-33 -97 -88 -227
l-143 -356q4 -91 8 -171.5t6 -114t2 -34.5q0 -20 -20 -20z" />
    <glyph glyph-name="delta" unicode="&#x3b4;" horiz-adv-x="1095" 
d="M545 -23q-214 0 -338.5 127.5t-124.5 348.5q0 323 276 452v2l-20 17q-113 91 -113 215q0 130 94.5 203t262.5 73q192 0 360 -53q15 -6 12 -21l-59 -196q-6 -19 -31 -10q-143 41 -219 41q-86 0 -86 -66q0 -52 82 -98l43 -25q334 -193 334 -524q0 -224 -120 -355t-353 -131
zM553 219q174 0 174 234q0 213 -170 290q-85 -20 -134.5 -93.5t-49.5 -198.5q0 -232 180 -232z" />
    <glyph glyph-name="epsilon" unicode="&#x3b5;" horiz-adv-x="927" 
d="M469 -23q-397 0 -397 293q0 166 168 254v2q-131 70 -131 213q0 277 401 277q186 0 301 -37q16 -6 18.5 -12.5t-0.5 -26.5l-32 -162q-3 -17 -25 -14q-126 27 -240 27q-137 0 -137 -91q0 -77 119 -77h127q29 0 29 -29v-166q0 -25 -27 -25h-156q-112 0 -112 -92t151 -92
q74 0 256 37q20 4 25 2t10 -14l43 -176q4 -18 -14 -27q-143 -64 -377 -64z" />
    <glyph glyph-name="zeta" unicode="&#x3b6;" horiz-adv-x="870" 
d="M551 -367q-17 -7 -23 9l-84 141q-6 14 11 24q65 35 87.5 61t22.5 60q0 21 -14 35q-13 13 -25 18.5t-55 20.5l-33 12q-187 70 -272 164q-86 95 -86 281t100 364q101 183 275 328v2h-293q-21 0 -21 21v198q0 21 21 21h684q20 0 20 -21v-184q-489 -360 -489 -684
q0 -98 45 -146q49 -49 178 -106l55 -25q99 -45 146 -99.5t47 -141.5q0 -52 -8.5 -88t-36.5 -80q-52 -98 -252 -185z" />
    <glyph glyph-name="eta" unicode="&#x3b7;" horiz-adv-x="1167" 
d="M426 0h-246q-20 0 -20 20v662q0 48 -13 67t-43 19q-22 0 -22 20v193q0 20 22 20q87 0 134 -8q58 -8 107 -47.5t65 -103.5h4q82 172 303 172q164 0 247 -102t83 -271v-989q0 -21 -21 -21h-246q-20 0 -20 21v936q0 182 -156 182q-69 0 -113.5 -46t-44.5 -128v-576
q0 -20 -20 -20z" />
    <glyph glyph-name="theta" unicode="&#x3b8;" horiz-adv-x="1118" 
d="M373 809h372q-2 198 -44 282.5t-142 84.5q-98 0 -141.5 -83t-44.5 -284zM559 -23q-114 0 -203 41.5t-143 110.5q-52 72 -78 168q-47 160 -47 408q0 369 118.5 540.5t352.5 171.5q471 0 471 -712q0 -132 -8 -215.5t-35 -178.5q-39 -149 -141 -234.5t-287 -99.5zM745 590
h-372q3 -210 39 -289q40 -82 147 -82q109 0 146 82q37 75 40 289z" />
    <glyph glyph-name="iota" unicode="&#x3b9;" horiz-adv-x="696" 
d="M387 -23q-143 0 -205.5 76t-62.5 228v690q0 20 20 20h246q21 0 21 -20v-645q0 -57 19 -81t62 -24q34 0 70 8q22 3 25 -12l41 -176q3 -13 -11 -23q-74 -41 -225 -41z" />
    <glyph glyph-name="kappa" unicode="&#x3ba;" horiz-adv-x="1134" 
d="M1087 0h-278q-20 0 -31 20l-219 324l-143 -164v-160q0 -20 -21 -20h-245q-21 0 -21 20v951q0 20 21 20h245q21 0 21 -20v-422l237 305q73 86 133 115q60 32 164 32h68q20 0 20 -20v-190q0 -23 -22 -23h-15q-50 0 -71 -12q-26 -15 -76 -76l-111 -131l357 -529q5 -8 1 -14
t-14 -6z" />
    <glyph glyph-name="lambda" unicode="&#x3bb;" horiz-adv-x="1107" 
d="M313 0h-268q-25 0 -12 25l383 854l-80 200q-19 47 -41 63.5t-66 16.5h-10q-20 0 -20 21v192q0 21 18 21h45q145 0 221 -54q78 -53 138 -206l315 -791q27 -68 47 -89.5t61 -21.5h13q22 0 22 -20v-201q0 -22 -20 -22h-72q-133 0 -194 43q-59 47 -99 141l-143 356h-2
l-209 -508q-9 -20 -27 -20z" />
    <glyph glyph-name="uni03BC" unicode="&#x3bc;" horiz-adv-x="1232" 
d="M780 125h-2q-43 -78 -100.5 -108.5t-151.5 -30.5q-72 0 -110 30h-2v-364q0 -21 -21 -21h-246q-20 0 -20 21v1319q0 20 20 20h246q21 0 21 -20v-568q0 -85 39 -132.5t112 -47.5q78 0 123 53t45 146v549q0 20 21 20h245q21 0 21 -20v-670q0 -39 12.5 -54.5t46.5 -15.5
q21 0 21 -20v-193q0 -30 -23 -30h-35q-131 0 -180 32q-52 34 -82 105z" />
    <glyph glyph-name="nu" unicode="&#x3bd;" horiz-adv-x="1040" 
d="M657 0h-245q-19 0 -25 20l-358 951q-6 20 16 20h264q20 0 29 -20l197 -588h4l75 211q74 210 74 377q0 20 23 20h258q16 0 16 -18q0 -217 -168 -621l-135 -332q-6 -20 -25 -20z" />
    <glyph glyph-name="xi" unicode="&#x3be;" horiz-adv-x="921" 
d="M549 -358l-84 141q-6 15 10 24q51 30 77 53t30.5 35.5t3.5 30.5q0 25 -18.5 39.5t-69.5 32.5l-52 18q-201 71 -284 154q-82 82 -82 219q0 222 221 336v4q-149 73 -149 223q0 72 38.5 125t100.5 74v2h-150q-20 0 -20 21v198q0 21 20 21h705q20 0 20 -21v-209l-237 -14
q-176 -9 -176 -148q0 -145 182 -145h127q20 0 20 -20v-213q0 -21 -16 -21h-143q-99 0 -158 -42.5t-59 -129.5q0 -65 36 -97t138 -71l63 -24q124 -49 174.5 -108.5t50.5 -152.5q0 -92 -47 -163q-54 -98 -250 -181q-15 -9 -22 9z" />
    <glyph glyph-name="omicron" unicode="&#x3bf;" horiz-adv-x="1085" 
d="M113 256q-33 100 -33 240q0 139 33 239q43 133 156 206t274 73t274 -73t156 -206q33 -100 33 -239q0 -140 -33 -240q-43 -133 -156 -206t-274 -73t-274 73t-156 206zM696 326q19 62 19 170t-19 170q-34 106 -153 106q-120 0 -154 -106q-18 -58 -18 -170t18 -170
q34 -107 154 -107q119 0 153 107z" />
    <glyph glyph-name="pi" unicode="&#x3c0;" horiz-adv-x="1239" 
d="M1112 -12h-63q-158 0 -228.5 74t-70.5 239v430q0 12 -13 12h-256q-12 0 -12 -12v-711q0 -20 -20 -20h-244q-21 0 -21 20v711q0 12 -12 12h-90q-21 0 -21 21v207q0 20 21 20h1055q20 0 20 -20v-207q0 -21 -20 -21h-90q-13 0 -13 -12v-416q0 -47 15.5 -65.5t52.5 -18.5h10
q21 0 21 -20v-203q0 -20 -21 -20z" />
    <glyph glyph-name="rho" unicode="&#x3c1;" horiz-adv-x="1103" 
d="M365 -369h-246q-21 0 -21 31v850q0 119 31.5 216t81.5 151q130 139 348 135q215 0 342 -127q123 -126 123 -391q0 -144 -37 -252.5t-102 -165.5q-115 -101 -262 -101q-156 0 -236 89h-2v-414q0 -21 -20 -21zM715 326q18 58 18 170t-18 170q-34 106 -154 106
q-119 0 -153 -106q-19 -62 -19 -170t19 -170q34 -107 153 -107q120 0 154 107z" />
    <glyph glyph-name="sigma1" unicode="&#x3c2;" horiz-adv-x="901" 
d="M492 -358l-82 137q-10 19 8 28q66 36 88 62t22 59q0 31 -21 54.5t-81 58.5q-185 104 -268 209q-86 109 -86 280q0 225 129 354.5t350 129.5q191 0 309 -53q22 -10 14 -35l-47 -174q-6 -21 -11.5 -26t-18.5 -1q-124 37 -207 37q-104 0 -160.5 -59t-56.5 -164q0 -36 10 -74
q25 -54 55 -82q12 -9 26 -21t30 -24l32 -21q6 -3 22 -12t34 -20t22 -13q112 -67 159.5 -131.5t47.5 -154.5q0 -52 -9.5 -89.5t-37.5 -82.5q-63 -101 -250 -181q-13 -5 -22 9z" />
    <glyph glyph-name="sigma" unicode="&#x3c3;" horiz-adv-x="1167" 
d="M537 -23q-164 0 -276 74.5t-155 206.5q-32 95 -32 238q0 495 534 495h477q21 0 21 -20v-191q0 -20 -21 -20h-192v-2q106 -81 106 -271q0 -134 -32 -229q-44 -136 -156.5 -208.5t-273.5 -72.5zM543 219q115 0 149 113q17 60 17 178q0 101 -19.5 157t-71.5 87h-36
q-113 0 -165 -59.5t-52 -188.5q0 -124 18 -182q35 -105 160 -105z" />
    <glyph glyph-name="tau" unicode="&#x3c4;" horiz-adv-x="905" 
d="M283 272v459q0 12 -13 12h-209q-20 0 -20 21v207q0 20 20 20h762q21 0 21 -20v-207q0 -21 -21 -21h-241q-13 0 -13 -12v-397q0 -66 22.5 -89.5t80.5 -23.5q18 0 76 10q17 3 20 -12l37 -186q3 -13 -14 -23q-73 -33 -230 -33q-145 0 -211.5 72t-66.5 223z" />
    <glyph glyph-name="upsilon" unicode="&#x3c5;" horiz-adv-x="1136" 
d="M580 -23q-231 0 -336 117t-105 371v219q0 84 -51 84q-27 0 -27 20v193q0 20 21 20h70q153 0 213 -45q61 -46 61 -202v-353q0 -180 156 -180q155 0 155 180v570q0 20 21 20h246q20 0 20 -20v-506q0 -257 -105 -372.5t-339 -115.5z" />
    <glyph glyph-name="phi" unicode="&#x3c6;" horiz-adv-x="1402" 
d="M569 215v569q-110 -5 -157 -68t-47 -210q0 -72 9 -122.5t31.5 -90t63 -58.5t100.5 -20zM834 -31v-317q0 -21 -15 -21h-229q-21 0 -21 21v317q-244 9 -368 154q-123 144 -123 377q0 239 125.5 381t365.5 149v178q0 21 21 21h229q15 0 15 -21v-178q241 -10 366 -148.5
t125 -383.5q0 -79 -14.5 -151t-50.5 -140.5t-90.5 -119t-140.5 -83t-195 -35.5zM834 784v-569q116 0 160 69t44 212q0 156 -46.5 219.5t-157.5 68.5z" />
    <glyph glyph-name="chi" unicode="&#x3c7;" horiz-adv-x="1169" 
d="M336 -369h-252q-29 0 -8 37l379 684l-199 340q-29 48 -49.5 62t-59.5 14h-18q-23 0 -23 23v188q0 22 19 22h76q135 0 200 -45q70 -45 136 -180l81 -158h3l180 355q9 18 28 18h275q11 0 14 -10.5t-4 -17.5l-350 -625l186 -338q43 -77 77 -107t73 -30h26q22 0 25 -23v-198
q0 -23 -18 -23h-41q-137 0 -205 35q-69 37 -131 141l-164 279h-2l-225 -422q-9 -21 -29 -21z" />
    <glyph glyph-name="psi" unicode="&#x3c8;" horiz-adv-x="1454" 
d="M846 -369h-223q-21 0 -21 21v317q-249 5 -360.5 108t-110.5 345l2 260q0 53 -8.5 69.5t-38.5 16.5q-20 0 -20 20v193q0 20 20 20h76q135 0 196.5 -51t61.5 -186v-338q0 -118 39.5 -160t142.5 -47v1010q0 20 21 20h223q20 0 20 -20v-1010q101 2 143 47t42 160v545
q0 20 20 20h246q20 0 20 -20v-549q0 -220 -94 -328q-43 -50 -106 -76q-63 -28 -121.5 -37.5t-149.5 -11.5v-317q0 -21 -20 -21z" />
    <glyph glyph-name="omega" unicode="&#x3c9;" horiz-adv-x="1464" 
d="M455 -23q-369 0 -369 457q0 179 43 327t117 238q10 10 28 5l226 -76q20 -6 8 -27q-127 -230 -127 -465q0 -108 24.5 -153t81.5 -45q58 0 82.5 47t24.5 164v198q0 29 22 29h232q22 0 22 -29v-198q0 -113 24 -162t85 -49q57 0 80.5 44.5t23.5 153.5q0 235 -127 465
q-9 21 7 27l227 76q19 8 29 -5q159 -202 159 -559q0 -463 -368 -463q-205 0 -275 187h-6q-37 -98 -101 -142.5t-173 -44.5z" />
    <glyph glyph-name="iotadieresis" unicode="&#x3ca;" horiz-adv-x="665" 
d="M561 1149h-190q-21 0 -21 20v203q0 21 21 21h190q21 0 21 -21v-203q0 -20 -21 -20zM150 1149h-189q-20 0 -20 20v203q0 21 20 21h189q20 0 20 -21v-203q0 -20 -20 -20zM387 -23q-143 0 -205.5 76t-62.5 228v690q0 20 20 20h246q21 0 21 -20v-645q0 -57 19 -81t62 -24
q34 0 70 8q22 3 25 -12l41 -176q3 -13 -11 -23q-74 -41 -225 -41z" />
    <glyph glyph-name="upsilondieresis" unicode="&#x3cb;" horiz-adv-x="1136" 
d="M580 -23q-231 0 -336 117t-105 371v219q0 84 -51 84q-27 0 -27 20v193q0 20 21 20h70q153 0 213 -45q61 -46 61 -202v-353q0 -180 156 -180q155 0 155 180v570q0 20 21 20h246q20 0 20 -20v-506q0 -257 -105 -372.5t-339 -115.5zM854 1149h-190q-21 0 -21 20v203
q0 21 21 21h190q20 0 20 -21v-203q0 -20 -20 -20zM442 1149h-188q-21 0 -21 20v203q0 21 21 21h188q21 0 21 -21v-203q0 -20 -21 -20z" />
    <glyph glyph-name="omicrontonos" unicode="&#x3cc;" horiz-adv-x="1085" 
d="M113 256q-33 100 -33 240q0 139 33 239q43 133 156 206t274 73t274 -73t156 -206q33 -100 33 -239q0 -140 -33 -240q-43 -133 -156 -206t-274 -73t-274 73t-156 206zM696 326q19 62 19 170t-19 170q-34 106 -153 106q-120 0 -154 -106q-18 -58 -18 -170t18 -170
q34 -107 154 -107q119 0 153 107zM631 1128h-193q-19 0 -10 27l74 260q6 21 26 21h281q29 0 10 -31l-155 -256q-12 -21 -33 -21z" />
    <glyph glyph-name="upsilontonos" unicode="&#x3cd;" horiz-adv-x="1136" 
d="M580 -23q-231 0 -336 117t-105 371v219q0 84 -51 84q-27 0 -27 20v193q0 20 21 20h70q153 0 213 -45q61 -46 61 -202v-353q0 -180 156 -180q155 0 155 180v570q0 20 21 20h246q20 0 20 -20v-506q0 -257 -105 -372.5t-339 -115.5zM623 1128h-193q-19 0 -10 27l74 260
q6 21 26 21h281q29 0 10 -31l-156 -256q-12 -21 -32 -21z" />
    <glyph glyph-name="omegatonos" unicode="&#x3ce;" horiz-adv-x="1464" 
d="M455 -23q-369 0 -369 457q0 179 43 327t117 238q10 10 28 5l226 -76q20 -6 8 -27q-127 -230 -127 -465q0 -108 24.5 -153t81.5 -45q58 0 82.5 47t24.5 164v198q0 29 22 29h232q22 0 22 -29v-198q0 -113 24 -162t85 -49q57 0 80.5 44.5t23.5 153.5q0 235 -127 465
q-9 21 7 27l227 76q19 8 29 -5q159 -202 159 -559q0 -463 -368 -463q-205 0 -275 187h-6q-37 -98 -101 -142.5t-173 -44.5zM821 1128h-192q-20 0 -11 27l74 260q6 21 27 21h280q30 0 11 -31l-156 -256q-12 -21 -33 -21z" />
    <glyph glyph-name="uni0400" unicode="&#x400;" horiz-adv-x="1157" 
d="M1047 0h-893q-21 0 -21 20v1352q0 21 21 21h893q20 0 20 -21v-219q0 -20 -20 -20h-601q-12 0 -12 -13v-276q0 -13 12 -13h500q21 0 21 -20v-217q0 -21 -21 -21h-500q-12 0 -12 -12v-289q0 -12 12 -12h601q20 0 20 -20v-220q0 -20 -20 -20zM737 1544h-190q-20 0 -39 19
l-252 237q-6 8 -3 14.5t13 6.5h246q24 0 39 -21l194 -235q6 -7 3 -14t-11 -7z" />
    <glyph glyph-name="uni0401" unicode="&#x401;" horiz-adv-x="1157" 
d="M1047 0h-893q-21 0 -21 20v1352q0 21 21 21h893q20 0 20 -21v-219q0 -20 -20 -20h-601q-12 0 -12 -13v-276q0 -13 12 -13h500q21 0 21 -20v-217q0 -21 -21 -21h-500q-12 0 -12 -12v-289q0 -12 12 -12h601q20 0 20 -20v-220q0 -20 -20 -20zM895 1556h-184q-21 0 -21 21
v201q0 20 21 20h184q20 0 20 -20v-201q0 -21 -20 -21zM479 1556h-184q-21 0 -21 21v201q0 20 21 20h184q21 0 21 -20v-201q0 -21 -21 -21z" />
    <glyph glyph-name="uni0402" unicode="&#x402;" horiz-adv-x="1536" 
d="M705 0h-261q-20 0 -20 20v1092q0 12 -10 12h-359q-20 0 -20 21v227q0 21 20 21h1039q20 0 20 -21v-227q0 -21 -20 -21h-357q-12 0 -12 -12v-274q0 -16 18 -13q168 43 324 43q165 0 285 -102q121 -103 121 -311q0 -218 -126 -336.5t-374 -118.5h-64q-18 0 -18 20v222
q0 18 20 18h50q210 0 210 176q0 77 -55 120.5t-143 43.5q-125 0 -232 -43q-16 -6 -16 -25v-512q0 -20 -20 -20z" />
    <glyph glyph-name="uni0403" unicode="&#x403;" horiz-adv-x="1024" 
d="M414 0h-260q-21 0 -21 20v1352q0 21 21 21h827q20 0 20 -21v-229q0 -19 -20 -19h-535q-12 0 -12 -12v-1092q0 -20 -20 -20zM600 1544h-190q-8 0 -11.5 7t2.5 14l195 235q15 21 39 21h246q10 0 13 -6.5t-3 -14.5l-252 -237q-19 -19 -39 -19z" />
    <glyph glyph-name="uni0404" unicode="&#x404;" horiz-adv-x="1181" 
d="M645 -25q-182 0 -312.5 82t-187.5 234q-49 128 -49 407q0 253 41 381q53 165 186 250.5t322 85.5q355 0 475 -293q5 -19 -10 -28l-213 -95q-19 -9 -29 11q-70 147 -219 147q-85 0 -145.5 -40t-83.5 -113q-20 -55 -23 -158q0 -15 15 -15h370q19 0 19 -20v-215
q0 -18 -19 -18h-370q-15 0 -15 -15q3 -124 27 -186q24 -68 84.5 -104.5t140.5 -36.5q151 0 221 147q10 20 29 10l211 -96q18 -9 10 -29q-60 -142 -182 -217.5t-293 -75.5z" />
    <glyph glyph-name="uni0405" unicode="&#x405;" horiz-adv-x="1218" 
d="M616 -23q-154 0 -305 54q-151 57 -231 137q-17 17 -2 35l155 178q13 17 31 2q180 -143 365 -143q105 0 166 45t61 121q0 67 -48.5 102.5t-166.5 52.5l-74 10q-440 62 -440 418q0 191 133 309q135 117 361 117q284 0 473 -145q19 -13 4 -31l-125 -186q-13 -16 -29 -6
q-160 106 -323 106q-89 0 -138 -41.5t-49 -110.5q0 -62 51 -99t166 -54l74 -10q438 -58 438 -422q0 -200 -144.5 -319.5t-402.5 -119.5z" />
    <glyph glyph-name="uni0406" unicode="&#x406;" horiz-adv-x="567" 
d="M133 20v1352q0 21 21 21h260q20 0 20 -21v-1352q0 -20 -20 -20h-260q-21 0 -21 20z" />
    <glyph glyph-name="uni0407" unicode="&#x407;" horiz-adv-x="567" 
d="M133 20v1352q0 21 21 21h260q20 0 20 -21v-1352q0 -20 -20 -20h-260q-21 0 -21 20zM584 1556h-185q-20 0 -20 21v201q0 20 20 20h185q20 0 20 -20v-201q0 -21 -20 -21zM168 1556h-184q-21 0 -21 21v201q0 20 21 20h184q20 0 20 -20v-201q0 -21 -20 -21z" />
    <glyph glyph-name="uni0408" unicode="&#x408;" horiz-adv-x="1067" 
d="M53 156q-10 19 2 28l191 146q15 9 28 -4q70 -82 170 -82q99 0 152 62t53 179v887q0 21 21 21h260q20 0 20 -21v-872q0 -252 -132.5 -387.5t-375.5 -135.5q-123 0 -231 50t-158 129z" />
    <glyph glyph-name="uni0409" unicode="&#x409;" horiz-adv-x="2068" 
d="M125 -8h-84q-21 0 -21 20v230q0 18 21 18h27q107 0 168 98q61 101 61 377v639q0 19 20 19h914q18 0 18 -19v-469q0 -12 13 -12h249q231 0 362.5 -120.5t131.5 -323.5q0 -205 -131 -327t-363 -122h-544q-19 0 -19 20v1092q0 12 -12 12h-332q-12 0 -12 -12v-395
q0 -396 -115 -561q-114 -164 -352 -164zM1262 260h231q100 0 155.5 51t55.5 142q0 88 -54 135t-157 47h-231q-13 0 -13 -12v-351q0 -12 13 -12z" />
    <glyph glyph-name="uni040A" unicode="&#x40a;" horiz-adv-x="2015" 
d="M414 0h-260q-21 0 -21 20v1352q0 21 21 21h260q20 0 20 -21v-498q0 -12 12 -12h455q12 0 12 12v498q0 21 21 21h260q20 0 20 -21v-498q0 -12 13 -12h272q208 0 330 -119q123 -117 123 -309q0 -193 -123 -313q-124 -121 -330 -121h-565q-21 0 -21 20v562q0 12 -12 12h-455
q-12 0 -12 -12v-562q0 -20 -20 -20zM1227 260h243q84 0 132.5 47t48.5 127t-48.5 126t-132.5 46h-243q-13 0 -13 -12v-322q0 -12 13 -12z" />
    <glyph glyph-name="uni040B" unicode="&#x40b;" horiz-adv-x="1550" 
d="M705 0h-261q-20 0 -20 20v1092q0 12 -10 12h-359q-20 0 -20 21v227q0 21 20 21h1039q20 0 20 -21v-227q0 -21 -20 -21h-357q-9 0 -12 -8v-276q0 -21 20 -15q168 43 322 43q373 0 373 -366v-484q0 -18 -19 -18h-262q-20 0 -20 18v424q0 158 -166 158q-85 0 -215 -31
q-33 -9 -33 -32v-517q0 -20 -20 -20z" />
    <glyph glyph-name="uni040C" unicode="&#x40c;" horiz-adv-x="1320" 
d="M414 0h-260q-21 0 -21 20v1352q0 21 21 21h260q20 0 20 -21v-520q0 -12 12 -12h99q117 0 164 121l88 217q49 123 122 173t197 50h86q21 0 21 -21v-221q0 -18 -21 -18h-18q-55 0 -83.5 -20t-51.5 -74l-68 -170q-44 -121 -117 -148v-8q92 -27 135 -143l84 -224
q20 -55 47 -74.5t82 -19.5h23q20 0 20 -18v-230q0 -20 -20 -20h-98q-126 0 -201.5 51.5t-122.5 173.5l-88 229q-46 125 -182 125h-97q-12 0 -12 -12v-539q0 -20 -20 -20zM743 1544h-190q-8 0 -11 7t3 14l194 235q15 21 39 21h246q10 0 13 -6.5t-3 -14.5l-252 -237
q-19 -19 -39 -19z" />
    <glyph glyph-name="uni040D" unicode="&#x40d;" horiz-adv-x="1368" 
d="M391 0h-239q-19 0 -19 20v1354q0 19 19 19h264q18 0 18 -19v-856h6l508 858q10 17 29 17h240q18 0 18 -19v-1354q0 -20 -18 -20h-263q-20 0 -20 20v859h-6l-508 -863q-10 -16 -29 -16zM819 1544h-190q-20 0 -39 19l-252 237q-6 8 -3 14.5t13 6.5h246q24 0 39 -21
l194 -235q6 -7 3 -14t-11 -7z" />
    <glyph glyph-name="uni040E" unicode="&#x40e;" horiz-adv-x="1202" 
d="M358 -8h-135q-20 0 -20 20v230q0 18 20 18h82q114 0 154 88l28 64l-450 956q-13 25 12 25h275q20 0 30 -19l275 -616h6l242 616q9 19 28 19h275q20 0 10 -23l-485 -1134q-105 -244 -347 -244zM631 1505q-263 0 -312 246q-6 26 11 29l137 18q18 3 25 -14q30 -94 139 -94
q105 0 139 94q7 17 25 14l135 -18q16 -3 10 -29q-49 -246 -309 -246z" />
    <glyph glyph-name="uni040F" unicode="&#x40f;" horiz-adv-x="1331" 
d="M786 -272h-241q-19 0 -19 20v240q0 12 -12 12h-362q-19 0 -19 18v1354q0 21 19 21h264q18 0 18 -21v-1091q0 -13 12 -13h439q12 0 12 13v1091q0 21 18 21h265q18 0 18 -21v-1354q0 -18 -20 -18h-361q-12 0 -12 -12v-240q0 -20 -19 -20z" />
    <glyph glyph-name="uni0410" unicode="&#x410;" horiz-adv-x="1318" 
d="M35 20l479 1352q6 21 27 21h258q20 0 26 -21l471 -1352q6 -20 -14 -20h-266q-21 0 -27 20l-80 244h-487l-78 -244q-6 -20 -27 -20h-268q-20 0 -14 20zM664 1008l-158 -488h321l-157 488h-6z" />
    <glyph glyph-name="uni0411" unicode="&#x411;" horiz-adv-x="1251" 
d="M719 0h-567q-19 0 -19 20v1354q0 19 19 19h913q20 0 20 -19v-223q0 -21 -20 -21h-619q-12 0 -12 -12v-248q0 -12 12 -12h273q208 0 330 -119q122 -116 122 -309q0 -192 -122 -311t-330 -119zM446 256h244q84 0 132 47t48 127t-48 126t-132 46h-244q-12 0 -12 -12v-322
q0 -12 12 -12z" />
    <glyph glyph-name="uni0412" unicode="&#x412;" horiz-adv-x="1249" 
d="M682 0h-528q-21 0 -21 20v1352q0 21 21 21h542q218 0 331.5 -98t113.5 -273q0 -207 -162 -295v-8q79 -31 132.5 -116t53.5 -197q0 -201 -124.5 -303.5t-358.5 -102.5zM446 244h230q91 0 139.5 45.5t48.5 128.5q0 82 -49 128t-139 46h-230q-12 0 -12 -12v-324
q0 -12 12 -12zM446 823h213q86 0 134.5 43t48.5 121q0 75 -48.5 118.5t-134.5 43.5h-213q-12 0 -12 -12v-301q0 -13 12 -13z" />
    <glyph glyph-name="uni0413" unicode="&#x413;" horiz-adv-x="1024" 
d="M414 0h-260q-21 0 -21 20v1352q0 21 21 21h827q20 0 20 -21v-229q0 -19 -20 -19h-535q-12 0 -12 -12v-1092q0 -20 -20 -20z" />
    <glyph glyph-name="uni0414" unicode="&#x414;" horiz-adv-x="1406" 
d="M268 -272h-241q-17 0 -17 20v502q0 18 19 18h77q26 0 33 17q82 171 115 358q37 191 37 547v184q0 19 20 19h908q18 0 18 -21v-1091q0 -13 12 -13h115q20 0 20 -18v-502q0 -20 -18 -20h-242q-16 0 -16 20v240q0 12 -12 12h-797q-12 0 -12 -12v-240q0 -20 -19 -20zM461 268
h463q12 0 12 13v831q0 12 -12 12h-328q-12 0 -12 -12v-20q0 -539 -135 -809q-9 -15 12 -15z" />
    <glyph glyph-name="uni0415" unicode="&#x415;" horiz-adv-x="1157" 
d="M1047 0h-893q-21 0 -21 20v1352q0 21 21 21h893q20 0 20 -21v-219q0 -20 -20 -20h-601q-12 0 -12 -13v-276q0 -13 12 -13h500q21 0 21 -20v-217q0 -21 -21 -21h-500q-12 0 -12 -12v-289q0 -12 12 -12h601q20 0 20 -20v-220q0 -20 -20 -20z" />
    <glyph glyph-name="uni0416" unicode="&#x416;" horiz-adv-x="1992" 
d="M184 -10h-98q-20 0 -20 20v230q0 18 20 18h18q55 0 84.5 20.5t49.5 75.5l81 224q43 116 138 143v8q-69 23 -119 148l-68 170q-24 55 -50.5 74.5t-82.5 19.5h-20q-21 0 -21 18v221q0 21 21 21h86q121 0 195 -52t124 -171l88 -217q50 -123 166 -123h58q12 0 12 12v522
q0 21 20 21h260q21 0 21 -21v-522q0 -12 12 -12h55q116 0 166 123l88 217q50 119 124.5 171t195.5 52h86q20 0 20 -21v-221q0 -18 -20 -18h-21q-56 0 -82.5 -19.5t-50.5 -74.5l-67 -170q-50 -125 -119 -148v-8q94 -27 137 -143l82 -224q20 -55 49 -75.5t84 -20.5h21
q20 0 20 -18v-230q0 -20 -20 -20h-101q-124 0 -200.5 53.5t-120.5 173.5l-88 229q-49 129 -183 129h-55q-12 0 -12 -12v-543q0 -20 -21 -20h-260q-20 0 -20 20v543q0 12 -12 12h-56q-134 0 -184 -129l-88 -229q-44 -120 -121 -173.5t-201 -53.5z" />
    <glyph glyph-name="uni0417" unicode="&#x417;" horiz-adv-x="1187" 
d="M594 -23q-352 0 -526 168q-16 9 0 31l127 180q9 14 24 2q163 -120 350 -120q92 0 158 48t66 120q0 85 -56.5 130.5t-152.5 45.5h-150q-18 0 -18 20v211q0 21 18 21h150q88 0 138 45.5t50 124.5q0 73 -55.5 113t-153.5 40q-166 0 -303 -104q-22 -12 -31 0l-120 180
q-10 20 2 29q206 153 477 153q227 0 358 -105t131 -288q0 -100 -46.5 -180.5t-127.5 -118.5v-4q89 -33 143 -118.5t54 -199.5q0 -190 -144 -307q-141 -117 -362 -117z" />
    <glyph glyph-name="uni0418" unicode="&#x418;" horiz-adv-x="1368" 
d="M391 0h-239q-19 0 -19 20v1354q0 19 19 19h264q18 0 18 -19v-856h6l508 858q10 17 29 17h240q18 0 18 -19v-1354q0 -20 -18 -20h-263q-20 0 -20 20v859h-6l-508 -863q-10 -16 -29 -16z" />
    <glyph glyph-name="uni0419" unicode="&#x419;" horiz-adv-x="1368" 
d="M391 0h-239q-19 0 -19 20v1354q0 19 19 19h264q18 0 18 -19v-856h6l508 858q10 17 29 17h240q18 0 18 -19v-1354q0 -20 -18 -20h-263q-20 0 -20 20v859h-6l-508 -863q-10 -16 -29 -16zM684 1505q-261 0 -311 246q-6 26 10 29l137 18q18 3 25 -14q30 -94 139 -94
q105 0 139 94q7 17 25 14l135 -18q16 -3 10 -29q-49 -246 -309 -246z" />
    <glyph glyph-name="uni041A" unicode="&#x41a;" horiz-adv-x="1320" 
d="M414 0h-260q-21 0 -21 20v1352q0 21 21 21h260q20 0 20 -21v-520q0 -12 12 -12h99q117 0 164 121l88 217q49 123 122 173t197 50h86q21 0 21 -21v-221q0 -18 -21 -18h-18q-55 0 -83.5 -20t-51.5 -74l-68 -170q-44 -121 -117 -148v-8q92 -27 135 -143l84 -224
q20 -55 47 -74.5t82 -19.5h23q20 0 20 -18v-230q0 -20 -20 -20h-98q-126 0 -201.5 51.5t-122.5 173.5l-88 229q-46 125 -182 125h-97q-12 0 -12 -12v-539q0 -20 -20 -20z" />
    <glyph glyph-name="uni041B" unicode="&#x41b;" horiz-adv-x="1382" 
d="M139 -8h-98q-21 0 -21 20v230q0 18 21 18h27q107 0 168 98q61 101 61 377v639q0 19 20 19h914q18 0 18 -19v-1354q0 -20 -16 -20h-266q-19 0 -19 20v1092q0 12 -12 12h-332q-12 0 -12 -12v-395q0 -396 -113 -561q-111 -164 -340 -164z" />
    <glyph glyph-name="uni041C" unicode="&#x41c;" horiz-adv-x="1562" 
d="M385 0h-231q-21 0 -21 20v1352q0 21 21 21h243q24 0 33 -21l352 -794h9l346 794q9 21 32 21h240q21 0 21 -21v-1352q0 -20 -21 -20h-231q-21 0 -21 20v785h-8l-258 -588q-12 -27 -39 -27h-141q-27 0 -39 27l-258 588h-8v-785q0 -20 -21 -20z" />
    <glyph glyph-name="uni041D" unicode="&#x41d;" horiz-adv-x="1347" 
d="M414 0h-260q-21 0 -21 20v1352q0 21 21 21h260q20 0 20 -21v-522q0 -12 12 -12h455q12 0 12 12v522q0 21 21 21h260q20 0 20 -21v-1352q0 -20 -20 -20h-260q-21 0 -21 20v537q0 12 -12 12h-455q-12 0 -12 -12v-537q0 -20 -20 -20z" />
    <glyph glyph-name="uni041E" unicode="&#x41e;" horiz-adv-x="1286" 
d="M135 315q-39 118 -39 381t39 381q53 164 186.5 251t321.5 87t321.5 -87t186.5 -251q39 -118 39 -381t-39 -381q-53 -164 -186.5 -251t-321.5 -87t-321.5 87t-186.5 251zM862 397q23 74 23 299t-23 299q-50 154 -219 154t-219 -154q-23 -74 -23 -299t23 -299
q50 -153 219 -153t219 153z" />
    <glyph glyph-name="uni041F" unicode="&#x41f;" horiz-adv-x="1331" 
d="M416 0h-264q-19 0 -19 20v1354q0 19 19 19h1026q20 0 20 -19v-1354q0 -20 -18 -20h-265q-18 0 -18 20v1092q0 12 -12 12h-439q-12 0 -12 -12v-1092q0 -20 -18 -20z" />
    <glyph glyph-name="uni0420" unicode="&#x420;" horiz-adv-x="1239" 
d="M414 0h-260q-21 0 -21 20v1352q0 21 21 21h540q226 0 355 -123q131 -122 131 -326q0 -198 -131 -323q-132 -123 -355 -123h-248q-12 0 -12 -13v-465q0 -20 -20 -20zM446 758h230q94 0 148.5 50t54.5 136t-55 137.5t-148 51.5h-230q-12 0 -12 -13v-350q0 -12 12 -12z" />
    <glyph glyph-name="uni0421" unicode="&#x421;" horiz-adv-x="1177" 
d="M631 -23q-185 0 -313 87.5t-183 254.5q-39 110 -39 377t39 377q55 167 183 254.5t313 87.5q176 0 300.5 -80t184.5 -229q10 -19 -10 -25l-223 -100q-20 -10 -29 10q-68 158 -221 158q-159 0 -209 -154q-23 -77 -23 -299t23 -299q50 -153 209 -153q153 0 221 157
q9 21 29 11l223 -101q19 -5 10 -24q-61 -149 -185 -229.5t-300 -80.5z" />
    <glyph glyph-name="uni0422" unicode="&#x422;" horiz-adv-x="1140" 
d="M700 0h-260q-20 0 -20 20v1092q0 12 -12 12h-353q-20 0 -20 21v227q0 21 20 21h1030q21 0 21 -21v-227q0 -21 -21 -21h-352q-12 0 -12 -12v-1092q0 -20 -21 -20z" />
    <glyph glyph-name="uni0423" unicode="&#x423;" horiz-adv-x="1202" 
d="M358 -8h-135q-20 0 -20 20v230q0 18 20 18h82q114 0 154 88l28 64l-450 956q-13 25 12 25h275q20 0 30 -19l275 -616h6l242 616q9 19 28 19h275q20 0 10 -23l-485 -1134q-105 -244 -347 -244z" />
    <glyph glyph-name="uni0424" unicode="&#x424;" horiz-adv-x="1638" 
d="M950 -23h-264q-18 0 -18 21v149q0 13 -13 13q-305 19 -448.5 159t-143.5 408q0 516 592 543q13 0 13 12v115q0 18 20 18h262q19 0 19 -18v-115q0 -12 12 -12q594 -27 594 -543q0 -270 -143.5 -409t-450.5 -158q-12 0 -12 -13v-149q0 -21 -19 -21zM655 420q13 0 13 12v567
q0 11 -13 11q-151 -6 -220.5 -75t-69.5 -220q0 -142 70 -213t220 -82zM983 420q150 11 220.5 82t70.5 213q0 150 -70 219.5t-221 75.5q-14 0 -14 -11v-567q0 -12 14 -12z" />
    <glyph glyph-name="uni0425" unicode="&#x425;" horiz-adv-x="1218" 
d="M326 0h-283q-10 0 -14 9t2 16l415 694l-387 649q-13 25 13 25h284q21 0 33 -21l221 -377h6l222 377q12 21 32 21h285q25 0 12 -25l-389 -649l418 -694q12 -25 -12 -25h-285q-24 0 -35 20l-248 424h-6l-250 -424q-11 -20 -34 -20z" />
    <glyph glyph-name="uni0426" unicode="&#x426;" horiz-adv-x="1368" 
d="M1327 -272h-242q-16 0 -16 20v240q0 12 -12 12h-905q-19 0 -19 18v1354q0 21 19 21h264q18 0 18 -21v-1091q0 -13 12 -13h439q12 0 12 13v1091q0 21 18 21h265q18 0 18 -21v-1091q0 -13 12 -13h115q21 0 21 -18v-502q0 -20 -19 -20z" />
    <glyph glyph-name="uni0427" unicode="&#x427;" horiz-adv-x="1251" 
d="M1100 0h-264q-19 0 -19 20v482q0 15 -18 12q-168 -43 -324 -43q-375 0 -375 367v536q0 19 21 19h260q20 0 20 -19v-471q0 -158 166 -158q110 0 221 27q29 6 29 29v573q0 19 19 19h262q20 0 20 -19v-1354q0 -20 -18 -20z" />
    <glyph glyph-name="uni0428" unicode="&#x428;" horiz-adv-x="1949" 
d="M1796 0h-1644q-19 0 -19 18v1354q0 21 19 21h264q18 0 18 -21v-1091q0 -13 12 -13h365q12 0 12 13v1091q0 21 17 21h266q18 0 18 -21v-1091q0 -13 13 -13h366q13 0 13 13v1091q0 21 16 21h264q21 0 21 -21v-1354q0 -18 -21 -18z" />
    <glyph glyph-name="uni0429" unicode="&#x429;" horiz-adv-x="1984" 
d="M1944 -272h-242q-16 0 -16 20v240q0 12 -13 12h-1521q-19 0 -19 18v1354q0 21 19 21h264q18 0 18 -21v-1091q0 -13 12 -13h365q12 0 12 13v1091q0 21 17 21h266q18 0 18 -21v-1091q0 -13 13 -13h366q13 0 13 13v1091q0 21 16 21h264q21 0 21 -21v-1091q0 -13 12 -13h113
q20 0 20 -18v-502q0 -20 -18 -20z" />
    <glyph glyph-name="uni042A" unicode="&#x42a;" horiz-adv-x="1441" 
d="M885 0h-543q-20 0 -20 20v1092q0 12 -11 12h-264q-18 0 -18 19v229q0 21 18 21h555q21 0 21 -21v-467q0 -12 12 -12h250q231 0 362 -120.5t131 -323.5q0 -205 -130.5 -327t-362.5 -122zM635 260h231q100 0 155.5 49.5t55.5 139.5t-55 138t-156 48h-231q-12 0 -12 -12
v-351q0 -12 12 -12z" />
    <glyph glyph-name="uni042B" unicode="&#x42b;" horiz-adv-x="1773" 
d="M694 0h-540q-21 0 -21 20v1352q0 21 21 21h260q20 0 20 -21v-467q0 -12 12 -12h248q231 0 362.5 -120.5t131.5 -323.5q0 -205 -131 -327t-363 -122zM446 260h232q100 0 154.5 49t54.5 140q0 88 -55 137t-154 49h-232q-12 0 -12 -12v-351q0 -12 12 -12zM1620 0h-260
q-21 0 -21 20v1352q0 21 21 21h260q20 0 20 -21v-1352q0 -20 -20 -20z" />
    <glyph glyph-name="uni042C" unicode="&#x42c;" horiz-adv-x="1251" 
d="M694 0h-540q-21 0 -21 20v1352q0 21 21 21h260q20 0 20 -21v-467q0 -12 12 -12h248q231 0 362.5 -120.5t131.5 -323.5q0 -205 -131 -327t-363 -122zM446 260h232q98 0 153.5 51t55.5 142q0 88 -54.5 135t-154.5 47h-232q-12 0 -12 -12v-351q0 -12 12 -12z" />
    <glyph glyph-name="uni042D" unicode="&#x42d;" horiz-adv-x="1181" 
d="M545 -25q-171 0 -293 75.5t-182 217.5q-8 20 10 29l211 96q18 9 28 -10q71 -147 222 -147q80 0 140.5 36.5t84.5 104.5q24 62 27 186q0 15 -15 15h-370q-19 0 -19 18v215q0 20 19 20h370q15 0 15 15q-3 103 -23 158q-23 73 -83.5 113t-145.5 40q-149 0 -219 -147
q-10 -20 -29 -11l-213 95q-15 9 -10 28q120 293 475 293q189 0 322 -85.5t186 -250.5q41 -128 41 -381q0 -277 -50 -407q-57 -153 -187.5 -234.5t-311.5 -81.5z" />
    <glyph glyph-name="uni042E" unicode="&#x42e;" horiz-adv-x="1777" 
d="M676 307q-31 103 -37 252q0 12 -12 12h-181q-12 0 -12 -12v-539q0 -20 -20 -20h-260q-21 0 -21 20v1352q0 21 21 21h260q20 0 20 -21v-520q0 -12 12 -12h181q12 0 12 12q9 147 37 233q51 160 177 245t306 85t306 -85t177 -245q39 -118 39 -389t-39 -389
q-51 -160 -177 -245t-306 -85t-307 85t-176 245zM1356 391q22 71 22 305q0 235 -22 303q-47 148 -197 148q-149 0 -196 -148q-23 -81 -23 -303q0 -221 23 -305q47 -145 196 -145q150 0 197 145z" />
    <glyph glyph-name="uni042F" unicode="&#x42f;" horiz-adv-x="1282" 
d="M170 -8h-92q-21 0 -21 20v230q0 18 21 18h28q92 0 123 78l58 135q35 80 94 119v8q-129 31 -206 125.5t-77 247.5q0 179 123 299q127 121 336 121h573q19 0 19 -19v-1354q0 -20 -19 -20h-262q-20 0 -20 20v486q0 12 -12 12h-105q-64 0 -98 -21t-62 -87l-77 -193
q-49 -122 -124 -173.5t-200 -51.5zM588 774h248q12 0 12 12v332q0 12 -12 12h-248q-87 0 -137 -46t-50 -132t50 -132t137 -46z" />
    <glyph glyph-name="uni0430" unicode="&#x430;" horiz-adv-x="1081" 
d="M416 -23q-146 0 -238 79.5t-92 224.5q0 157 109 238t303 81h176q12 0 12 12v37q0 73 -44.5 104t-158.5 31q-137 0 -221 -63q-16 -13 -26 4l-93 162q-9 18 7 28q138 99 368 99q237 0 338.5 -84t101.5 -275v-635q0 -20 -20 -20h-227q-21 0 -21 20v66h-2q-83 -109 -272 -109
zM502 193q184 0 184 137v67q0 13 -12 13h-139q-177 0 -177 -113q0 -104 144 -104z" />
    <glyph glyph-name="uni0431" unicode="&#x431;" horiz-adv-x="1105" 
d="M567 -25q-235 0 -356 148q-69 81 -90 201q-19 127 -19 323q0 223 27 352q27 133 127 222q32 28 87 51.5t91 30.5q22 7 117 20q85 12 88 12q89 12 92 62q0 18 21 18h219q18 0 18 -18q-1 -146 -64 -215.5t-204 -83.5l-86 -8q-7 0 -94 -9q-96 -14 -148 -61q-61 -55 -61 -174
h6q68 133 272 133q220 0 318 -121t98 -366q0 -517 -459 -517zM565 219q90 0 130 58.5t40 214.5q0 147 -40 202.5t-130 55.5t-131 -55.5t-41 -202.5q0 -156 40 -214.5t132 -58.5z" />
    <glyph glyph-name="uni0432" unicode="&#x432;" horiz-adv-x="1081" 
d="M659 0h-512q-18 0 -18 18v955q0 18 18 18h517q153 0 236 -69.5t83 -192.5q0 -152 -131 -213v-8q65 -21 106 -81.5t41 -143.5q0 -138 -89 -210.5t-251 -72.5zM426 203h178q51 0 81 27.5t30 74.5q0 98 -111 98h-178q-12 0 -12 -12v-176q0 -12 12 -12zM426 602h168
q104 0 104 94q0 92 -104 92h-168q-12 0 -12 -12v-164q0 -10 12 -10z" />
    <glyph glyph-name="uni0433" unicode="&#x433;" horiz-adv-x="849" 
d="M397 0h-250q-18 0 -18 18v955q0 18 18 18h666q21 0 21 -18v-205q0 -18 -21 -18h-385q-12 0 -12 -13v-719q0 -18 -19 -18z" />
    <glyph glyph-name="uni0434" unicode="&#x434;" horiz-adv-x="1171" 
d="M256 -213h-227q-17 0 -17 18v418q0 19 19 19h57q26 0 35 26q34 92 49 152q43 142 43 444v109q0 18 18 18h773q18 0 18 -18v-719q0 -12 12 -12h90q19 0 19 -19v-418q0 -18 -17 -18h-225q-18 0 -18 18v183q0 12 -13 12h-587q-13 0 -13 -12v-183q0 -18 -16 -18zM416 242h309
q12 0 12 12v487q0 13 -12 13h-229q-13 0 -13 -13v-45q0 -260 -77 -440q-6 -14 10 -14z" />
    <glyph glyph-name="uni0435" unicode="&#x435;" horiz-adv-x="1079" 
d="M553 -23q-167 0 -281 74t-157 209q-35 107 -35 236q0 142 33 237q43 133 155 207t271 74q160 0 272.5 -74t155.5 -205q32 -97 32 -305q0 -20 -22 -20h-600q-12 0 -12 -13q3 -31 12 -55q40 -131 205 -131q133 0 227 88q19 16 29 0l135 -127q15 -16 2 -29
q-156 -166 -422 -166zM377 600h328q12 0 12 12q0 36 -10 74q-38 109 -166 109t-166 -109q-10 -38 -10 -74q0 -12 12 -12z" />
    <glyph glyph-name="uni0436" unicode="&#x436;" horiz-adv-x="1587" 
d="M176 -8h-104q-21 0 -21 18v199q0 18 21 18h8q36 0 54.5 18.5t37.5 69.5l39 101q36 86 90 100v8q-44 19 -70 94l-30 82q-28 72 -92 72h-17q-20 0 -20 21v188q0 18 20 18h90q105 0 158 -34t84 -119l49 -131q34 -94 125 -94h41q12 0 12 12v340q0 18 19 18h250q18 0 18 -18
v-340q0 -12 12 -12h39q93 0 127 94l49 131q31 85 83.5 119t156.5 34h92q19 0 19 -18v-188q0 -21 -19 -21h-16q-64 0 -92 -72l-31 -82q-26 -71 -70 -94v-8q54 -12 88 -100l39 -101q19 -51 37.5 -69.5t54.5 -18.5h11q18 0 18 -18v-199q0 -18 -18 -18h-105q-102 0 -156 37.5
t-86 128.5l-53 143q-30 86 -123 86h-45q-12 0 -12 -12v-357q0 -18 -18 -18h-250q-19 0 -19 18v357q0 12 -12 12h-45q-95 0 -125 -86l-51 -143q-31 -89 -86 -127.5t-156 -38.5z" />
    <glyph glyph-name="uni0437" unicode="&#x437;" horiz-adv-x="980" 
d="M489 -25q-267 0 -436 129q-13 9 -2 27l117 160q10 10 29 0q121 -86 249 -86q170 0 170 102q0 96 -139 96h-129q-18 0 -18 19v164q0 20 18 20h125q129 0 129 99q0 88 -166 88q-93 0 -219 -72q-17 -13 -27 0l-96 151q-13 16 6 29q154 115 387 115q197 0 302.5 -71
t105.5 -206q0 -69 -38 -128t-101 -85v-6q68 -23 110.5 -87t42.5 -142q0 -142 -116.5 -229t-303.5 -87z" />
    <glyph glyph-name="uni0438" unicode="&#x438;" horiz-adv-x="1167" 
d="M397 0h-250q-18 0 -18 18v955q0 18 18 18h244q16 0 19 -18v-539h6l323 543q8 14 27 14h254q18 0 18 -18v-955q0 -18 -18 -18h-244q-15 0 -18 18v555h-6l-326 -557q-10 -16 -29 -16z" />
    <glyph glyph-name="uni0439" unicode="&#x439;" horiz-adv-x="1167" 
d="M397 0h-250q-18 0 -18 18v955q0 18 18 18h244q16 0 19 -18v-539h6l323 543q8 14 27 14h254q18 0 18 -18v-955q0 -18 -18 -18h-244q-15 0 -18 18v555h-6l-326 -557q-10 -16 -29 -16zM283 1352q-6 25 10 28l129 21q18 3 24 -12q34 -105 136 -105q100 0 135 105q6 15 24 12
l129 -21q17 -3 11 -28q-50 -246 -299 -246q-250 0 -299 246z" />
    <glyph glyph-name="uni043A" unicode="&#x43a;" horiz-adv-x="1085" 
d="M397 0h-250q-18 0 -18 18v955q0 18 18 18h250q19 0 19 -18v-336q0 -12 12 -12h55q85 0 123 90l53 131q32 82 87 117.5t147 35.5h104q19 0 19 -18v-188q0 -21 -19 -21h-16q-62 0 -92 -70l-37 -86q-27 -71 -68 -92v-8q61 -16 95 -108l32 -89q26 -61 38 -74q18 -18 50 -18
h17q18 0 18 -18v-199q0 -18 -18 -18h-96q-105 0 -164 39t-90 127l-52 143q-11 28 -26 45.5t-35.5 25t-37 9.5t-44.5 2h-43q-12 0 -12 -12v-353q0 -18 -19 -18z" />
    <glyph glyph-name="uni043B" unicode="&#x43b;" horiz-adv-x="1167" 
d="M133 -8h-88q-18 0 -18 18v199q0 18 18 18h16q168 0 168 271v475q0 18 19 18h772q18 0 18 -18v-955q0 -18 -18 -18h-248q-20 0 -20 18v719q0 13 -13 13h-227q-12 0 -12 -13v-239q0 -281 -88 -394q-87 -112 -279 -112z" />
    <glyph glyph-name="uni043C" unicode="&#x43c;" horiz-adv-x="1351" 
d="M383 0h-236q-18 0 -18 18v955q0 18 18 18h252q15 0 23 -14l252 -520h6l250 520q8 14 24 14h250q19 0 19 -18v-955q0 -18 -19 -18h-233q-21 0 -21 18v494h-6l-178 -365q-9 -18 -27 -18h-127q-16 0 -22 18l-182 365h-7v-494q0 -18 -18 -18z" />
    <glyph glyph-name="uni043D" unicode="&#x43d;" 
d="M397 0h-250q-18 0 -18 18v955q0 18 18 18h250q19 0 19 -18v-336q0 -12 12 -12h283q12 0 12 12v336q0 18 20 18h248q19 0 19 -18v-955q0 -18 -19 -18h-248q-20 0 -20 18v353q0 12 -12 12h-283q-12 0 -12 -12v-353q0 -18 -19 -18z" />
    <glyph glyph-name="uni043E" unicode="&#x43e;" horiz-adv-x="1085" 
d="M113 256q-33 100 -33 240q0 139 33 239q43 133 156 206t274 73t274 -73t156 -206q33 -100 33 -239q0 -140 -33 -240q-43 -133 -156 -206t-274 -73t-274 73t-156 206zM696 326q19 62 19 170t-19 170q-34 106 -153 106q-120 0 -154 -106q-18 -58 -18 -170t18 -170
q34 -107 154 -107q119 0 153 107z" />
    <glyph glyph-name="uni043F" unicode="&#x43f;" horiz-adv-x="1134" 
d="M397 0h-250q-18 0 -18 18v955q0 18 18 18h840q19 0 19 -18v-955q0 -18 -19 -18h-248q-20 0 -20 18v719q0 13 -12 13h-279q-12 0 -12 -13v-719q0 -18 -19 -18z" />
    <glyph glyph-name="uni0440" unicode="&#x440;" horiz-adv-x="1128" 
d="M395 -369h-245q-21 0 -21 21v1319q0 20 21 20h245q21 0 21 -20v-72h2q77 115 260 115q259 0 336 -238q35 -113 35 -280q0 -168 -35 -281q-77 -238 -336 -238q-183 0 -260 115h-2v-440q0 -21 -21 -21zM586 219q119 0 153 107q19 62 19 170t-19 170q-34 106 -153 106
q-118 0 -152 -106q-18 -58 -18 -170t18 -170q34 -107 152 -107z" />
    <glyph glyph-name="uni0441" unicode="&#x441;" horiz-adv-x="985" 
d="M539 -23q-161 0 -273.5 73t-154.5 208q-31 91 -31 238q0 146 31 237q42 135 154.5 208t273.5 73q121 0 219 -50.5t155 -136.5q10 -17 -4 -28l-178 -117q-18 -12 -31 4q-62 86 -157 86q-120 0 -154 -106q-18 -52 -18 -170t18 -170q34 -107 154 -107q95 0 157 86
q13 16 31 4l178 -116q14 -12 4 -29q-57 -86 -155 -136.5t-219 -50.5z" />
    <glyph glyph-name="uni0442" unicode="&#x442;" horiz-adv-x="899" 
d="M571 0h-245q-21 0 -21 18v719q0 13 -12 13h-252q-18 0 -18 18v205q0 18 18 18h817q19 0 19 -18v-205q0 -18 -19 -18h-254q-12 0 -12 -13v-719q0 -18 -21 -18z" />
    <glyph glyph-name="uni0443" unicode="&#x443;" horiz-adv-x="1038" 
d="M266 -369h-69q-21 0 -21 21v201q0 20 21 20h43q54 0 85 23.5t50 78.5l26 74l-368 922q-6 20 16 20h262q19 0 25 -20l199 -574h4l184 574q6 20 25 20h253q23 0 17 -20l-402 -1055q-60 -159 -139 -223q-77 -62 -211 -62z" />
    <glyph glyph-name="uni0444" unicode="&#x444;" horiz-adv-x="1482" 
d="M866 -369h-250q-18 0 -18 19v327q0 13 -12 13q-514 35 -514 514q0 240 128 359.5t386 137.5q12 0 12 13v360q0 19 18 19h250q19 0 19 -19v-360q0 -13 12 -13q258 -18 385 -137t127 -360q0 -480 -512 -514q-12 0 -12 -13v-327q0 -19 -19 -19zM588 225q12 0 12 13v518
q0 12 -12 12q-119 -6 -173.5 -66.5t-54.5 -199.5q0 -142 56 -206.5t172 -70.5zM893 225q116 6 171.5 70t55.5 207q0 142 -53 201t-174 65q-12 0 -12 -12v-518q0 -13 12 -13z" />
    <glyph glyph-name="uni0445" unicode="&#x445;" horiz-adv-x="1054" 
d="M328 0h-265q-25 0 -14 20l334 494l-309 457q-11 20 14 20h266q23 0 35 -18l150 -234h2l151 234q15 18 33 18h264q28 0 17 -20l-310 -457l334 -494q11 -20 -16 -20h-266q-19 0 -31 18l-178 271h-2l-177 -271q-15 -18 -32 -18z" />
    <glyph glyph-name="uni0446" unicode="&#x446;" horiz-adv-x="1153" 
d="M1110 -213h-225q-19 0 -19 18v183q0 12 -12 12h-707q-18 0 -18 18v955q0 18 18 18h250q19 0 19 -18v-719q0 -12 12 -12h279q12 0 12 12v719q0 18 20 18h248q19 0 19 -18v-719q0 -12 12 -12h90q18 0 18 -19v-418q0 -18 -16 -18z" />
    <glyph glyph-name="uni0447" unicode="&#x447;" horiz-adv-x="1071" 
d="M924 0h-248q-21 0 -21 18v318q0 18 -18 12q-133 -31 -234 -31q-319 0 -319 306v350q0 18 20 18h248q19 0 19 -18v-299q0 -115 121 -115q72 0 149 23q14 3 14 16v375q0 18 21 18h248q18 0 18 -18v-955q0 -18 -18 -18z" />
    <glyph glyph-name="uni0448" unicode="&#x448;" horiz-adv-x="1634" 
d="M1487 0h-1340q-18 0 -18 18v955q0 18 18 18h250q19 0 19 -18v-719q0 -12 12 -12h234q12 0 12 12v719q0 18 20 18h248q19 0 19 -18v-719q0 -12 12 -12h233q13 0 13 12v719q0 18 20 18h248q18 0 18 -18v-955q0 -18 -18 -18z" />
    <glyph glyph-name="uni0449" unicode="&#x449;" horiz-adv-x="1654" 
d="M1610 -213h-226q-16 0 -16 18v183q0 12 -12 12h-1209q-18 0 -18 18v955q0 18 18 18h250q19 0 19 -18v-719q0 -12 12 -12h234q12 0 12 12v719q0 18 20 18h248q19 0 19 -18v-719q0 -12 12 -12h233q13 0 13 12v719q0 18 20 18h248q18 0 18 -18v-719q0 -12 13 -12h90
q20 0 20 -19v-418q0 -18 -18 -18z" />
    <glyph glyph-name="uni044A" unicode="&#x44a;" horiz-adv-x="1163" 
d="M768 0h-506q-18 0 -18 18v719q0 13 -13 13h-190q-18 0 -18 18v205q0 18 18 18h471q18 0 18 -18v-307q0 -13 13 -13h219q152 0 244 -92q94 -88 94 -233q0 -146 -92 -237t-240 -91zM537 219h172q55 0 85.5 29.5t30.5 81.5q0 50 -30.5 79t-85.5 29h-172q-13 0 -13 -12v-195
q0 -12 13 -12z" />
    <glyph glyph-name="uni044B" unicode="&#x44b;" horiz-adv-x="1499" 
d="M653 0h-506q-18 0 -18 18v955q0 18 18 18h250q19 0 19 -18v-307q0 -13 12 -13h219q152 0 244 -92q94 -88 94 -233q0 -146 -92 -237t-240 -91zM422 219h172q54 0 84.5 30t30.5 81q0 50 -30.5 79t-84.5 29h-172q-12 0 -12 -12v-195q0 -12 12 -12zM1350 0h-246q-21 0 -21 20
v951q0 20 21 20h246q20 0 20 -20v-951q0 -20 -20 -20z" />
    <glyph glyph-name="uni044C" unicode="&#x44c;" horiz-adv-x="1048" 
d="M647 0h-500q-18 0 -18 18v955q0 18 18 18h250q19 0 19 -18v-307q0 -13 12 -13h219q152 0 244 -92q94 -88 94 -233q0 -147 -93 -237.5t-245 -90.5zM422 219h172q54 0 84.5 30t30.5 81q0 50 -30.5 79t-84.5 29h-172q-12 0 -12 -12v-195q0 -12 12 -12z" />
    <glyph glyph-name="uni044D" unicode="&#x44d;" horiz-adv-x="1001" 
d="M473 -23q-276 0 -399 187q-13 17 8 29l149 122q18 15 31 -8q80 -102 197 -102q99 0 145 69q32 49 35 109q0 12 -12 12h-258q-19 0 -19 19v176q0 20 19 20h260q13 0 10 13q-2 30 -21 77q-37 88 -159 88q-124 0 -185 -94q-16 -19 -32 -6l-148 105q-15 12 -6 28
q129 193 385 193q213 0 344 -137q117 -126 117 -381q0 -223 -86 -344q-123 -175 -375 -175z" />
    <glyph glyph-name="uni044E" unicode="&#x44e;" horiz-adv-x="1540" 
d="M397 0h-250q-18 0 -18 18v955q0 18 18 18h250q19 0 19 -18v-338q0 -12 12 -12h135q9 0 12 12q22 117 66 190q118 189 373 189q156 0 265.5 -72.5t150.5 -206.5q30 -99 30 -241q0 -141 -30 -240q-41 -134 -150 -205.5t-266 -71.5q-212 0 -338 144q-85 98 -103 252
q0 12 -12 12h-133q-12 0 -12 -12v-355q0 -18 -19 -18zM1151 326q18 62 18 170q0 106 -18 168q-30 108 -137 108t-137 -108q-19 -65 -19 -168q0 -105 19 -170q34 -107 137 -107t137 107z" />
    <glyph glyph-name="uni044F" unicode="&#x44f;" horiz-adv-x="1105" 
d="M195 -8h-95q-18 0 -18 18v199q0 18 18 18h25q57 0 88 66l27 61q22 51 55 60v6q-89 19 -146 90.5t-57 167.5q0 148 93.5 230.5t260.5 82.5h512q19 0 19 -18v-955q0 -18 -19 -18h-247q-21 0 -21 18v312q0 12 -12 12h-66q-69 0 -104 -78l-57 -127q-36 -83 -92.5 -114
t-163.5 -31zM492 553h194q10 0 10 12v199q0 12 -10 12h-194q-54 0 -85.5 -28.5t-31.5 -79.5q0 -50 32 -82.5t85 -32.5z" />
    <glyph glyph-name="uni0450" unicode="&#x450;" horiz-adv-x="1079" 
d="M553 -23q-167 0 -281 74t-157 209q-35 107 -35 236q0 142 33 237q43 133 155 207t271 74q160 0 272.5 -74t155.5 -205q32 -97 32 -305q0 -20 -22 -20h-600q-12 0 -12 -13q3 -31 12 -55q40 -131 205 -131q133 0 227 88q19 16 29 0l135 -127q15 -16 2 -29
q-156 -166 -422 -166zM377 600h328q12 0 12 12q0 36 -10 74q-38 109 -166 109t-166 -109q-10 -38 -10 -74q0 -12 12 -12zM672 1128h-189q-24 0 -39 21l-202 266q-6 7 -3 14t13 7h237q25 0 37 -21l156 -266q9 -21 -10 -21z" />
    <glyph glyph-name="uni0451" unicode="&#x451;" horiz-adv-x="1079" 
d="M553 -23q-167 0 -281 74t-157 209q-35 107 -35 236q0 142 33 237q43 133 155 207t271 74q160 0 272.5 -74t155.5 -205q32 -97 32 -305q0 -20 -22 -20h-600q-12 0 -12 -13q3 -31 12 -55q40 -131 205 -131q133 0 227 88q19 16 29 0l135 -127q15 -16 2 -29
q-156 -166 -422 -166zM377 600h328q12 0 12 12q0 36 -10 74q-38 109 -166 109t-166 -109q-10 -38 -10 -74q0 -12 12 -12zM840 1149h-191q-20 0 -20 20v203q0 21 20 21h191q20 0 20 -21v-203q0 -20 -20 -20zM428 1149h-188q-21 0 -21 20v203q0 21 21 21h188q21 0 21 -21v-203
q0 -20 -21 -20z" />
    <glyph glyph-name="uni0452" unicode="&#x452;" horiz-adv-x="1132" 
d="M641 -369h-68q-20 0 -20 21v201q0 20 20 20h41q62 0 86.5 25t24.5 90v579q0 86 -40 133.5t-114 47.5q-73 0 -114 -49t-41 -132v-547q0 -20 -21 -20h-245q-21 0 -21 20v1035q0 12 -12 12h-131q-21 0 -21 20v175q0 20 21 20h131q12 0 12 12v78q0 21 21 21h245q21 0 21 -21
v-78q0 -12 12 -12h211q20 0 20 -20v-175q0 -20 -20 -20h-211q-12 0 -12 -12v-176h2q81 112 256 112q159 0 248.5 -100t89.5 -268v-633q0 -359 -371 -359z" />
    <glyph glyph-name="uni0453" unicode="&#x453;" horiz-adv-x="849" 
d="M397 0h-250q-18 0 -18 18v955q0 18 18 18h666q21 0 21 -18v-205q0 -18 -21 -18h-385q-12 0 -12 -13v-719q0 -18 -19 -18zM508 1128h-186q-22 0 -13 21l158 266q12 21 37 21h235q10 0 13.5 -7t-2.5 -14l-203 -266q-15 -21 -39 -21z" />
    <glyph glyph-name="uni0454" unicode="&#x454;" horiz-adv-x="1001" 
d="M541 -23q-252 0 -375 175q-86 121 -86 344q0 255 117 381q131 137 344 137q256 0 385 -193q9 -16 -6 -28l-148 -105q-17 -13 -33 6q-61 94 -184 94t-160 -88q-18 -44 -20 -77q-3 -13 10 -13h260q19 0 19 -20v-176q0 -19 -19 -19h-258q-12 0 -12 -12q3 -60 35 -109
q46 -69 145 -69q117 0 197 102q13 22 30 8l150 -122q21 -12 8 -29q-123 -187 -399 -187z" />
    <glyph glyph-name="uni0455" unicode="&#x455;" horiz-adv-x="1034" 
d="M532 -23q-273 0 -450 154q-14 15 0 29l133 149q13 13 29 0q141 -108 303 -108q153 0 153 94q0 39 -30.5 59t-110.5 27l-110 12q-159 17 -241.5 93.5t-82.5 209.5q0 148 108 233t299 85q239 0 402 -123q15 -15 2 -31l-115 -141q-11 -14 -28 -4q-127 80 -269 80
q-125 0 -125 -82q0 -38 30 -56.5t108 -25.5l108 -13q330 -35 330 -301q-2 -157 -119 -248.5t-324 -91.5z" />
    <glyph glyph-name="uni0456" unicode="&#x456;" horiz-adv-x="544" 
d="M395 0h-245q-21 0 -21 20v951q0 20 21 20h245q21 0 21 -20v-951q0 -20 -21 -20zM395 1149h-245q-21 0 -21 20v203q0 21 21 21h245q21 0 21 -21v-203q0 -20 -21 -20z" />
    <glyph glyph-name="uni0457" unicode="&#x457;" horiz-adv-x="544" 
d="M573 1149h-190q-21 0 -21 20v203q0 21 21 21h190q21 0 21 -21v-203q0 -20 -21 -20zM162 1149h-189q-20 0 -20 20v203q0 21 20 21h189q20 0 20 -21v-203q0 -20 -20 -20zM395 0h-245q-21 0 -21 20v951q0 20 21 20h245q21 0 21 -20v-951q0 -20 -21 -20z" />
    <glyph glyph-name="uni0458" unicode="&#x458;" horiz-adv-x="544" 
d="M45 -369h-68q-20 0 -20 21v201q0 20 20 20h41q62 0 86.5 25t24.5 90v983q0 20 21 20h245q21 0 21 -20v-981q0 -359 -371 -359zM395 1149h-245q-21 0 -21 20v203q0 21 21 21h245q21 0 21 -21v-203q0 -20 -21 -20z" />
    <glyph glyph-name="uni0459" unicode="&#x459;" horiz-adv-x="1671" 
d="M141 -8h-96q-18 0 -18 18v205q0 18 18 18h16q168 0 168 265v475q0 18 19 18h772q18 0 18 -18v-309q0 -13 13 -13h219q152 0 245 -90t93 -233q0 -146 -92 -237t-240 -91h-504q-20 0 -20 18v719q0 13 -13 13h-227q-12 0 -12 -13v-239q0 -281 -88 -394q-84 -112 -271 -112z
M1044 219h173q55 0 85.5 29.5t30.5 81.5q0 50 -30.5 79t-85.5 29h-173q-12 0 -12 -12v-195q0 -12 12 -12z" />
    <glyph glyph-name="uni045A" unicode="&#x45a;" horiz-adv-x="1640" 
d="M397 0h-250q-18 0 -18 18v955q0 18 18 18h250q19 0 19 -18v-314q0 -12 12 -12h281q12 0 12 12v314q0 18 20 18h248q19 0 19 -18v-314q0 -12 12 -12h219q152 0 245 -89t93 -232q0 -146 -91.5 -236t-240.5 -90h-504q-20 0 -20 18v379q0 13 -12 13h-281q-12 0 -12 -13v-379
q0 -18 -19 -18zM1014 219h172q55 0 86 29.5t31 79.5t-31 78t-86 28h-172q-13 0 -13 -12v-191q0 -12 13 -12z" />
    <glyph glyph-name="uni045B" unicode="&#x45b;" horiz-adv-x="1132" 
d="M395 0h-245q-21 0 -21 20v1035q0 12 -12 12h-131q-21 0 -21 20v175q0 20 21 20h131q12 0 12 12v78q0 21 21 21h245q21 0 21 -21v-78q0 -12 12 -12h211q20 0 20 -20v-175q0 -20 -20 -20h-211q-12 0 -12 -12v-176h2q81 112 256 112q159 0 248.5 -100t89.5 -268v-603
q0 -20 -21 -20h-246q-20 0 -20 20v547q0 86 -40 133.5t-114 47.5q-73 0 -114 -49t-41 -132v-547q0 -20 -21 -20z" />
    <glyph glyph-name="uni045C" unicode="&#x45c;" horiz-adv-x="1085" 
d="M397 0h-250q-18 0 -18 18v955q0 18 18 18h250q19 0 19 -18v-336q0 -12 12 -12h55q85 0 123 90l53 131q32 82 87 117.5t147 35.5h104q19 0 19 -18v-188q0 -21 -19 -21h-16q-62 0 -92 -70l-37 -86q-27 -71 -68 -92v-8q61 -16 95 -108l32 -89q26 -61 38 -74q18 -18 50 -18
h17q18 0 18 -18v-199q0 -18 -18 -18h-96q-105 0 -164 39t-90 127l-52 143q-11 28 -26 45.5t-35.5 25t-37 9.5t-44.5 2h-43q-12 0 -12 -12v-353q0 -18 -19 -18zM602 1128h-186q-22 0 -13 21l158 266q12 21 37 21h236q10 0 13 -7t-3 -14l-203 -266q-15 -21 -39 -21z" />
    <glyph glyph-name="uni045D" unicode="&#x45d;" horiz-adv-x="1167" 
d="M397 0h-250q-18 0 -18 18v955q0 18 18 18h244q16 0 19 -18v-539h6l323 543q8 14 27 14h254q18 0 18 -18v-955q0 -18 -18 -18h-244q-15 0 -18 18v555h-6l-326 -557q-10 -16 -29 -16zM733 1128h-188q-24 0 -39 21l-203 266q-6 7 -3 14t13 7h238q25 0 37 -21l155 -266
q9 -21 -10 -21z" />
    <glyph glyph-name="uni045E" unicode="&#x45e;" horiz-adv-x="1038" 
d="M266 -369h-69q-21 0 -21 21v201q0 20 21 20h43q54 0 85 23.5t50 78.5l26 74l-368 922q-6 20 16 20h262q19 0 25 -20l199 -574h4l184 574q6 20 25 20h253q23 0 17 -20l-402 -1055q-60 -159 -139 -223q-77 -62 -211 -62zM236 1352q-6 25 10 28l129 21q18 3 24 -12
q34 -105 136 -105q101 0 135 105q6 15 24 12l129 -21q17 -3 11 -28q-50 -246 -299 -246t-299 246z" />
    <glyph glyph-name="uni045F" unicode="&#x45f;" horiz-adv-x="1134" 
d="M678 -213h-225q-17 0 -17 18v183q0 12 -12 12h-277q-18 0 -18 18v955q0 18 18 18h250q19 0 19 -18v-719q0 -12 12 -12h279q12 0 12 12v719q0 18 20 18h248q19 0 19 -18v-955q0 -18 -19 -18h-278q-13 0 -13 -12v-183q0 -18 -18 -18z" />
    <glyph glyph-name="uni0490" unicode="&#x490;" horiz-adv-x="1024" 
d="M414 0h-260q-21 0 -21 20v1352q0 21 21 21h571q14 0 14 12v223q0 21 19 21h225q18 0 18 -21v-485q0 -19 -20 -19h-535q-12 0 -12 -12v-1092q0 -20 -20 -20z" />
    <glyph glyph-name="uni0491" unicode="&#x491;" horiz-adv-x="849" 
d="M395 0h-248q-18 0 -18 18v955q0 18 18 18h424q13 0 13 13v165q0 21 16 21h217q17 0 17 -21v-399q0 -20 -21 -20h-385q-12 0 -12 -13v-719q0 -18 -21 -18z" />
    <glyph glyph-name="Wgrave" unicode="&#x1e80;" horiz-adv-x="1771" 
d="M1366 0h-205q-20 0 -26 20l-242 867h-4l-244 -867q-6 -20 -27 -20h-204q-19 0 -25 20l-360 1352q-3 21 16 21h264q22 0 25 -21l201 -874h4l237 874q6 21 27 21h178q19 0 25 -21l245 -874h4l193 874q3 21 25 21h262q19 0 16 -21l-358 -1352q-3 -20 -27 -20zM981 1544h-190
q-20 0 -39 19l-252 237q-7 8 -4 14.5t14 6.5h246q24 0 39 -21l194 -235q6 -7 4 -14t-12 -7z" />
    <glyph glyph-name="wgrave" unicode="&#x1e81;" horiz-adv-x="1562" 
d="M1190 0h-205q-18 0 -24 20l-170 576h-5l-174 -576q-6 -20 -24 -20h-203q-19 0 -25 20l-317 951q-6 20 14 20h252q23 0 29 -20l164 -590h4l170 590q6 20 29 20h172q20 0 26 -20l174 -590h4l156 590q6 20 27 20h252q22 0 16 -20l-318 -951q-6 -20 -24 -20zM881 1128h-189
q-24 0 -39 21l-202 266q-6 7 -3 14t13 7h237q25 0 37 -21l156 -266q9 -21 -10 -21z" />
    <glyph glyph-name="Wacute" unicode="&#x1e82;" horiz-adv-x="1771" 
d="M1366 0h-205q-20 0 -26 20l-242 867h-4l-244 -867q-6 -20 -27 -20h-204q-19 0 -25 20l-360 1352q-3 21 16 21h264q22 0 25 -21l201 -874h4l237 874q6 21 27 21h178q19 0 25 -21l245 -874h4l193 874q3 21 25 21h262q19 0 16 -21l-358 -1352q-3 -20 -27 -20zM995 1544h-190
q-10 0 -12 7t4 14l194 235q15 21 39 21h246q11 0 14 -6.5t-4 -14.5l-252 -237q-19 -19 -39 -19z" />
    <glyph glyph-name="wacute" unicode="&#x1e83;" horiz-adv-x="1562" 
d="M1190 0h-205q-18 0 -24 20l-170 576h-5l-174 -576q-6 -20 -24 -20h-203q-19 0 -25 20l-317 951q-6 20 14 20h252q23 0 29 -20l164 -590h4l170 590q6 20 29 20h172q20 0 26 -20l174 -590h4l156 590q6 20 27 20h252q22 0 16 -20l-318 -951q-6 -20 -24 -20zM885 1128h-187
q-21 0 -12 21l158 266q12 21 37 21h235q10 0 13 -7t-3 -14l-202 -266q-15 -21 -39 -21z" />
    <glyph glyph-name="Wdieresis" unicode="&#x1e84;" horiz-adv-x="1771" 
d="M1366 0h-205q-20 0 -26 20l-242 867h-4l-244 -867q-6 -20 -27 -20h-204q-19 0 -25 20l-360 1352q-3 21 16 21h264q22 0 25 -21l201 -874h4l237 874q6 21 27 21h178q19 0 25 -21l245 -874h4l193 874q3 21 25 21h262q19 0 16 -21l-358 -1352q-3 -20 -27 -20zM1190 1556
h-184q-21 0 -21 21v201q0 20 21 20h184q20 0 20 -20v-201q0 -21 -20 -21zM774 1556h-184q-21 0 -21 21v201q0 20 21 20h184q21 0 21 -20v-201q0 -21 -21 -21z" />
    <glyph glyph-name="wdieresis" unicode="&#x1e85;" horiz-adv-x="1562" 
d="M1190 0h-205q-18 0 -24 20l-170 576h-5l-174 -576q-6 -20 -24 -20h-203q-19 0 -25 20l-317 951q-6 20 14 20h252q23 0 29 -20l164 -590h4l170 590q6 20 29 20h172q20 0 26 -20l174 -590h4l156 590q6 20 27 20h252q22 0 16 -20l-318 -951q-6 -20 -24 -20zM1085 1149h-190
q-21 0 -21 20v203q0 21 21 21h190q21 0 21 -21v-203q0 -20 -21 -20zM674 1149h-189q-20 0 -20 20v203q0 21 20 21h189q20 0 20 -21v-203q0 -20 -20 -20z" />
    <glyph glyph-name="Ygrave" unicode="&#x1ef2;" horiz-adv-x="1163" 
d="M719 0h-260q-21 0 -21 20v535l-411 817q-9 21 14 21h266q22 0 31 -21l252 -508h6l252 508q9 21 31 21h258q10 0 14.5 -6.5t-0.5 -14.5l-412 -817v-535q0 -20 -20 -20zM705 1544h-191q-20 0 -39 19l-252 237q-6 8 -3 14.5t13 6.5h246q24 0 39 -21l195 -235q6 -7 3 -14
t-11 -7z" />
    <glyph glyph-name="ygrave" unicode="&#x1ef3;" horiz-adv-x="1038" 
d="M266 -369h-69q-21 0 -21 21v201q0 20 21 20h43q54 0 85 23.5t50 78.5l26 74l-368 922q-6 20 16 20h262q19 0 25 -20l199 -574h4l184 574q6 20 25 20h253q23 0 17 -20l-402 -1055q-60 -159 -139 -223q-77 -62 -211 -62zM649 1128h-188q-24 0 -39 21l-203 266q-6 7 -3 14
t13 7h238q25 0 37 -21l155 -266q9 -21 -10 -21z" />
    <glyph glyph-name="uni2010" unicode="&#x2010;" horiz-adv-x="802" 
d="M696 418h-590q-20 0 -20 20v209q0 21 20 21h590q21 0 21 -21v-209q0 -20 -21 -20z" />
    <glyph glyph-name="endash" unicode="&#x2013;" horiz-adv-x="1095" 
d="M1034 424h-973q-20 0 -20 20v199q0 21 20 21h973q21 0 21 -21v-199q0 -20 -21 -20z" />
    <glyph glyph-name="emdash" unicode="&#x2014;" horiz-adv-x="1830" 
d="M1769 424h-1708q-20 0 -20 20v199q0 21 20 21h1708q21 0 21 -21v-199q0 -20 -21 -20z" />
    <glyph glyph-name="afii00208" unicode="&#x2015;" horiz-adv-x="1830" 
d="M1769 424h-1708q-20 0 -20 20v199q0 21 20 21h1708q21 0 21 -21v-199q0 -20 -21 -20z" />
    <glyph glyph-name="quoteleft" unicode="&#x2018;" horiz-adv-x="473" 
d="M338 967h-203q-20 0 -20 20v215q0 28 18 43l170 137q15 15 33 15q22 0 22 -23v-387q0 -20 -20 -20z" />
    <glyph glyph-name="quoteright" unicode="&#x2019;" horiz-adv-x="473" 
d="M137 963q-22 0 -22 22v387q0 21 20 21h203q20 0 20 -21v-215q0 -28 -18 -43l-170 -137q-14 -14 -33 -14z" />
    <glyph glyph-name="quotesinglbase" unicode="&#x201a;" horiz-adv-x="473" 
d="M137 -184q-22 0 -22 22v387q0 21 20 21h203q20 0 20 -21v-213q0 -30 -18 -45l-170 -135q-16 -16 -33 -16z" />
    <glyph glyph-name="quotedblleft" unicode="&#x201c;" horiz-adv-x="854" 
d="M719 967h-203q-20 0 -20 20v215q0 28 18 43l170 137q15 15 33 15q22 0 22 -23v-387q0 -20 -20 -20zM338 967h-203q-20 0 -20 20v215q0 28 18 43l170 137q15 15 33 15q22 0 22 -23v-387q0 -20 -20 -20z" />
    <glyph glyph-name="quotedblright" unicode="&#x201d;" horiz-adv-x="854" 
d="M518 963q-22 0 -22 22v387q0 21 20 21h203q20 0 20 -21v-215q0 -28 -18 -43l-170 -137q-14 -14 -33 -14zM137 963q-22 0 -22 22v387q0 21 20 21h203q20 0 20 -21v-215q0 -28 -18 -43l-170 -137q-14 -14 -33 -14z" />
    <glyph glyph-name="quotedblbase" unicode="&#x201e;" horiz-adv-x="854" 
d="M518 -184q-22 0 -22 22v387q0 21 20 21h203q20 0 20 -21v-213q0 -30 -18 -45l-170 -135q-16 -16 -33 -16zM137 -184q-22 0 -22 22v387q0 21 20 21h203q20 0 20 -21v-213q0 -30 -18 -45l-170 -135q-16 -16 -33 -16z" />
    </font>
</defs>
</svg>
